<?xml version="1.0" standalone="no"?><!DOCTYPE svg PUBLIC "-//W3C//DTD SVG 1.1//EN" "http://www.w3.org/Graphics/SVG/1.1/DTD/svg11.dtd" ><svg xmlns="http://www.w3.org/2000/svg"><metadata></metadata><defs><font id="Ascender - Liberation Sans" horiz-adv-x="2730"><font-face font-family="Liberation Sans" font-weight="700" font-stretch="normal" units-per-em="2048" panose-1="2 11 7 4 2 2 2 2 2 4" ascent="1854" descent="-434" x-height="4" bbox="-987 -771 2671 2116" underline-thickness="215" underline-position="-217" unicode-range="U+0020-fffc" /><missing-glyph horiz-adv-x="1536" d="M205 1409 l1125 0 l0 -1409 l-1125 0 l0 1409 ZM281 1333 l0 -1257 l973 0 l0 1257 l-973 0 Z" /><glyph glyph-name="space" unicode=" " d="" /><glyph glyph-name="exclam" unicode="!" d="M455 426 l-230 0 l-32 983 l294 0 l-32 -983 ZM193 0 l0 270 l288 0 l0 -270 l-288 0 Z" /><glyph glyph-name="quotedbl" unicode="&quot;" d="M807 898 l-219 0 l-27 511 l275 0 l-29 -511 ZM381 898 l-219 0 l-27 511 l273 0 l-27 -511 Z" /><glyph glyph-name="numbersign" unicode="#" d="M909 862 l-69 -332 l215 0 l0 -149 l-246 0 l-82 -381 l-156 0 l80 381 l-307 0 l-80 -381 l-153 0 l79 381 l-155 0 l0 149 l188 0 l70 332 l-207 0 l0 148 l238 0 l84 385 l153 0 l-82 -385 l307 0 l84 385 l156 0 l-84 -385 l164 0 l0 -148 l-197 0 ZM449 862 l-72 -332 l309 0 l70 332 l-307 0 Z" /><glyph glyph-name="dollar" unicode="$" d="M1110 412 q0 -181 -121.5 -280.5 q-121.5 -99.5 -359.5 -108.5 l0 -175 l-109 0 l0 172 q-215 8 -335 101.5 q-120 93.5 -158 286.5 l256 47 q19 -113 75.5 -165.5 q56.5 -52.5 161.5 -62.5 l0 391 q-3 2 -15 4.5 q-12 2.5 -16 2.5 q-162 37 -244.5 87.5 q-82.5 50.5 -127.5 128 q-45 77.5 -45 189.5 q0 166 114.5 257 q114.5 91 333.5 99 l0 134 l109 0 l0 -134 q131 -5 218.5 -41.5 q87.5 -36.5 141 -107 q53.5 -70.5 86.5 -201.5 l-264 -39 q-15 87 -58.5 134.5 q-43.5 47.5 -123.5 58.5 l0 -352 l11 -2 q29 0 176.5 -48 q147.5 -48 220.5 -141.5 q73 -93.5 73 -234.5 ZM520 1194 q-186 -14 -186 -160 q0 -44 15.5 -73 q15.5 -29 45 -48 q29.5 -19 125.5 -51 l0 332 ZM850 408 q0 50 -18 81.5 q-18 31.5 -52.5 51.5 q-34.5 20 -150.5 53 l0 -367 q221 15 221 181 Z" /><glyph glyph-name="percent" unicode="%" d="M1767 432 q0 -218 -90 -333 q-90 -115 -264 -115 q-176 0 -265 114 q-89 114 -89 334 q0 224 86 336.5 q86 112.5 272 112.5 q180 0 265 -113.5 q85 -113.5 85 -335.5 ZM552 0 l-206 0 l920 1409 l209 0 l-923 -1409 ZM408 1425 q179 0 265.5 -113 q86.5 -113 86.5 -335 q0 -218 -90.5 -333.5 q-90.5 -115.5 -266.5 -115.5 q-174 0 -263 114.5 q-89 114.5 -89 334.5 q0 227 86 337.5 q86 110.5 271 110.5 ZM1552 432 q0 159 -30.5 227 q-30.5 68 -104.5 68 q-80 0 -110.5 -69 q-30.5 -69 -30.5 -226 q0 -160 32 -225.5 q32 -65.5 107 -65.5 q73 0 105 68 q32 68 32 223 ZM543 977 q0 157 -30.5 225 q-30.5 68 -104.5 68 q-80 0 -111 -67.5 q-31 -67.5 -31 -225.5 q0 -158 32.5 -225.5 q32.5 -67.5 107.5 -67.5 q74 0 105.5 68 q31.5 68 31.5 225 Z" /><glyph glyph-name="ampersand" unicode="&amp;" d="M90 385 q0 135 81 240.5 q81 105.5 257 187.5 q-74 150 -74 279 q0 156 98 240.5 q98 84.5 279 84.5 q168 0 265.5 -80 q97.5 -80 97.5 -217 q0 -77 -39 -139 q-39 -62 -110.5 -115 q-71.5 -53 -242.5 -133 q99 -175 244 -336 q104 158 158 363 l209 -70 q-68 -233 -193 -420 q86 -73 178 -73 q65 0 117 16 l0 -203 q-55 -22 -131 -22 q-86 0 -172.5 31 q-86.5 31 -157.5 90 q-170 -129 -379 -129 q-231 0 -358 106.5 q-127 106.5 -127 298.5 ZM870 1118 q0 57 -38 93 q-38 36 -103 36 q-77 0 -117.5 -43 q-40.5 -43 -40.5 -114 q0 -87 54 -193 q105 45 150.5 76 q45.5 31 70 66 q24.5 35 24.5 79 ZM788 246 q-166 185 -272 377 q-172 -81 -172 -234 q0 -99 65 -159 q65 -60 177 -60 q65 0 117.5 24 q52.5 24 84.5 52 Z" /><glyph glyph-name="quotesingle" unicode="&#39;" d="M354 898 l-219 0 l-26 511 l272 0 l-27 -511 Z" /><glyph glyph-name="parenleft" unicode="(" d="M399 -425 q-157 226 -227 451 q-70 225 -70 505 q0 279 70 503.5 q70 224.5 227 449.5 l281 0 q-158 -228 -229.5 -454 q-71.5 -226 -71.5 -500 q0 -273 71 -497.5 q71 -224.5 230 -457.5 l-281 0 Z" /><glyph glyph-name="parenright" unicode=")" d="M2 -425 q160 234 230.5 457.5 q70.5 223.5 70.5 497.5 q0 275 -72 501.5 q-72 226.5 -229 452.5 l281 0 q158 -227 227.5 -452 q69.5 -225 69.5 -501 q0 -278 -69.5 -503 q-69.5 -225 -227.5 -453 l-281 0 Z" /><glyph glyph-name="asterisk" unicode="*" d="M492 1135 l235 104 l68 -197 l-250 -61 l186 -213 l-184 -121 l-146 252 l-149 -252 l-186 123 l190 211 l-250 61 l68 197 l239 -104 l-18 274 l215 0 l-18 -274 Z" /><glyph glyph-name="plus" unicode="+" d="M711 569 l0 -408 l-226 0 l0 408 l-399 0 l0 224 l399 0 l0 408 l226 0 l0 -408 l402 0 l0 -224 l-402 0 Z" /><glyph glyph-name="comma" unicode="," d="M432 66 q0 -120 -25.5 -212 q-25.5 -92 -82.5 -171 l-185 0 q59 71 96 156 q37 85 37 161 l-129 0 l0 305 l289 0 l0 -239 Z" /><glyph glyph-name="hyphen" unicode="-" d="M80 409 l0 244 l520 0 l0 -244 l-520 0 Z" /><glyph glyph-name="period" unicode="." d="M139 0 l0 305 l289 0 l0 -305 l-289 0 Z" /><glyph glyph-name="slash" unicode="/" d="M20 -41 l291 1525 l238 0 l-286 -1525 l-243 0 Z" /><glyph glyph-name="zero" unicode="0" d="M1055 705 q0 -357 -122.5 -541 q-122.5 -184 -367.5 -184 q-484 0 -484 725 q0 253 53 413 q53 160 159 236 q106 76 280 76 q250 0 366 -181 q116 -181 116 -544 ZM773 705 q0 195 -19 303 q-19 108 -61 155 q-42 47 -122 47 q-85 0 -128.5 -47.5 q-43.5 -47.5 -62 -155 q-18.5 -107.5 -18.5 -302.5 q0 -193 19.5 -301.5 q19.5 -108.5 62 -155.5 q42.5 -47 123.5 -47 q80 0 123.5 49.5 q43.5 49.5 63 158.5 q19.5 109 19.5 296 Z" /><glyph glyph-name="one" unicode="1" d="M129 0 l0 209 l349 0 l0 961 l-338 -211 l0 221 l353 229 l266 0 l0 -1200 l323 0 l0 -209 l-953 0 Z" /><glyph glyph-name="two" unicode="2" d="M71 0 l0 195 q55 121 156.5 236 q101.5 115 255.5 240 q148 120 207.5 198 q59.5 78 59.5 153 q0 184 -185 184 q-90 0 -137.5 -48.5 q-47.5 -48.5 -61.5 -145.5 l-283 16 q24 196 146.5 299 q122.5 103 333.5 103 q228 0 350 -104 q122 -104 122 -292 q0 -99 -39 -179 q-39 -80 -100 -147.5 q-61 -67.5 -135.5 -126.5 q-74.5 -59 -144.5 -115 q-70 -56 -127.5 -113 q-57.5 -57 -85.5 -122 l654 0 l0 -231 l-986 0 Z" /><glyph glyph-name="three" unicode="3" d="M1065 391 q0 -198 -130 -306 q-130 -108 -370 -108 q-227 0 -361 104.5 q-134 104.5 -157 301.5 l286 25 q27 -203 231 -203 q101 0 157 50 q56 50 56 153 q0 94 -68 144 q-68 50 -202 50 l-98 0 l0 227 l92 0 q121 0 182 49.5 q61 49.5 61 141.5 q0 87 -48.5 136.5 q-48.5 49.5 -141.5 49.5 q-87 0 -140.5 -48 q-53.5 -48 -61.5 -136 l-281 20 q22 182 151 285 q129 103 337 103 q221 0 345.5 -99.5 q124.5 -99.5 124.5 -275.5 q0 -132 -77.5 -217 q-77.5 -85 -223.5 -113 l0 -4 q162 -19 249.5 -106.5 q87.5 -87.5 87.5 -223.5 Z" /><glyph glyph-name="four" unicode="4" d="M940 287 l0 -287 l-268 0 l0 287 l-641 0 l0 211 l595 911 l314 0 l0 -913 l188 0 l0 -209 l-188 0 ZM672 957 q0 54 3.5 117 q3.5 63 5.5 81 q-26 -56 -94 -162 l-327 -497 l412 0 l0 461 Z" /><glyph glyph-name="five" unicode="5" d="M1082 469 q0 -224 -139.5 -356.5 q-139.5 -132.5 -382.5 -132.5 q-212 0 -339.5 95.5 q-127.5 95.5 -157.5 276.5 l281 23 q22 -90 78 -131 q56 -41 141 -41 q105 0 167.5 67 q62.5 67 62.5 193 q0 111 -59 177.5 q-59 66.5 -165 66.5 q-117 0 -191 -91 l-274 0 l49 793 l847 0 l0 -209 l-592 0 l-23 -356 q102 90 255 90 q201 0 321.5 -125 q120.5 -125 120.5 -340 Z" /><glyph glyph-name="six" unicode="6" d="M1065 461 q0 -225 -126 -353 q-126 -128 -348 -128 q-249 0 -382.5 174.5 q-133.5 174.5 -133.5 517.5 q0 377 135.5 567.5 q135.5 190.5 387.5 190.5 q179 0 282.5 -79 q103.5 -79 146.5 -245 l-265 -37 q-38 139 -170 139 q-113 0 -177.5 -113 q-64.5 -113 -64.5 -343 q45 75 125 115 q80 40 181 40 q189 0 299 -120 q110 -120 110 -326 ZM783 453 q0 120 -55.5 183.5 q-55.5 63.5 -152.5 63.5 q-93 0 -149 -59.5 q-56 -59.5 -56 -157.5 q0 -123 58.5 -203.5 q58.5 -80.5 153.5 -80.5 q95 0 148 67.5 q53 67.5 53 186.5 Z" /><glyph glyph-name="seven" unicode="7" d="M1049 1186 q-95 -150 -179.5 -291 q-84.5 -141 -147.5 -283.5 q-63 -142.5 -99.5 -293 q-36.5 -150.5 -36.5 -318.5 l-293 0 q0 176 46 340.5 q46 164.5 133 335 q87 170.5 316 502.5 l-700 0 l0 231 l961 0 l0 -223 Z" /><glyph glyph-name="eight" unicode="8" d="M1076 397 q0 -198 -131 -307.5 q-131 -109.5 -374 -109.5 q-241 0 -373.5 109 q-132.5 109 -132.5 306 q0 135 78 227.5 q78 92.5 209 114.5 l0 4 q-114 25 -184 113 q-70 88 -70 203 q0 173 122.5 273 q122.5 100 346.5 100 q229 0 351.5 -97.5 q122.5 -97.5 122.5 -277.5 q0 -115 -69.5 -202 q-69.5 -87 -186.5 -110 l0 -4 q136 -22 213.5 -111.5 q77.5 -89.5 77.5 -230.5 ZM752 1040 q0 100 -46 146.5 q-46 46.5 -139 46.5 q-182 0 -182 -193 q0 -202 184 -202 q92 0 137.5 47 q45.5 47 45.5 155 ZM785 420 q0 221 -220 221 q-102 0 -156.5 -58 q-54.5 -58 -54.5 -167 q0 -124 54 -181 q54 -57 165 -57 q109 0 160.5 57 q51.5 57 51.5 185 Z" /><glyph glyph-name="nine" unicode="9" d="M1063 727 q0 -375 -137 -561 q-137 -186 -389 -186 q-186 0 -291.5 79.5 q-105.5 79.5 -149.5 251.5 l264 37 q39 -147 180 -147 q118 0 181.5 113 q63.5 113 65.5 335 q-38 -75 -124.5 -117.5 q-86.5 -42.5 -186.5 -42.5 q-186 0 -295.5 126.5 q-109.5 126.5 -109.5 342.5 q0 222 128.5 347 q128.5 125 363.5 125 q253 0 376.5 -175.5 q123.5 -175.5 123.5 -527.5 ZM766 924 q0 131 -57.5 208.5 q-57.5 77.5 -152.5 77.5 q-93 0 -146.5 -67.5 q-53.5 -67.5 -53.5 -186.5 q0 -117 53 -187.5 q53 -70.5 148 -70.5 q90 0 149.5 61.5 q59.5 61.5 59.5 164.5 Z" /><glyph glyph-name="colon" unicode=":" d="M197 752 l0 282 l288 0 l0 -282 l-288 0 ZM197 0 l0 281 l288 0 l0 -281 l-288 0 Z" /><glyph glyph-name="semicolon" unicode=";" d="M199 752 l0 282 l288 0 l0 -282 l-288 0 ZM487 66 q0 -120 -25.5 -212 q-25.5 -92 -82.5 -171 l-184 0 q64 81 98.5 163.5 q34.5 82.5 34.5 153.5 l-129 0 l0 281 l288 0 l0 -215 Z" /><glyph glyph-name="less" unicode="&lt;" d="M86 516 l0 322 l1027 391 l0 -228 l-833 -325 l833 -324 l0 -227 l-1027 391 Z" /><glyph glyph-name="equal" unicode="=" d="M85 842 l0 223 l1027 0 l0 -223 l-1027 0 ZM85 291 l0 221 l1027 0 l0 -221 l-1027 0 Z" /><glyph glyph-name="greater" unicode="&gt;" d="M86 125 l0 227 l832 324 l-832 325 l0 228 l1027 -391 l0 -322 l-1027 -391 Z" /><glyph glyph-name="question" unicode="?" d="M1133 1026 q0 -97 -43.5 -174 q-43.5 -77 -162.5 -162 l-76 -55 q-68 -49 -101.5 -99 q-33.5 -50 -36.5 -110 l-267 0 q6 102 57.5 182 q51.5 80 151.5 150 q107 74 151 130.5 q44 56.5 44 125.5 q0 88 -57.5 139 q-57.5 51 -163.5 51 q-101 0 -169.5 -59 q-68.5 -59 -80.5 -156 l-285 12 q27 203 167 316 q140 113 364 113 q237 0 372.5 -107.5 q135.5 -107.5 135.5 -296.5 ZM438 0 l0 270 l289 0 l0 -270 l-289 0 Z" /><glyph glyph-name="at" unicode="@" d="M1878 725 q0 -182 -63.5 -332 q-63.5 -150 -175.5 -234.5 q-112 -84.5 -242 -84.5 q-92 0 -141.5 45.5 q-49.5 45.5 -49.5 126.5 q0 37 6 67 l-6 0 q-50 -105 -148.5 -172 q-98.5 -67 -201.5 -67 q-157 0 -243.5 101.5 q-86.5 101.5 -86.5 283.5 q0 163 64.5 306 q64.5 143 179 224.5 q114.5 81.5 256.5 81.5 q195 0 264 -174 l6 0 l39 152 l156 0 l-117 -506 q-37 -172 -37 -240 q0 -50 23.5 -71 q23.5 -21 54.5 -21 q80 0 153 69.5 q73 69.5 115.5 186 q42.5 116.5 42.5 256.5 q0 175 -76.5 309.5 q-76.5 134.5 -220.5 207.5 q-144 73 -335 73 q-240 0 -423 -105 q-183 -105 -287.5 -303 q-104.5 -198 -104.5 -444 q0 -195 79.5 -342.5 q79.5 -147.5 223.5 -223 q144 -75.5 338 -75.5 q294 0 589 155 l62 -122 q-168 -95 -328.5 -136 q-160.5 -41 -329.5 -41 q-236 0 -415.5 95.5 q-179.5 95.5 -280 276 q-100.5 180.5 -100.5 413.5 q0 283 126.5 512 q126.5 229 349.5 355 q223 126 499 126 q243 0 421 -90.5 q178 -90.5 271.5 -255.5 q93.5 -165 93.5 -383 ZM1231 721 q0 95 -59.5 155 q-59.5 60 -153.5 60 q-94 0 -168.5 -62.5 q-74.5 -62.5 -116 -177 q-41.5 -114.5 -41.5 -235.5 q0 -114 48.5 -180 q48.5 -66 148.5 -66 q66 0 128.5 42 q62.5 42 111.5 121.5 q49 79.5 75.5 181 q26.5 101.5 26.5 161.5 Z" /><glyph glyph-name="A" unicode="a" d="M1133 0 l-125 360 l-537 0 l-125 -360 l-295 0 l514 1409 l348 0 l512 -1409 l-292 0 ZM739 1192 l-6 -22 q-10 -36 -24 -82 q-14 -46 -172 -506 l405 0 l-139 405 l-43 136 l-21 69 Z" /><glyph glyph-name="B" unicode="b" d="M1386 402 q0 -192 -144 -297 q-144 -105 -400 -105 l-705 0 l0 1409 l645 0 q258 0 390.5 -89.5 q132.5 -89.5 132.5 -264.5 q0 -120 -66.5 -202.5 q-66.5 -82.5 -202.5 -111.5 q171 -20 260.5 -107.5 q89.5 -87.5 89.5 -231.5 ZM1008 1015 q0 95 -60.5 135 q-60.5 40 -179.5 40 l-336 0 l0 -349 l338 0 q125 0 181.5 43.5 q56.5 43.5 56.5 130.5 ZM1090 425 q0 198 -284 198 l-374 0 l0 -404 l385 0 q142 0 207.5 51.5 q65.5 51.5 65.5 154.5 Z" /><glyph glyph-name="C" unicode="c" d="M795 212 q267 0 371 268 l257 -97 q-83 -204 -243.5 -303.5 q-160.5 -99.5 -384.5 -99.5 q-340 0 -525.5 192.5 q-185.5 192.5 -185.5 538.5 q0 347 179 533 q179 186 519 186 q248 0 404 -99.5 q156 -99.5 219 -292.5 l-260 -71 q-33 106 -129.5 168.5 q-96.5 62.5 -227.5 62.5 q-200 0 -303.5 -124 q-103.5 -124 -103.5 -363 q0 -243 106.5 -371 q106.5 -128 307.5 -128 Z" /><glyph glyph-name="D" unicode="d" d="M1393 715 q0 -218 -85.5 -380.5 q-85.5 -162.5 -242 -248.5 q-156.5 -86 -358.5 -86 l-570 0 l0 1409 l510 0 q356 0 551 -179.5 q195 -179.5 195 -514.5 ZM1096 715 q0 227 -118 346.5 q-118 119.5 -337 119.5 l-209 0 l0 -953 l250 0 q190 0 302 131 q112 131 112 356 Z" /><glyph glyph-name="E" unicode="e" d="M137 0 l0 1409 l1108 0 l0 -228 l-813 0 l0 -354 l752 0 l0 -228 l-752 0 l0 -371 l854 0 l0 -228 l-1149 0 Z" /><glyph glyph-name="F" unicode="f" d="M432 1181 l0 -436 l721 0 l0 -228 l-721 0 l0 -517 l-295 0 l0 1409 l1039 0 l0 -228 l-744 0 Z" /><glyph glyph-name="G" unicode="g" d="M806 211 q115 0 223 33.5 q108 33.5 167 85.5 l0 195 l-344 0 l0 218 l614 0 l0 -518 q-112 -115 -291.5 -180 q-179.5 -65 -376.5 -65 q-344 0 -529 190.5 q-185 190.5 -185 540.5 q0 348 186 533.5 q186 185.5 535 185.5 q496 0 631 -367 l-272 -82 q-44 107 -138 162 q-94 55 -221 55 q-208 0 -316 -126 q-108 -126 -108 -361 q0 -239 111.5 -369.5 q111.5 -130.5 313.5 -130.5 Z" /><glyph glyph-name="H" unicode="h" d="M1046 0 l0 604 l-614 0 l0 -604 l-295 0 l0 1409 l295 0 l0 -561 l614 0 l0 561 l295 0 l0 -1409 l-295 0 Z" /><glyph glyph-name="I" unicode="i" d="M137 0 l0 1409 l295 0 l0 -1409 l-295 0 Z" /><glyph glyph-name="J" unicode="j" d="M524 -20 q-219 0 -336.5 95 q-117.5 95 -156.5 307 l293 43 q18 -109 67 -161.5 q49 -52.5 135 -52.5 q88 0 133.5 59 q45.5 59 45.5 169 l0 739 l-281 0 l0 231 l575 0 l0 -963 q0 -220 -125 -343 q-125 -123 -350 -123 Z" /><glyph glyph-name="K" unicode="k" d="M1112 0 l-506 647 l-174 -133 l0 -514 l-295 0 l0 1409 l295 0 l0 -639 l635 639 l344 0 l-602 -596 l651 -813 l-348 0 Z" /><glyph glyph-name="L" unicode="l" d="M137 0 l0 1409 l295 0 l0 -1181 l756 0 l0 -228 l-1051 0 Z" /><glyph glyph-name="M" unicode="m" d="M1307 0 l0 854 q0 29 0.5 58 q0.5 29 9.5 249 q-71 -269 -105 -375 l-254 -786 l-210 0 l-254 786 l-107 375 q12 -232 12 -307 l0 -854 l-262 0 l0 1409 l395 0 l252 -788 l22 -76 l48 -189 l63 226 l259 827 l393 0 l0 -1409 l-262 0 Z" /><glyph glyph-name="N" unicode="n" d="M995 0 l-614 1085 q18 -158 18 -254 l0 -831 l-262 0 l0 1409 l337 0 l623 -1094 q-18 151 -18 275 l0 819 l262 0 l0 -1409 l-346 0 Z" /><glyph glyph-name="O" unicode="o" d="M1507 711 q0 -220 -87 -387 q-87 -167 -249 -255.5 q-162 -88.5 -378 -88.5 q-332 0 -520.5 195.5 q-188.5 195.5 -188.5 535.5 q0 339 188 529 q188 190 523 190 q335 0 523.5 -192 q188.5 -192 188.5 -527 ZM1206 711 q0 228 -108 357.5 q-108 129.5 -303 129.5 q-198 0 -306 -128.5 q-108 -128.5 -108 -358.5 q0 -232 110.5 -365.5 q110.5 -133.5 301.5 -133.5 q198 0 305.5 130 q107.5 130 107.5 369 Z" /><glyph glyph-name="P" unicode="p" d="M1296 963 q0 -136 -62 -243 q-62 -107 -177.5 -165.5 q-115.5 -58.5 -274.5 -58.5 l-350 0 l0 -496 l-295 0 l0 1409 l633 0 q253 0 389.5 -116.5 q136.5 -116.5 136.5 -329.5 ZM999 958 q0 222 -262 222 l-305 0 l0 -457 l313 0 q122 0 188 60.5 q66 60.5 66 174.5 Z" /><glyph glyph-name="Q" unicode="q" d="M1507 711 q0 -282 -138.5 -469.5 q-138.5 -187.5 -385.5 -237.5 q34 -99 95.5 -143 q61.5 -44 172.5 -44 q59 0 119 10 l-2 -202 q-126 -28 -242 -28 q-163 0 -270 91 q-107 91 -172 302 q-285 27 -442.5 217.5 q-157.5 190.5 -157.5 503.5 q0 339 188 529 q188 190 523 190 q335 0 523.5 -192 q188.5 -192 188.5 -527 ZM1206 711 q0 228 -108 357.5 q-108 129.5 -303 129.5 q-198 0 -306 -128.5 q-108 -128.5 -108 -358.5 q0 -232 110 -366 q110 -134 302 -134 q198 0 305.5 130 q107.5 130 107.5 370 Z" /><glyph glyph-name="R" unicode="r" d="M1105 0 l-327 535 l-346 0 l0 -535 l-295 0 l0 1409 l704 0 q252 0 389 -108.5 q137 -108.5 137 -311.5 q0 -148 -84 -255.5 q-84 -107.5 -227 -141.5 l381 -592 l-332 0 ZM1070 977 q0 203 -260 203 l-378 0 l0 -416 l386 0 q124 0 188 56 q64 56 64 157 Z" /><glyph glyph-name="S" unicode="s" d="M1286 406 q0 -207 -153.5 -316.5 q-153.5 -109.5 -450.5 -109.5 q-271 0 -425 96 q-154 96 -198 291 l285 47 q29 -112 113 -162.5 q84 -50.5 233 -50.5 q309 0 309 188 q0 60 -35.5 99 q-35.5 39 -100 65 q-64.5 26 -247.5 63 q-158 37 -220 59.5 q-62 22.5 -112 53 q-50 30.5 -85 73.5 q-35 43 -54.5 101 q-19.5 58 -19.5 133 q0 191 143.5 292.5 q143.5 101.5 417.5 101.5 q262 0 393.5 -82 q131.5 -82 169.5 -271 l-286 -39 q-22 91 -89.5 137 q-67.5 46 -193.5 46 q-268 0 -268 -168 q0 -55 28.5 -90 q28.5 -35 84.5 -59.5 q56 -24.5 227 -61.5 q203 -43 290.5 -79.5 q87.5 -36.5 138.5 -85 q51 -48.5 78 -116 q27 -67.5 27 -155.5 Z" /><glyph glyph-name="T" unicode="t" d="M773 1181 l0 -1181 l-295 0 l0 1181 l-455 0 l0 228 l1206 0 l0 -228 l-456 0 Z" /><glyph glyph-name="U" unicode="u" d="M723 -20 q-291 0 -445.5 142 q-154.5 142 -154.5 406 l0 881 l295 0 l0 -858 q0 -167 79.5 -253.5 q79.5 -86.5 233.5 -86.5 q158 0 243 90.5 q85 90.5 85 259.5 l0 848 l295 0 l0 -866 q0 -268 -165.5 -415.5 q-165.5 -147.5 -465.5 -147.5 Z" /><glyph glyph-name="V" unicode="v" d="M834 0 l-299 0 l-521 1409 l308 0 l290 -905 q27 -88 74 -266 l21 86 l51 180 l289 905 l305 0 l-518 -1409 Z" /><glyph glyph-name="W" unicode="w" d="M1567 0 l-350 0 l-191 815 q-35 144 -59 301 q-24 -131 -39 -199.5 q-15 -68.5 -213 -916.5 l-350 0 l-363 1409 l299 0 l204 -910 l46 -220 q28 139 54.5 265.5 q26.5 126.5 199.5 864.5 l330 0 l178 -750 q21 -84 71 -380 l25 116 l53 230 l170 784 l299 0 l-364 -1409 Z" /><glyph glyph-name="X" unicode="x" d="M1038 0 l-354 561 l-354 -561 l-312 0 l488 741 l-447 668 l312 0 l313 -498 l313 498 l310 0 l-428 -668 l469 -741 l-310 0 Z" /><glyph glyph-name="Y" unicode="y" d="M831 578 l0 -578 l-294 0 l0 578 l-502 831 l309 0 l338 -596 l342 596 l309 0 l-502 -831 Z" /><glyph glyph-name="Z" unicode="z" d="M1192 0 l-1131 0 l0 209 l762 969 l-686 0 l0 231 l1014 0 l0 -205 l-762 -973 l803 0 l0 -231 Z" /><glyph glyph-name="bracketleft" unicode="[" d="M115 -425 l0 1909 l542 0 l0 -190 l-276 0 l0 -1528 l276 0 l0 -191 l-542 0 Z" /><glyph glyph-name="backslash" unicode="\" d="M307 -41 l-286 1526 l238 0 l291 -1526 l-243 0 Z" /><glyph glyph-name="bracketright" unicode="]" d="M25 -425 l0 191 l278 0 l0 1528 l-278 0 l0 190 l542 0 l0 -1909 l-542 0 Z" /><glyph glyph-name="asciicircum" unicode="^" d="M922 514 l-326 752 l-324 -752 l-227 0 l391 895 l322 0 l393 -895 l-229 0 Z" /><glyph glyph-name="underscore" unicode="_" d="M-20 -250 l0 78 l1177 0 l0 -78 l-1177 0 Z" /><glyph glyph-name="grave" unicode="`" d="M406 1183 l-340 276 l0 43 l258 0 l251 -288 l0 -31 l-169 0 Z" /><glyph glyph-name="a" unicode="a" d="M393 -20 q-157 0 -245 85.5 q-88 85.5 -88 240.5 q0 168 109.5 256 q109.5 88 317.5 90 l233 4 l0 55 q0 106 -37 157.5 q-37 51.5 -121 51.5 q-78 0 -114.5 -35.5 q-36.5 -35.5 -45.5 -117.5 l-293 14 q27 158 144.5 239.5 q117.5 81.5 320.5 81.5 q205 0 316 -101 q111 -101 111 -287 l0 -394 q0 -91 20.5 -125.5 q20.5 -34.5 68.5 -34.5 q32 0 62 6 l0 -152 q-25 -6 -45 -11 q-20 -5 -40 -8 q-20 -3 -42.5 -5 q-22.5 -2 -52.5 -2 q-106 0 -156.5 52 q-50.5 52 -60.5 153 l-6 0 q-118 -213 -356 -213 ZM720 501 l-144 -2 q-98 -4 -139 -21.5 q-41 -17.5 -62.5 -53.5 q-21.5 -36 -21.5 -96 q0 -77 35.5 -114.5 q35.5 -37.5 94.5 -37.5 q66 0 120.5 36 q54.5 36 85.5 99.5 q31 63.5 31 134.5 l0 55 Z" /><glyph glyph-name="b" unicode="b" d="M1167 545 q0 -268 -107.5 -416.5 q-107.5 -148.5 -307.5 -148.5 q-115 0 -199 50 q-84 50 -129 144 l-2 0 q0 -35 -4.5 -96 q-4.5 -61 -9.5 -78 l-273 0 q8 93 8 247 l0 1237 l281 0 l0 -414 l-4 -176 l4 0 q95 208 346 208 q192 0 294.5 -145.5 q102.5 -145.5 102.5 -411.5 ZM874 545 q0 184 -54 273 q-54 89 -167 89 q-114 0 -173.5 -95.5 q-59.5 -95.5 -59.5 -275.5 q0 -172 58.5 -268 q58.5 -96 172.5 -96 q223 0 223 373 Z" /><glyph glyph-name="c" unicode="c" d="M594 -20 q-246 0 -380 146.5 q-134 146.5 -134 408.5 q0 268 135 417.5 q135 149.5 383 149.5 q191 0 316 -96 q125 -96 157 -265 l-283 -14 q-12 83 -60 132.5 q-48 49.5 -136 49.5 q-217 0 -217 -363 q0 -374 221 -374 q80 0 134 50.5 q54 50.5 67 150.5 l282 -13 q-15 -111 -79.5 -198 q-64.5 -87 -169.5 -134.5 q-105 -47.5 -236 -47.5 Z" /><glyph glyph-name="d" unicode="d" d="M844 0 q-4 15 -9.5 75.5 q-5.5 60.5 -5.5 100.5 l-4 0 q-91 -196 -346 -196 q-189 0 -292 147.5 q-103 147.5 -103 412.5 q0 269 108.5 415.5 q108.5 146.5 307.5 146.5 q115 0 198.5 -48 q83.5 -48 128.5 -143 l2 0 l-2 178 l0 395 l281 0 l0 -1248 q0 -100 8 -236 l-272 0 ZM831 547 q0 175 -58.5 269.5 q-58.5 94.5 -172.5 94.5 q-113 0 -168 -91.5 q-55 -91.5 -55 -279.5 q0 -368 221 -368 q111 0 172 97.5 q61 97.5 61 277.5 Z" /><glyph glyph-name="e" unicode="e" d="M586 -20 q-244 0 -375 144.5 q-131 144.5 -131 421.5 q0 268 133 412 q133 144 377 144 q233 0 356 -154.5 q123 -154.5 123 -452.5 l0 -8 l-694 0 q0 -158 58.5 -238.5 q58.5 -80.5 166.5 -80.5 q149 0 188 129 l265 -23 q-115 -294 -467 -294 ZM586 925 q-99 0 -152.5 -69 q-53.5 -69 -56.5 -193 l420 0 q-8 131 -63 196.5 q-55 65.5 -148 65.5 Z" /><glyph glyph-name="f" unicode="f" d="M473 892 l0 -892 l-280 0 l0 892 l-158 0 l0 190 l158 0 l0 113 q0 147 78 218 q78 71 237 71 q79 0 178 -16 l0 -181 q-41 9 -82 9 q-72 0 -101.5 -28.5 q-29.5 -28.5 -29.5 -100.5 l0 -85 l213 0 l0 -190 l-213 0 Z" /><glyph glyph-name="g" unicode="g" d="M596 -434 q-198 0 -318.5 75.5 q-120.5 75.5 -148.5 215.5 l281 33 q15 -65 64.5 -102 q49.5 -37 129.5 -37 q117 0 171 72 q54 72 54 214 l0 57 l2 107 l-2 0 q-93 -199 -348 -199 q-189 0 -293 142 q-104 142 -104 406 q0 265 107 409 q107 144 311 144 q236 0 327 -195 l5 0 q0 35 4.5 95 q4.5 60 9.5 79 l266 0 q-6 -108 -6 -250 l0 -799 q0 -231 -131 -349 q-131 -118 -381 -118 ZM831 556 q0 167 -59.5 260.5 q-59.5 93.5 -169.5 93.5 q-225 0 -225 -360 q0 -353 223 -353 q112 0 171.5 93.5 q59.5 93.5 59.5 265.5 Z" /><glyph glyph-name="h" unicode="h" d="M420 866 q57 124 143 180 q86 56 205 56 q172 0 264 -106 q92 -106 92 -310 l0 -686 l-280 0 l0 606 q0 285 -193 285 q-102 0 -164.5 -87.5 q-62.5 -87.5 -62.5 -224.5 l0 -579 l-281 0 l0 1484 l281 0 l0 -405 q0 -109 -8 -213 l4 0 Z" /><glyph glyph-name="i" unicode="i" d="M143 1277 l0 207 l281 0 l0 -207 l-281 0 ZM143 0 l0 1082 l281 0 l0 -1082 l-281 0 Z" /><glyph glyph-name="j" unicode="j" d="M144 1277 l0 207 l281 0 l0 -207 l-281 0 ZM138 -425 q-100 0 -170 9 l0 198 l51 -4 q72 0 98.5 31.5 q26.5 31.5 26.5 130.5 l0 1142 l281 0 l0 -1210 q0 -143 -72.5 -220 q-72.5 -77 -214.5 -77 Z" /><glyph glyph-name="k" unicode="k" d="M834 0 l-289 490 l-121 -84 l0 -406 l-281 0 l0 1484 l281 0 l0 -850 l386 448 l302 0 l-380 -422 l409 -660 l-307 0 Z" /><glyph glyph-name="l" unicode="l" d="M143 0 l0 1484 l281 0 l0 -1484 l-281 0 Z" /><glyph glyph-name="m" unicode="m" d="M780 0 l0 607 q0 285 -164 285 q-85 0 -138.5 -87 q-53.5 -87 -53.5 -225 l0 -580 l-281 0 l0 840 q0 87 -2.5 142.5 q-2.5 55.5 -5.5 99.5 l268 0 q3 -19 8 -101.5 q5 -82.5 5 -113.5 l4 0 q52 124 129.5 180 q77.5 56 185.5 56 q248 0 301 -236 l6 0 q55 126 132 181 q77 55 196 55 q158 0 241 -107.5 q83 -107.5 83 -308.5 l0 -687 l-279 0 l0 607 q0 285 -164 285 q-82 0 -134.5 -79.5 q-52.5 -79.5 -57.5 -219.5 l0 -593 l-279 0 Z" /><glyph glyph-name="n" unicode="n" d="M844 0 l0 607 q0 285 -193 285 q-102 0 -164.5 -87.5 q-62.5 -87.5 -62.5 -224.5 l0 -580 l-281 0 l0 840 q0 87 -2.5 142.5 q-2.5 55.5 -5.5 99.5 l268 0 q3 -19 8 -101.5 q5 -82.5 5 -113.5 l4 0 q57 124 143 180 q86 56 205 56 q172 0 264 -106 q92 -106 92 -310 l0 -687 l-280 0 Z" /><glyph glyph-name="o" unicode="o" d="M1171 542 q0 -263 -146 -412.5 q-146 -149.5 -404 -149.5 q-253 0 -397 150 q-144 150 -144 412 q0 261 144 410.5 q144 149.5 403 149.5 q265 0 404.5 -144.5 q139.5 -144.5 139.5 -415.5 ZM877 542 q0 193 -63 280 q-63 87 -183 87 q-256 0 -256 -367 q0 -181 62.5 -275.5 q62.5 -94.5 180.5 -94.5 q259 0 259 370 Z" /><glyph glyph-name="p" unicode="p" d="M1167 546 q0 -271 -108.5 -418.5 q-108.5 -147.5 -306.5 -147.5 q-114 0 -198.5 49.5 q-84.5 49.5 -129.5 142.5 l-6 0 q6 -30 6 -182 l0 -415 l-281 0 l0 1258 q0 153 -8 249 l273 0 q5 -18 8.5 -71 q3.5 -53 3.5 -105 l4 0 q95 199 346 199 q189 0 293 -145.5 q104 -145.5 104 -413.5 ZM874 546 q0 364 -223 364 q-112 0 -171.5 -98 q-59.5 -98 -59.5 -274 q0 -175 59.5 -270.5 q59.5 -95.5 169.5 -95.5 q225 0 225 374 Z" /><glyph glyph-name="q" unicode="q" d="M84 540 q0 268 109.5 415.5 q109.5 147.5 308.5 147.5 q236 0 327 -195 q0 46 5.5 102.5 q5.5 56.5 9.5 71.5 l270 0 q-6 -108 -6 -249 l0 -1258 l-279 0 l0 450 l5 155 l-2 0 q-93 -200 -353 -200 q-189 0 -292 147.5 q-103 147.5 -103 412.5 ZM831 546 q0 173 -58 268.5 q-58 95.5 -171 95.5 q-225 0 -225 -370 q0 -368 223 -368 q110 0 170.5 97.5 q60.5 97.5 60.5 276.5 Z" /><glyph glyph-name="r" unicode="r" d="M143 0 l0 828 q0 89 -2.5 148.5 q-2.5 59.5 -5.5 105.5 l268 0 q3 -18 8 -109.5 q5 -91.5 5 -121.5 l4 0 q41 114 73 160.5 q32 46.5 76 69 q44 22.5 110 22.5 q54 0 87 -15 l0 -235 q-68 15 -120 15 q-105 0 -163.5 -85 q-58.5 -85 -58.5 -252 l0 -531 l-281 0 Z" /><glyph glyph-name="s" unicode="s" d="M1055 316 q0 -157 -128.5 -246.5 q-128.5 -89.5 -355.5 -89.5 q-223 0 -341.5 70.5 q-118.5 70.5 -157.5 219.5 l247 37 q21 -77 72.5 -109 q51.5 -32 179.5 -32 q118 0 172 30 q54 30 54 94 q0 52 -43.5 82.5 q-43.5 30.5 -147.5 51.5 q-238 47 -321 87.5 q-83 40.5 -126.5 105 q-43.5 64.5 -43.5 158.5 q0 155 119.5 241.5 q119.5 86.5 338.5 86.5 q193 0 310.5 -75 q117.5 -75 146.5 -217 l-249 -26 q-12 66 -59 98.5 q-47 32.5 -149 32.5 q-100 0 -150 -25.5 q-50 -25.5 -50 -85.5 q0 -47 38.5 -74.5 q38.5 -27.5 129.5 -45.5 q127 -26 225.5 -53.5 q98.5 -27.5 158 -65.5 q59.5 -38 95 -97.5 q35.5 -59.5 35.5 -152.5 Z" /><glyph glyph-name="t" unicode="t" d="M420 -18 q-124 0 -191 67.5 q-67 67.5 -67 204.5 l0 638 l-137 0 l0 190 l151 0 l88 254 l176 0 l0 -254 l205 0 l0 -190 l-205 0 l0 -562 q0 -79 30 -116.5 q30 -37.5 93 -37.5 q33 0 94 14 l0 -174 q-104 -34 -237 -34 Z" /><glyph glyph-name="u" unicode="u" d="M408 1082 l0 -607 q0 -285 192 -285 q102 0 164.5 87.5 q62.5 87.5 62.5 224.5 l0 580 l281 0 l0 -840 q0 -138 8 -242 l-268 0 q-12 144 -12 215 l-5 0 q-56 -123 -142.5 -179 q-86.5 -56 -205.5 -56 q-172 0 -264 105.5 q-92 105.5 -92 309.5 l0 687 l281 0 Z" /><glyph glyph-name="v" unicode="v" d="M731 0 l-336 0 l-387 1082 l297 0 l189 -605 q15 -50 71 -250 q10 41 41 144 q31 103 230 711 l294 0 l-399 -1082 Z" /><glyph glyph-name="w" unicode="w" d="M1313 0 l-297 0 l-172 660 q-12 45 -47 222 l-52 -224 l-174 -658 l-297 0 l-280 1082 l264 0 l178 -827 l14 74 l25 117 l170 636 l301 0 l166 -636 q14 -52 41 -191 l28 132 l156 695 l260 0 l-284 -1082 Z" /><glyph glyph-name="x" unicode="x" d="M819 0 l-252 392 l-254 -392 l-299 0 l396 559 l-377 523 l303 0 l231 -354 l230 354 l305 0 l-377 -520 l399 -562 l-305 0 Z" /><glyph glyph-name="y" unicode="y" d="M283 -425 q-101 0 -177 13 l0 200 q53 -8 97 -8 q60 0 99.5 19 q39.5 19 71 63 q31.5 44 70.5 149 l-428 1071 l297 0 l170 -507 q40 -109 101 -334 l25 95 l65 235 l160 511 l294 0 l-428 -1139 q-86 -208 -178.5 -288 q-92.5 -80 -238.5 -80 Z" /><glyph glyph-name="z" unicode="z" d="M82 0 l0 199 l509 680 l-468 0 l0 203 l778 0 l0 -201 l-506 -676 l555 0 l0 -205 l-868 0 Z" /><glyph glyph-name="braceleft" unicode="{" d="M557 -425 q-134 0 -214.5 78.5 q-80.5 78.5 -80.5 220.5 l0 328 q0 114 -55 170.5 q-55 56.5 -174 58.5 l0 195 q121 5 175 61.5 q54 56.5 54 169.5 l0 328 q0 146 78.5 222.5 q78.5 76.5 216.5 76.5 l197 0 l0 -190 l-58 0 q-91 0 -131.5 -52 q-40.5 -52 -40.5 -157 l0 -301 q0 -95 -57.5 -164 q-57.5 -69 -149.5 -88 l0 -4 q95 -22 151 -90.5 q56 -68.5 56 -161.5 l0 -301 q0 -106 40.5 -157.5 q40.5 -51.5 131.5 -51.5 l58 0 l0 -191 l-197 0 Z" /><glyph glyph-name="bar" unicode="|" d="M156 -455 l0 1939 l262 0 l0 -1939 l-262 0 Z" /><glyph glyph-name="braceright" unicode="}" d="M43 -234 l57 0 q93 0 132.5 51.5 q39.5 51.5 39.5 157.5 l0 301 q0 92 56.5 161 q56.5 69 150.5 91 l0 4 q-91 19 -149 87.5 q-58 68.5 -58 164.5 l0 301 q0 105 -39.5 157 q-39.5 52 -132.5 52 l-57 0 l0 190 l197 0 q138 0 216.5 -76.5 q78.5 -76.5 78.5 -222.5 l0 -328 q0 -112 55 -169 q55 -57 176 -62 l0 -195 q-121 -2 -176 -60 q-55 -58 -55 -169 l0 -328 q0 -141 -80 -220 q-80 -79 -215 -79 l-197 0 l0 191 Z" /><glyph glyph-name="asciitilde" unicode="~" d="M852 516 q-75 0 -147.5 21 q-72.5 21 -147.5 47 q-135 47 -221 47 q-71 0 -130.5 -21.5 q-59.5 -21.5 -124.5 -66.5 l0 213 q113 84 271 84 q105 0 242 -47 q132 -46 182 -58 q50 -12 95 -12 q134 0 248 92 l0 -219 q-64 -44 -122.5 -62 q-58.5 -18 -144.5 -18 Z" /><glyph glyph-name="exclamdown" unicode="¡" d="M200 812 l0 270 l288 0 l0 -270 l-288 0 ZM194 -327 l32 981 l230 0 l32 -981 l-294 0 Z" /><glyph glyph-name="cent" unicode="¢" d="M588 340 q88 0 147.5 54.5 q59.5 54.5 73.5 154.5 l283 -12 q-22 -153 -134 -254.5 q-112 -101.5 -290 -122.5 l0 -191 l-162 0 l0 189 q-215 21 -335 157 q-120 136 -120 371 q0 232 117.5 373 q117.5 141 337.5 166 l0 184 l162 0 l0 -184 q169 -19 278 -112.5 q109 -93.5 137 -244.5 l-282 -14 q-15 91 -71 140.5 q-56 49.5 -144 49.5 q-124 0 -188 -92 q-64 -92 -64 -256 q0 -174 66.5 -265 q66.5 -91 187.5 -91 Z" /><glyph glyph-name="sterling" unicode="£" d="M1118 363 q-31 -172 -136 -267.5 q-105 -95.5 -256 -95.5 l-694 0 l0 205 q102 58 139.5 130 q37.5 72 37.5 177 l0 92 l-188 0 l0 170 l178 0 l0 248 q0 201 107 304.5 q107 103.5 319 103.5 q169 0 266 -69 q97 -69 141 -222 l-233 -47 q-21 77 -62 112 q-41 35 -107 35 q-91 0 -131 -57.5 q-40 -57.5 -40 -182.5 l0 -225 l286 0 l0 -170 l-286 0 l0 -90 q0 -103 -41 -176 q-41 -73 -141 -129 l380 0 q104 0 157.5 49.5 q53.5 49.5 70.5 143.5 l233 -39 Z" /><glyph glyph-name="currency" unicode="¤" d="M134 684 q0 120 60 221 l-133 133 l157 156 l131 -133 q101 59 220 59 q121 0 219 -59 l135 135 l158 -158 l-136 -135 q60 -99 60 -219 q0 -118 -58 -217 l134 -133 l-158 -160 l-133 135 q-100 -59 -221 -59 q-122 0 -220 57 l-135 -137 l-157 158 l135 137 q-58 99 -58 219 ZM360 686 q0 -86 61 -147.5 q61 -61.5 148 -61.5 q85 0 146.5 62 q61.5 62 61.5 147 q0 86 -61 147.5 q-61 61.5 -147 61.5 q-86 0 -147.5 -61 q-61.5 -61 -61.5 -148 Z" /><glyph glyph-name="yen" unicode="¥" d="M766 691 l276 0 l0 -146 l-338 0 l0 -162 l338 0 l0 -147 l-338 0 l0 -236 l-272 0 l0 236 l-336 0 l0 147 l336 0 l2 162 l-338 0 l0 146 l276 0 l-364 718 l289 0 l270 -596 l274 596 l289 0 l-364 -718 Z" /><glyph glyph-name="brokenbar" unicode="¦" d="M156 676 l0 778 l262 0 l0 -778 l-262 0 ZM156 -455 l0 779 l262 0 l0 -779 l-262 0 Z" /><glyph glyph-name="section" unicode="§" d="M575 1427 q194 0 311.5 -70.5 q117.5 -70.5 144.5 -203.5 l-239 -25 q-13 62 -70 95.5 q-57 33.5 -147 33.5 q-112 0 -164.5 -29.5 q-52.5 -29.5 -52.5 -94.5 q0 -41 27 -69.5 q27 -28.5 76.5 -50 q49.5 -21.5 180.5 -50.5 q168 -38 248.5 -79 q80.5 -41 123 -102 q42.5 -61 42.5 -148 q0 -93 -55 -164.5 q-55 -71.5 -142 -98.5 q181 -79 181 -256 q0 -167 -125.5 -255.5 q-125.5 -88.5 -358.5 -88.5 q-223 0 -343.5 69.5 q-120.5 69.5 -159.5 218.5 l237 37 q20 -80 81.5 -117.5 q61.5 -37.5 184.5 -37.5 q122 0 185 32.5 q63 32.5 63 112.5 q0 48 -24 78 q-24 30 -75.5 52.5 q-51.5 22.5 -236.5 66.5 q-206 49 -291.5 127 q-85.5 78 -85.5 190 q0 93 55 157 q55 64 158 99 q-90 38 -139 106 q-49 68 -49 152 q0 149 117.5 231 q117.5 82 341.5 82 ZM818 600 q0 71 -59.5 109 q-59.5 38 -232.5 71 q-193 -23 -193 -153 q0 -41 27 -68.5 q27 -27.5 77 -48.5 q50 -21 186 -52 q195 10 195 142 Z" /><glyph glyph-name="dieresis" unicode="¨" d="M450 1199 l0 219 l217 0 l0 -219 l-217 0 ZM16 1199 l0 219 l214 0 l0 -219 l-214 0 Z" /><glyph glyph-name="copyright" unicode="©" d="M1478 707 q0 -193 -96.5 -361.5 q-96.5 -168.5 -265 -265 q-168.5 -96.5 -361.5 -96.5 q-197 0 -366.5 100.5 q-169.5 100.5 -263 267 q-93.5 166.5 -93.5 355.5 q0 193 97 361 q97 168 265 265 q168 97 361 97 q194 0 362.5 -97.5 q168.5 -97.5 264.5 -264.5 q96 -167 96 -361 ZM1366 707 q0 163 -82 303.5 q-82 140.5 -224 222.5 q-142 82 -305 82 q-157 0 -297 -78 q-140 -78 -225.5 -219.5 q-85.5 -141.5 -85.5 -310.5 q0 -163 81.5 -305 q81.5 -142 222 -224 q140.5 -82 304.5 -82 q164 0 306 82 q142 82 223.5 224 q81.5 142 81.5 305 ZM544 709 q0 -135 59 -209 q59 -74 165 -74 q66 0 117 37 q51 37 79 106 l160 -47 q-58 -125 -145 -181 q-87 -56 -211 -56 q-193 0 -298.5 111 q-105.5 111 -105.5 313 q0 203 102 309 q102 106 293 106 q130 0 217.5 -56 q87.5 -56 135.5 -173 l-156 -41 q-26 61 -74.5 95 q-48.5 34 -117.5 34 q-109 0 -164.5 -70 q-55.5 -70 -55.5 -204 Z" /><glyph glyph-name="ordfeminine" unicode="ª" d="M257 725 q-97 0 -154.5 52.5 q-57.5 52.5 -57.5 149.5 q0 206 284 211 l147 2 l0 42 q0 119 -104 119 q-102 0 -112 -94 l-190 9 q18 98 96.5 150.5 q78.5 52.5 204.5 52.5 q138 0 212.5 -61 q74.5 -61 74.5 -174 l0 -237 q0 -48 9 -72.5 q9 -24.5 42 -24.5 l49 5 l0 -109 q-65 -18 -119 -18 q-71 0 -111.5 36.5 q-40.5 36.5 -45.5 97.5 l-3 0 q-72 -137 -222 -137 ZM328 856 q61 0 104.5 48 q43.5 48 43.5 113 l0 27 l-92 -2 q-88 -3 -119 -27 q-31 -24 -31 -74 q0 -85 94 -85 Z" /><glyph glyph-name="guillemotleft" unicode="«" d="M807 141 l-256 361 l0 71 l256 367 l238 0 l0 -37 l-254 -366 l256 -361 l0 -35 l-240 0 ZM350 141 l-258 361 l0 71 l258 367 l236 0 l0 -37 l-254 -366 l256 -361 l0 -35 l-238 0 Z" /><glyph glyph-name="logicalnot" unicode="¬" d="M887 141 l0 428 l-803 0 l0 224 l1027 0 l0 -652 l-224 0 Z" /><glyph glyph-name="registered" unicode="®" d="M1478 707 q0 -193 -96.5 -361.5 q-96.5 -168.5 -265 -265 q-168.5 -96.5 -361.5 -96.5 q-197 0 -366.5 100.5 q-169.5 100.5 -263 267 q-93.5 166.5 -93.5 355.5 q0 193 97 361 q97 168 265 265 q168 97 361 97 q194 0 362.5 -97.5 q168.5 -97.5 264.5 -264.5 q96 -167 96 -361 ZM1366 707 q0 163 -82 303.5 q-82 140.5 -224 222.5 q-142 82 -305 82 q-157 0 -297 -78 q-140 -78 -225.5 -219.5 q-85.5 -141.5 -85.5 -310.5 q0 -163 81.5 -305 q81.5 -142 222 -224 q140.5 -82 304.5 -82 q164 0 306 82 q142 82 223.5 224 q81.5 142 81.5 305 ZM923 297 l-178 313 l-117 0 l0 -313 l-178 0 l0 815 l330 0 q153 0 229 -64.5 q76 -64.5 76 -177.5 q0 -94 -48 -153 q-48 -59 -126 -84 l213 -336 l-201 0 ZM905 868 q0 57 -37.5 87 q-37.5 30 -106.5 30 l-133 0 l0 -246 l144 0 q66 0 99.5 35.5 q33.5 35.5 33.5 93.5 Z" /><glyph glyph-name="overscore" unicode="¯" d="M1148 1452 l-1165 0 l0 94 l1165 0 l0 -94 Z" /><glyph glyph-name="degree" unicode="°" d="M731 1110 q0 -130 -93.5 -222.5 q-93.5 -92.5 -227.5 -92.5 q-132 0 -226 91 q-94 91 -94 224 q0 86 42.5 159 q42.5 73 116 114.5 q73.5 41.5 161.5 41.5 q135 0 228 -92.5 q93 -92.5 93 -222.5 ZM573 1110 q0 70 -46.5 118 q-46.5 48 -116.5 48 q-71 0 -118.5 -48.5 q-47.5 -48.5 -47.5 -117.5 q0 -69 49 -118.5 q49 -49.5 117 -49.5 q67 0 115 49 q48 49 48 119 Z" /><glyph glyph-name="plusminus" unicode="±" d="M674 707 l0 -341 l-224 0 l0 341 l-401 0 l0 223 l401 0 l0 340 l224 0 l0 -340 l402 0 l0 -223 l-402 0 ZM49 0 l0 223 l1027 0 l0 -223 l-1027 0 Z" /><glyph glyph-name="twosuperior" unicode="²" d="M53 694 l-2 121 q29 61 82 113.5 q53 52.5 144 111.5 q87 56 119 92.5 q32 36.5 32 75.5 q0 91 -81 91 q-85 0 -95 -98 l-194 5 q13 99 89 159.5 q76 60.5 200 60.5 q131 0 205 -55.5 q74 -55.5 74 -154.5 q0 -125 -153 -223 q-103 -66 -141.5 -97 q-38.5 -31 -54.5 -64 l362 0 l0 -138 l-586 0 Z" /><glyph glyph-name="threesuperior" unicode="³" d="M638 895 q0 -99 -75 -155 q-75 -56 -213 -56 q-135 0 -214 52 q-79 52 -92 156 l189 12 q10 -93 114 -93 q102 0 102 96 q0 93 -139 93 l-56 0 l0 126 l51 0 q63 0 95 23.5 q32 23.5 32 66.5 q0 39 -23 61 q-23 22 -66 22 q-88 0 -98 -89 l-186 12 q11 94 87.5 149 q76.5 55 201.5 55 q128 0 199.5 -51.5 q71.5 -51.5 71.5 -136.5 q0 -64 -36.5 -109.5 q-36.5 -45.5 -115.5 -61.5 l0 -2 q83 -9 127 -55 q44 -46 44 -115 Z" /><glyph glyph-name="acute" unicode="´" d="M87 1183 l0 31 l252 288 l258 0 l0 -43 l-340 -276 l-170 0 Z" /><glyph glyph-name="mu1" unicode="µ" d="M789 0 q-13 100 -13 144 l-3 0 q-33 -86 -78 -125 q-45 -39 -124 -39 q-52 0 -92.5 24 q-40.5 24 -63.5 66 l-4 0 q4 -43 4 -115 l0 -381 l-281 0 l0 1508 l281 0 l0 -605 q0 -150 42.5 -217 q42.5 -67 132.5 -67 q89 0 133.5 76 q44.5 76 44.5 235 l0 578 l281 0 l0 -840 q0 -130 8 -242 l-268 0 Z" /><glyph glyph-name="paragraph" unicode="¶" d="M940 1266 l0 -1530 l-156 0 l0 1530 l-195 0 l0 -1530 l-155 0 l0 958 q-169 0 -266 92.5 q-97 92.5 -97 262.5 q0 169 98.5 264.5 q98.5 95.5 272.5 95.5 l629 0 l0 -143 l-131 0 Z" /><glyph glyph-name="middot" unicode="·" d="M141 531 l0 305 l288 0 l0 -305 l-288 0 Z" /><glyph glyph-name="cedilla" unicode="¸" d="M500 -235 q0 -94 -78 -142 q-78 -48 -225 -48 q-45 0 -101 6 l0 118 q35 -7 84 -7 q137 0 137 69 q0 35 -28 52 q-28 17 -94 17 q-38 0 -52 -2 l62 172 l143 0 l-33 -82 q94 -5 139.5 -46 q45.5 -41 45.5 -107 Z" /><glyph glyph-name="onesuperior" unicode="¹" d="M82 694 l0 121 l184 0 l0 468 l-173 -108 l0 122 l180 117 l175 0 l0 -599 l170 0 l0 -121 l-536 0 Z" /><glyph glyph-name="ordmasculine" unicode="º" d="M713 1073 q0 -162 -89.5 -255 q-89.5 -93 -248.5 -93 q-152 0 -241 92 q-89 92 -89 256 q0 162 88 254 q88 92 246 92 q160 0 247 -89 q87 -89 87 -257 ZM513 1073 q0 106 -29.5 154.5 q-29.5 48.5 -102.5 48.5 q-73 0 -105.5 -49.5 q-32.5 -49.5 -32.5 -153.5 q0 -106 32 -157 q32 -51 99 -51 q75 0 107 50.5 q32 50.5 32 157.5 Z" /><glyph glyph-name="guillemotright" unicode="»" d="M93 141 l0 35 l256 361 l-254 366 l0 37 l238 0 l256 -367 l0 -71 l-256 -361 l-240 0 ZM552 141 l0 35 l256 361 l-254 366 l0 37 l236 0 l258 -367 l0 -71 l-258 -361 l-238 0 Z" /><glyph glyph-name="questiondown" unicode="¿" d="M114 56 q0 97 43.5 174 q43.5 77 162.5 162 l77 55 q67 49 100.5 99 q33.5 50 36.5 110 l267 0 q-6 -102 -58 -182.5 q-52 -80.5 -151 -148.5 q-107 -75 -151 -131 q-44 -56 -44 -126 q0 -88 57.5 -139 q57.5 -51 163.5 -51 q101 0 169.5 59 q68.5 59 80.5 156 l285 -12 q-27 -203 -167 -316 q-140 -113 -364 -113 q-237 0 -372.5 107.5 q-135.5 107.5 -135.5 296.5 ZM809 1082 l0 -270 l-289 0 l0 270 l289 0 Z" /><glyph glyph-name="AE" unicode="æ" d="M931 0 l0 360 l-450 0 l-172 -360 l-305 0 l700 1409 l1223 0 l0 -227 l-701 0 l0 -355 l639 0 l0 -221 l-639 0 l0 -379 l742 0 l0 -227 l-1037 0 ZM931 1192 l-61 0 q-49 -111 -287 -610 l348 0 l0 610 Z" /><glyph glyph-name="Eth" unicode="ð" d="M1393 715 q0 -218 -85.5 -380.5 q-85.5 -162.5 -242 -248.5 q-156.5 -86 -358.5 -86 l-570 0 l0 594 l-129 0 l0 219 l129 0 l0 596 l510 0 q356 0 551 -179.5 q195 -179.5 195 -514.5 ZM1096 715 q0 225 -117 344 q-117 119 -338 119 l-209 0 l0 -365 l356 0 l0 -219 l-356 0 l0 -363 l250 0 q191 0 302.5 129.5 q111.5 129.5 111.5 354.5 Z" /><glyph glyph-name="multiply" unicode="×" d="M86 326 l356 358 l-352 352 l158 156 l352 -350 l352 352 l158 -158 l-352 -354 l352 -350 l-158 -160 l-352 354 l-356 -358 l-158 158 Z" /><glyph glyph-name="Oslash" unicode="ø" d="M147 -73 l154 218 q-217 197 -217 566 q0 339 188 529 q188 190 523 190 q198 0 354 -74 l82 117 l193 0 l-142 -203 q112 -94 169 -236.5 q57 -142.5 57 -322.5 q0 -220 -87 -387 q-87 -167 -248.5 -255.5 q-161.5 -88.5 -379.5 -88.5 q-212 0 -360 77 l-91 -129 l-195 -1 ZM1207 711 q0 203 -86 327 l-541 -772 q91 -55 213 -55 q199 0 306.5 130.5 q107.5 130.5 107.5 369.5 ZM381 711 q0 -205 84 -332 l539 768 q-92 51 -209 51 q-198 0 -306 -128.5 q-108 -128.5 -108 -358.5 Z" /><glyph glyph-name="Thorn" unicode="þ" d="M1296 737 q0 -134 -60.5 -237 q-60.5 -103 -177 -160 q-116.5 -57 -276.5 -57 l-350 0 l0 -283 l-295 0 l0 1409 l295 0 l0 -233 l338 0 q254 0 390 -113.5 q136 -113.5 136 -325.5 ZM999 733 q0 110 -65.5 172 q-65.5 62 -196.5 62 l-305 0 l0 -475 l313 0 q121 0 187.5 63.5 q66.5 63.5 66.5 177.5 Z" /><glyph glyph-name="germandbls" unicode="ß" d="M1193 312 q0 -162 -100.5 -247 q-100.5 -85 -286.5 -85 q-146 0 -262 43 l0 206 q50 -23 117.5 -41 q67.5 -18 114.5 -18 q81 0 118 34.5 q37 34.5 37 91.5 q0 52 -38 96.5 q-38 44.5 -131 105.5 q-169 109 -169 262 q0 54 27.5 101 q27.5 47 84.5 97 q61 54 86 94.5 q25 40.5 25 85.5 q0 65 -46.5 104 q-46.5 39 -134.5 39 q-103 0 -157 -63.5 q-54 -63.5 -54 -204.5 l0 -1013 l-281 0 l0 1007 q0 234 127.5 355.5 q127.5 121.5 367.5 121.5 q206 0 325 -90 q119 -90 119 -245 q0 -54 -16.5 -96.5 q-16.5 -42.5 -41.5 -76.5 q-25 -34 -54.5 -61 q-29.5 -27 -54.5 -49.5 q-25 -22.5 -41.5 -43 q-16.5 -20.5 -16.5 -40.5 q0 -25 20.5 -47.5 q20.5 -22.5 147.5 -116.5 q168 -125 168 -306 Z" /><glyph glyph-name="ae" unicode="æ" d="M1253 -20 q-310 0 -434 229 q-133 -229 -413 -229 q-161 0 -250.5 86 q-89.5 86 -89.5 240 q0 166 111 253.5 q111 87.5 329 92.5 l240 4 l0 55 q0 108 -40 158.5 q-40 50.5 -128 50.5 q-85 0 -123 -37 q-38 -37 -47 -116 l-293 14 q26 157 144.5 239 q118.5 82 326.5 82 q217 0 333 -107 q130 107 338 107 q233 0 356 -154.5 q123 -154.5 123 -452.5 l0 -19 l-694 0 q0 -146 59 -227 q59 -81 166 -81 q149 0 188 129 l265 -23 q-115 -294 -467 -294 ZM496 176 q69 0 127 39 q58 39 90.5 104 q32.5 65 32.5 137 l0 45 l-152 -2 q-104 -4 -147 -21.5 q-43 -17.5 -65.5 -53.5 q-22.5 -36 -22.5 -96 q0 -77 37.5 -114.5 q37.5 -37.5 99.5 -37.5 ZM1253 925 q-99 0 -152.5 -69 q-53.5 -69 -56.5 -193 l420 0 q-8 131 -63 196.5 q-55 65.5 -148 65.5 Z" /><glyph glyph-name="eth" unicode="ð" d="M856 1266 q315 -320 315 -725 l0 -4 q0 -261 -144.5 -408 q-144.5 -147 -403.5 -147 q-251 0 -397 133 q-146 133 -146 364 q0 232 144.5 363 q144.5 131 402.5 131 q105 0 163 -32 q-64 136 -150 235 l-292 -122 l0 184 l166 70 q-88 71 -258 176 l293 0 q96 -48 160 -94 l268 113 l0 -188 l-121 -49 ZM877 477 q0 160 -63 231.5 q-63 71.5 -183 71.5 q-256 0 -256 -303 q0 -148 62 -226.5 q62 -78.5 181 -78.5 q125 0 192 72 q67 72 67 233 Z" /><glyph glyph-name="divide" unicode="÷" d="M442 961 l0 233 l238 0 l0 -233 l-238 0 ZM49 569 l0 224 l1027 0 l0 -224 l-1027 0 ZM442 170 l0 233 l238 0 l0 -233 l-238 0 Z" /><glyph glyph-name="oslash" unicode="ø" d="M1171 542 q0 -263 -146 -412.5 q-146 -149.5 -404 -149.5 q-192 0 -324 89 l-113 -124 l-183 0 l197 215 q-118 146 -118 382 q0 261 144 410.5 q144 149.5 403 149.5 q199 0 330 -83 l101 114 l184 0 l-184 -206 q113 -142 113 -385 ZM375 542 q0 -92 17 -163 l407 461 q-60 69 -168 69 q-256 0 -256 -367 ZM877 542 q0 94 -16 162 l-407 -460 q62 -72 164 -72 q259 0 259 370 Z" /><glyph glyph-name="thorn" unicode="þ" d="M143 1484 l281 0 l0 -462 l-4 -168 l4 0 q95 199 346 199 q191 0 294 -140.5 q103 -140.5 103 -392.5 q0 -257 -108.5 -398.5 q-108.5 -141.5 -306.5 -141.5 q-114 0 -198.5 49.5 q-84.5 49.5 -129.5 142.5 l-6 0 q6 -30 6 -182 l0 -415 l-281 0 l0 1909 ZM874 520 q0 172 -55.5 255 q-55.5 83 -167.5 83 q-113 0 -172 -91.5 q-59 -91.5 -59 -254.5 q0 -163 59.5 -251.5 q59.5 -88.5 169.5 -88.5 q225 0 225 348 Z" /><glyph glyph-name="dcroat" unicode="&#x111;" d="M827 1345 l0 139 l282 0 l0 -139 l132 0 l0 -170 l-132 0 l0 -939 q0 -100 8 -236 l-272 0 q-4 15 -9.5 75.5 q-5.5 60.5 -5.5 100.5 l-4 0 q-91 -196 -347 -196 q-188 0 -291.5 141.5 q-103.5 141.5 -103.5 399.5 q0 260 108 400.5 q108 140.5 308 140.5 q115 0 198.5 -48 q83.5 -48 128.5 -143 l2 0 l-2 178 l0 126 l-286 0 l0 170 l286 0 ZM831 529 q0 167 -58 256 q-58 89 -173 89 q-113 0 -168 -85 q-55 -85 -55 -267 q0 -350 221 -350 q113 0 173 93.5 q60 93.5 60 263.5 Z" /><glyph glyph-name="Hbar" unicode="&#x126;" d="M1057 0 l0 604 l-625 0 l0 -604 l-295 0 l0 1045 l-123 0 l0 170 l123 0 l0 194 l295 0 l0 -194 l625 0 l0 194 l284 0 l0 -194 l124 0 l0 -170 l-124 0 l0 -1045 l-284 0 ZM1057 848 l0 197 l-625 0 l0 -197 l625 0 Z" /><glyph glyph-name="hbar" unicode="&#x127;" d="M420 826 q57 124 143 180 q86 56 205 56 q172 0 264 -106 q92 -106 92 -310 l0 -646 l-280 0 l0 566 q0 285 -193 285 q-102 0 -164.5 -87.5 q-62.5 -87.5 -62.5 -224.5 l0 -539 l-281 0 l0 1175 l-133 0 l0 170 l133 0 l0 139 l281 0 l0 -139 l306 0 l0 -170 l-306 0 l0 -136 q0 -109 -8 -213 l4 0 Z" /><glyph glyph-name="dotlessi" unicode="&#x131;" d="M145 0 l0 1082 l281 0 l0 -1082 l-281 0 Z" /><glyph glyph-name="jcircumflex" unicode="&#x135;" d="M647 1211 l0 -28 l-159 0 l-203 192 l-4 0 l-211 -192 l-160 0 l0 28 l258 318 l229 0 l250 -318 ZM138 -425 q-100 0 -170 9 l0 198 l51 -4 q72 0 98.5 31.5 q26.5 31.5 26.5 130.5 l0 1142 l281 0 l0 -1210 q0 -143 -72.5 -220 q-72.5 -77 -214.5 -77 Z" /><glyph glyph-name="kgreenlandic" unicode="&#x138;" d="M834 0 l-289 490 l-121 -84 l0 -406 l-281 0 l0 1082 l281 0 l0 -448 l386 448 l302 0 l-380 -422 l409 -660 l-307 0 Z" /><glyph glyph-name="Lslash" unicode="&#x141;" d="M137 0 l0 483 l-137 -65 l0 225 l137 66 l0 700 l295 0 l0 -559 l307 147 l0 -223 l-307 -147 l0 -396 l756 0 l0 -231 l-1051 0 Z" /><glyph glyph-name="lslash" unicode="&#x142;" d="M424 717 l0 -717 l-281 0 l0 561 l-125 -69 l0 215 l125 69 l0 708 l281 0 l0 -552 l129 74 l0 -213 l-129 -76 Z" /><glyph glyph-name="Eng" unicode="&#x14a;" d="M904 -20 q-132 0 -221.5 39.5 q-89.5 39.5 -163.5 138.5 l202 171 q52 -68 93 -92.5 q41 -24.5 88 -24.5 q63 0 100 32.5 q37 32.5 53 100.5 q16 68 16 208 l0 295 q0 186 -64 269 q-64 83 -209 83 q-97 0 -182 -49 q-85 -49 -134.5 -133 q-49.5 -84 -49.5 -179 l0 -839 l-295 0 l0 1092 l-4 317 l288 0 q11 -121 11 -251 l4 0 q66 127 194 199 q128 72 284 72 q233 0 337 -129 q104 -129 104 -411 l0 -347 q0 -300 -108.5 -431 q-108.5 -131 -342.5 -131 Z" /><glyph glyph-name="eng" unicode="&#x14b;" d="M837 -425 q-100 0 -170 9 l0 198 l51 -4 q74 0 100 32.5 q26 32.5 26 129.5 l0 667 q0 285 -193 285 q-102 0 -164.5 -87.5 q-62.5 -87.5 -62.5 -224.5 l0 -580 l-281 0 l0 840 q0 87 -2.5 142.5 q-2.5 55.5 -5.5 99.5 l268 0 q3 -19 8 -101.5 q5 -82.5 5 -113.5 l4 0 q57 124 143 180 q86 56 205 56 q172 0 264 -106 q92 -106 92 -310 l0 -815 q0 -143 -72.5 -220 q-72.5 -77 -214.5 -77 Z" /><glyph glyph-name="OE" unicode="&#x152;" d="M992 0 q-38 -2 -91.5 -6 q-53.5 -4 -107.5 -4 q-334 0 -521.5 191.5 q-187.5 191.5 -187.5 529.5 q0 338 187.5 523.5 q187.5 185.5 523.5 185.5 q71 0 203 -11 l929 0 l0 -227 l-667 0 l0 -355 l606 0 l0 -221 l-606 0 l0 -379 l708 0 l0 -227 l-976 0 ZM963 1169 q-71 19 -168 19 q-200 0 -307 -124.5 q-107 -124.5 -107 -352.5 q0 -229 109.5 -359 q109.5 -130 302.5 -130 q116 0 170 20 l0 927 Z" /><glyph glyph-name="oe" unicode="&#x153;" d="M1384 -20 q-238 0 -369 159 q-144 -159 -394 -159 q-253 0 -397 150 q-144 150 -144 412 q0 261 144 410.5 q144 149.5 403 149.5 q256 0 394 -153 q134 153 367 153 q233 0 356 -154.5 q123 -154.5 123 -452.5 l0 -19 l-694 0 q0 -146 59 -227 q59 -81 166 -81 q149 0 188 129 l265 -23 q-115 -294 -467 -294 ZM877 542 q0 193 -63 280 q-63 87 -183 87 q-256 0 -256 -367 q0 -181 62.5 -275.5 q62.5 -94.5 180.5 -94.5 q259 0 259 370 ZM1384 925 q-99 0 -152.5 -69 q-53.5 -69 -56.5 -193 l420 0 q-8 131 -63 196.5 q-55 65.5 -148 65.5 Z" /><glyph glyph-name="Tbar" unicode="&#x166;" d="M773 1181 l0 -365 l228 0 l0 -190 l-228 0 l0 -626 l-295 0 l0 626 l-227 0 l0 190 l227 0 l0 365 l-455 0 l0 228 l1206 0 l0 -228 l-456 0 Z" /><glyph glyph-name="tbar" unicode="&#x167;" d="M420 -18 q-124 0 -191 67.5 q-67 67.5 -67 204.5 l0 219 l-127 0 l0 190 l127 0 l0 229 l-137 0 l0 190 l151 0 l88 254 l176 0 l0 -254 l205 0 l0 -190 l-205 0 l0 -229 l185 0 l0 -190 l-185 0 l0 -143 q0 -79 30 -116.5 q30 -37.5 93 -37.5 q33 0 94 14 l0 -174 q-104 -34 -237 -34 Z" /><glyph glyph-name="longs" unicode="&#x17f;" d="M142 1195 q0 147 78 218 q78 71 237 71 q79 0 178 -16 l0 -181 q-41 9 -82 9 q-72 0 -101.5 -28.5 q-29.5 -28.5 -29.5 -100.5 l0 -1167 l-280 0 l0 1195 Z" /><glyph glyph-name="uni0180" unicode="&#x180;" d="M10 1345 l133 0 l0 139 l281 0 l0 -139 l310 0 l0 -170 l-310 0 l0 -145 l-4 -176 l4 0 q95 208 346 208 q194 0 295.5 -137.5 q101.5 -137.5 101.5 -399.5 q0 -264 -106.5 -404.5 q-106.5 -140.5 -308.5 -140.5 q-116 0 -200.5 50.5 q-84.5 50.5 -127.5 143.5 l-2 0 q0 -35 -4.5 -96 q-4.5 -61 -9.5 -78 l-273 0 q8 93 8 247 l0 928 l-133 0 l0 170 ZM874 525 q0 178 -53 260 q-53 82 -168 82 q-120 0 -176.5 -89.5 q-56.5 -89.5 -56.5 -261.5 q0 -167 55.5 -255.5 q55.5 -88.5 175.5 -88.5 q116 0 169.5 86 q53.5 86 53.5 267 Z" /><glyph glyph-name="uni0181" unicode="&#x181;" d="M1019 1409 q259 0 391 -90 q132 -90 132 -264 q0 -120 -66.5 -202.5 q-66.5 -82.5 -202.5 -111.5 q171 -20 260.5 -107.5 q89.5 -87.5 89.5 -231.5 q0 -192 -144 -297 q-144 -105 -400 -105 l-705 0 l0 1195 l-28 0 q-133 0 -133 -110 q0 -51 31 -134 l-214 -17 q-30 105 -30 201 q0 127 91.5 200.5 q91.5 73.5 242.5 73.5 l685 0 ZM1327 425 q0 198 -284 198 l-374 0 l0 -404 l385 0 q141 0 207 51.5 q66 51.5 66 154.5 ZM1245 1015 q0 95 -61 135 q-61 40 -179 40 l-336 0 l0 -349 l338 0 q125 0 181.5 43.5 q56.5 43.5 56.5 130.5 Z" /><glyph glyph-name="uni0182" unicode="&#x182;" d="M1390 431 q0 -128 -61.5 -225.5 q-61.5 -97.5 -180 -151.5 q-118.5 -54 -279.5 -54 l-732 0 l0 1409 l1061 0 l0 -227 l-766 0 l0 -341 l469 0 q237 0 363 -107.5 q126 -107.5 126 -302.5 ZM1091 425 q0 93 -69 145.5 q-69 52.5 -207 52.5 l-383 0 l0 -404 l389 0 q270 0 270 206 Z" /><glyph glyph-name="uni0183" unicode="&#x183;" d="M1167 525 q0 -258 -109.5 -401.5 q-109.5 -143.5 -305.5 -143.5 q-116 0 -200.5 50.5 q-84.5 50.5 -127.5 143.5 l-2 0 q0 -35 -4.5 -96 q-4.5 -61 -9.5 -78 l-273 0 q8 93 8 247 l0 1237 l742 0 l0 -213 l-461 0 l0 -241 l-4 -176 l4 0 q95 208 346 208 q188 0 292.5 -140.5 q104.5 -140.5 104.5 -396.5 ZM874 525 q0 342 -221 342 q-111 0 -172 -90.5 q-61 -90.5 -61 -260.5 q0 -163 59.5 -253.5 q59.5 -90.5 171.5 -90.5 q223 0 223 353 Z" /><glyph glyph-name="uni0184" unicode="&#x184;" d="M1390 431 q0 -128 -61.5 -225.5 q-61.5 -97.5 -180 -151.5 q-118.5 -54 -279.5 -54 l-732 0 l0 1003 l-137 143 l0 36 l357 227 l75 0 l0 -568 l469 0 q237 0 363 -107.5 q126 -107.5 126 -302.5 ZM1091 425 q0 93 -69 145.5 q-69 52.5 -207 52.5 l-383 0 l0 -404 l389 0 q270 0 270 206 Z" /><glyph glyph-name="uni0185" unicode="&#x185;" d="M424 1070 l-4 -176 l4 0 q95 208 346 208 q192 0 294.5 -145.5 q102.5 -145.5 102.5 -411.5 q0 -268 -107.5 -416.5 q-107.5 -148.5 -307.5 -148.5 q-116 0 -200.5 50.5 q-84.5 50.5 -127.5 143.5 l-2 0 q0 -35 -4.5 -96 q-4.5 -61 -9.5 -78 l-273 0 q8 93 8 247 l0 850 l-143 143 l0 36 l349 208 l75 0 l0 -414 ZM874 545 q0 184 -54 273 q-54 89 -167 89 q-114 0 -173.5 -95.5 q-59.5 -95.5 -59.5 -275.5 q0 -172 58.5 -268 q58.5 -96 172.5 -96 q223 0 223 373 Z" /><glyph glyph-name="uni0186" unicode="&#x186;" d="M684 1198 q-267 0 -371 -268 l-257 97 q83 204 243.5 303.5 q160.5 99.5 384.5 99.5 q340 0 525.5 -192.5 q185.5 -192.5 185.5 -538.5 q0 -347 -179 -533 q-179 -186 -519 -186 q-248 0 -404 99.5 q-156 99.5 -219 292.5 l260 71 q33 -106 129.5 -168.5 q96.5 -62.5 227.5 -62.5 q200 0 303.5 124 q103.5 124 103.5 363 q0 243 -106.5 371 q-106.5 128 -307.5 128 Z" /><glyph glyph-name="uni0187" unicode="&#x187;" d="M1145 967 q-33 106 -129.5 168.5 q-96.5 62.5 -227.5 62.5 q-200 0 -303.5 -124 q-103.5 -124 -103.5 -363 q0 -243 106.5 -371 q106.5 -128 307.5 -128 q127 0 220 63 q93 63 151 205 l257 -97 q-81 -202 -242 -302.5 q-161 -100.5 -386 -100.5 q-340 0 -525.5 192.5 q-185.5 192.5 -185.5 538.5 q0 347 179 533 q179 186 519 186 q211 0 357 -73 l0 60 q0 142 83 216 q83 74 231 74 q75 0 152 -17 l0 -204 q-58 12 -88 12 q-59 0 -85.5 -34.5 q-26.5 -34.5 -26.5 -106.5 l0 -319 l-260 -71 Z" /><glyph glyph-name="uni0188" unicode="&#x188;" d="M788 727 q-12 83 -60 132.5 q-48 49.5 -136 49.5 q-217 0 -217 -363 q0 -374 221 -374 q80 0 134 50.5 q54 50.5 67 150.5 l282 -13 q-15 -111 -79 -198 q-64 -87 -168 -134.5 q-104 -47.5 -238 -47.5 q-246 0 -380 146.5 q-134 146.5 -134 408.5 q0 268 135 417.5 q135 149.5 383 149.5 q117 0 214 -38 q8 131 86.5 197.5 q78.5 66.5 220.5 66.5 q75 0 152 -17 l0 -201 q-58 12 -88 12 q-59 0 -85.5 -34.5 q-26.5 -34.5 -26.5 -106.5 l0 -240 l-283 -14 Z" /><glyph glyph-name="uni018A" unicode="&#x18a;" d="M1630 715 q0 -218 -85.5 -380.5 q-85.5 -162.5 -242 -248.5 q-156.5 -86 -358.5 -86 l-570 0 l0 1195 l-28 0 q-133 0 -133 -110 q0 -51 31 -134 l-214 -17 q-30 105 -30 201 q0 127 91.5 200.5 q91.5 73.5 242.5 73.5 l550 0 q356 0 551 -180.5 q195 -180.5 195 -513.5 ZM1333 715 q0 227 -118 346.5 q-118 119.5 -337 119.5 l-209 0 l0 -953 l250 0 q190 0 302 131 q112 131 112 356 Z" /><glyph glyph-name="uni018B" unicode="&#x18b;" d="M88 431 q0 195 126.5 302.5 q126.5 107.5 362.5 107.5 l469 0 l0 341 l-766 0 l0 227 l1061 0 l0 -1409 l-732 0 q-239 0 -380 116 q-141 116 -141 315 ZM387 425 q0 -206 270 -206 l389 0 l0 404 l-383 0 q-138 0 -207 -52.5 q-69 -52.5 -69 -145.5 Z" /><glyph glyph-name="uni018C" unicode="&#x18c;" d="M84 525 q0 255 104.5 396 q104.5 141 292.5 141 q251 0 346 -208 l4 0 l-4 176 l0 241 l-461 0 l0 213 l742 0 l0 -1237 q0 -154 8 -247 l-273 0 q-5 16 -9.5 77 q-4.5 61 -4.5 97 l-2 0 q-46 -95 -129.5 -144.5 q-83.5 -49.5 -198.5 -49.5 q-195 0 -305 143.5 q-110 143.5 -110 401.5 ZM377 525 q0 -353 223 -353 q112 0 171.5 91 q59.5 91 59.5 253 q0 169 -60.5 260 q-60.5 91 -172.5 91 q-221 0 -221 -342 Z" /><glyph glyph-name="uni018D" unicode="&#x18d;" d="M1171 552 q0 -222 -111.5 -365 q-111.5 -143 -317.5 -178 l347 -253 l0 -180 l-923 0 l0 203 l537 0 l-415 299 q-96 69 -152 187 q-56 118 -56 287 q0 167 64.5 291.5 q64.5 124.5 188.5 191.5 q124 67 294 67 q264 0 404 -141.5 q140 -141.5 140 -408.5 ZM877 552 q0 357 -246 357 q-256 0 -256 -357 q0 -176 63.5 -268 q63.5 -92 179.5 -92 q259 0 259 360 Z" /><glyph glyph-name="uni018E" unicode="&#x18e;" d="M80 0 l0 228 l854 0 l0 371 l-752 0 l0 228 l752 0 l0 354 l-813 0 l0 228 l1108 0 l0 -1409 l-1149 0 Z" /><glyph glyph-name="uni018F" unicode="&#x18f;" d="M741 206 q161 0 252 104.5 q91 104.5 103 302.5 l-710 0 q12 -195 106 -301 q94 -106 249 -106 ZM161 1070 q131 360 582 360 q310 0 485 -190.5 q175 -190.5 175 -528.5 q0 -221 -80 -387.5 q-80 -166.5 -230 -255 q-150 -88.5 -352 -88.5 q-205 0 -352.5 87.5 q-147.5 87.5 -226 253 q-78.5 165.5 -78.5 390.5 q0 76 9 137 l998 0 q-19 168 -107 262.5 q-88 94.5 -242 94.5 q-122 0 -197.5 -51 q-75.5 -51 -119.5 -157 l-264 73 Z" /><glyph glyph-name="uni0190" unicode="&#x190;" d="M635 -20 q-254 0 -397.5 113 q-143.5 113 -143.5 307 q0 132 84 218 q84 86 232 108 q-280 71 -280 324 q0 168 140 273.5 q140 105.5 371 105.5 q218 0 355 -96 q137 -96 205 -297 l-268 -61 q-73 237 -287 237 q-108 0 -169.5 -48 q-61.5 -48 -61.5 -139 q0 -100 72 -148 q72 -48 223 -48 l59 0 l0 -227 l-59 0 q-169 0 -248.5 -44.5 q-79.5 -44.5 -79.5 -145.5 q0 -97 67 -150.5 q67 -53.5 196 -53.5 q236 0 328 253 l264 -93 q-68 -197 -216.5 -292.5 q-148.5 -95.5 -385.5 -95.5 Z" /><glyph glyph-name="uni0191" unicode="&#x191;" d="M432 1181 l0 -436 l721 0 l0 -228 l-721 0 l0 -549 q0 -393 -343 -393 q-74 0 -165 20 l0 220 q68 -13 95 -13 q65 0 91.5 38.5 q26.5 38.5 26.5 117.5 l0 1451 l1039 0 l0 -228 l-744 0 Z" /><glyph glyph-name="florin" unicode="&#x192;" d="M993 1247 q-16 5 -48 11 q-32 6 -54 6 q-65 0 -93.5 -33 q-28.5 -33 -40.5 -94 l-20 -107 l212 0 l-36 -190 l-213 0 l-251 -1265 l-281 0 l251 1265 l-158 0 l37 190 l158 0 l27 135 q26 147 117 218 q91 71 251 71 q42 0 95 -8.5 q53 -8.5 87 -21.5 l-40 -177 Z" /><glyph glyph-name="uni0193" unicode="&#x193;" d="M806 211 q115 0 223 33.5 q108 33.5 167 85.5 l0 195 l-344 0 l0 218 l614 0 l0 -518 q-112 -115 -291.5 -180 q-179.5 -65 -376.5 -65 q-344 0 -529 190.5 q-185 190.5 -185 540.5 q0 348 186 533.5 q186 185.5 535 185.5 q217 0 365 -72 l0 59 q0 142 83 216 q83 74 231 74 q75 0 152 -17 l0 -204 q-58 12 -88 12 q-59 0 -85.5 -34.5 q-26.5 -34.5 -26.5 -106.5 l0 -294 l-272 -82 q-44 107 -138 162 q-94 55 -221 55 q-208 0 -316 -126 q-108 -126 -108 -361 q0 -239 111.5 -369.5 q111.5 -130.5 313.5 -130.5 Z" /><glyph glyph-name="uni0194" unicode="&#x194;" d="M14 1409 l308 0 l334 -866 l331 866 l305 0 l-488 -1139 q102 -185 134.5 -274 q32.5 -89 32.5 -147 q0 -133 -82.5 -203.5 q-82.5 -70.5 -232.5 -70.5 q-148 0 -231 72.5 q-83 72.5 -83 202.5 q0 63 29.5 147 q29.5 84 133.5 273 l-491 1139 ZM734 -121 q0 37 -14.5 81.5 q-14.5 44.5 -63.5 134.5 q-45 -82 -55.5 -110.5 q-10.5 -28.5 -16 -53 q-5.5 -24.5 -5.5 -51.5 q0 -48 21.5 -70.5 q21.5 -22.5 55.5 -22.5 q34 0 56 22 q22 22 22 70 Z" /><glyph glyph-name="uni0195" unicode="&#x195;" d="M1314 -20 q-240 0 -355 116.5 q-115 116.5 -115 359.5 l0 150 q0 285 -193 285 q-102 0 -164.5 -87.5 q-62.5 -87.5 -62.5 -224.5 l0 -579 l-281 0 l0 1484 l281 0 l0 -405 q0 -109 -8 -213 l4 0 q57 124 143 180 q86 56 205 56 q172 0 264 -106 q92 -106 92 -310 l0 -238 q0 -132 47.5 -194.5 q47.5 -62.5 142.5 -62.5 q191 0 191 257 l0 634 l280 0 l0 -626 q0 -476 -471 -476 Z" /><glyph glyph-name="uni0197" unicode="&#x197;" d="M0 827 l137 0 l0 582 l295 0 l0 -582 l137 0 l0 -228 l-137 0 l0 -599 l-295 0 l0 599 l-137 0 l0 228 Z" /><glyph glyph-name="uni0198" unicode="&#x198;" d="M1112 0 l-506 647 l-174 -133 l0 -514 l-295 0 l0 1037 q0 393 332 393 q71 0 161 -20 l0 -220 q-68 13 -95 13 q-51 0 -77 -26 q-26 -26 -26 -98 l0 -309 l635 639 l344 0 l-602 -596 l651 -813 l-348 0 Z" /><glyph glyph-name="uni0199" unicode="&#x199;" d="M834 0 l-289 490 l-121 -84 l0 -406 l-281 0 l0 1203 q0 138 87.5 214 q87.5 76 241.5 76 q97 0 182 -17 l0 -201 q-18 5 -55.5 8.5 q-37.5 3.5 -58.5 3.5 q-61 0 -88.5 -35 q-27.5 -35 -27.5 -106 l0 -512 l386 448 l302 0 l-380 -422 l409 -660 l-307 0 Z" /><glyph glyph-name="uni019A" unicode="&#x19a;" d="M20 826 l123 0 l0 658 l281 0 l0 -658 l125 0 l0 -187 l-125 0 l0 -639 l-281 0 l0 639 l-123 0 l0 187 Z" /><glyph glyph-name="uni019B" unicode="&#x19b;" d="M54 1159 l284 121 l-82 204 l298 0 l37 -96 l181 78 l74 -173 l-187 -80 l469 -1213 l-294 0 l-265 797 l-256 -797 l-297 0 l408 1071 l-15 35 l-281 -120 l-74 173 Z" /><glyph glyph-name="uni019C" unicode="&#x19c;" d="M1163 1409 l0 -933 q0 -148 49 -216.5 q49 -68.5 150 -68.5 q110 0 173.5 87.5 q63.5 87.5 63.5 224.5 l0 906 l295 0 l0 -1408 l-302 0 l-12 168 l-4 0 q-57 -101 -139 -145 q-82 -44 -194 -44 q-129 0 -211 49 q-82 49 -123 152 l-7 0 q-71 -110 -159.5 -155.5 q-88.5 -45.5 -226.5 -45.5 q-181 0 -280 107.5 q-99 107.5 -99 308.5 l0 1013 l295 0 l0 -933 q0 -149 50 -217 q50 -68 150 -68 q106 0 171 83 q65 83 65 216 l0 919 l295 0 Z" /><glyph glyph-name="uni019D" unicode="&#x19d;" d="M474 1409 l623 -1094 q-18 151 -18 275 l0 819 l262 0 l0 -1409 l-346 0 l-614 1085 q18 -158 18 -254 l0 -883 q0 -199 -71.5 -286 q-71.5 -87 -238.5 -87 q-74 0 -165 20 l0 230 q68 -13 95 -13 q65 0 91.5 38.5 q26.5 38.5 26.5 117.5 l0 1441 l337 0 Z" /><glyph glyph-name="uni019E" unicode="&#x19e;" d="M844 -424 l0 1031 q0 285 -193 285 q-102 0 -164.5 -87.5 q-62.5 -87.5 -62.5 -224.5 l0 -580 l-281 0 l0 840 q0 138 -8 242 l268 0 q3 -19 8 -101.5 q5 -82.5 5 -113.5 l4 0 q57 124 143 180 q86 56 205 56 q172 0 264 -106 q92 -106 92 -310 l0 -1111 l-280 0 Z" /><glyph glyph-name="Ohorn" unicode="&#x1a0;" d="M1744 1199 q0 -319 -241 -408 l4 -80 q0 -220 -87 -387 q-87 -167 -249 -255.5 q-162 -88.5 -378 -88.5 q-332 0 -520.5 195.5 q-188.5 195.5 -188.5 535.5 q0 339 188 529 q188 190 523 190 q273 0 453 -131 q180 -131 235 -372 q123 63 123 222 l-125 0 l0 260 l263 0 l0 -210 ZM1206 711 q0 228 -108 357.5 q-108 129.5 -303 129.5 q-198 0 -306 -128.5 q-108 -128.5 -108 -358.5 q0 -232 110.5 -365.5 q110.5 -133.5 301.5 -133.5 q198 0 305.5 130 q107.5 130 107.5 369 Z" /><glyph glyph-name="ohorn" unicode="&#x1a1;" d="M1456 872 q0 -171 -70 -275.5 q-70 -104.5 -220 -142.5 q-23 -226 -167 -350 q-144 -124 -378 -124 q-253 0 -397 150 q-144 150 -144 412 q0 261 144 410.5 q144 149.5 403 149.5 q255 0 393.5 -132.5 q138.5 -132.5 149.5 -382.5 q148 56 148 235 l-125 0 l0 260 l263 0 l0 -210 ZM877 542 q0 193 -63 280 q-63 87 -183 87 q-256 0 -256 -367 q0 -181 62.5 -275.5 q62.5 -94.5 180.5 -94.5 q132 0 195.5 91.5 q63.5 91.5 63.5 278.5 Z" /><glyph glyph-name="uni01A2" unicode="&#x1a2;" d="M1384 -425 l0 1606 l-192 0 l0 -1098 q-70 -44 -186.5 -73.5 q-116.5 -29.5 -228.5 -29.5 q-334 0 -513.5 192 q-179.5 192 -179.5 539 q0 347 179 533 q179 186 519 186 q199 0 365 -83 l446 78 l73 0 l0 -1850 l-282 0 ZM795 207 q62 0 115 14 l0 967 q-60 15 -122 15 q-199 0 -303 -126 q-104 -126 -104 -366 q0 -244 106.5 -374 q106.5 -130 307.5 -130 Z" /><glyph glyph-name="uni01A3" unicode="&#x1a3;" d="M958 67 q-64 -42 -155 -64.5 q-91 -22.5 -192 -22.5 q-249 0 -390 148.5 q-141 148.5 -141 413.5 q0 264 139.5 412 q139.5 148 397.5 148 q189 0 328 -88 l357 88 l77 0 l0 -1527 l-253 0 l0 1302 l-168 0 l0 -810 ZM611 172 q47 0 89 12 l0 715 q-34 10 -76 10 q-129 0 -188.5 -89 q-59.5 -89 -59.5 -278 q0 -182 59.5 -276 q59.5 -94 175.5 -94 Z" /><glyph glyph-name="uni01A4" unicode="&#x1a4;" d="M346 1195 q-133 0 -133 -110 q0 -51 31 -134 l-214 -17 q-30 105 -30 201 q0 127 91.5 200.5 q91.5 73.5 242.5 73.5 l673 0 q253 0 389.5 -116.5 q136.5 -116.5 136.5 -329.5 q0 -137 -62.5 -244 q-62.5 -107 -178 -165 q-115.5 -58 -273.5 -58 l-350 0 l0 -496 l-295 0 l0 1195 l-28 0 ZM1236 958 q0 222 -262 222 l-305 0 l0 -457 l313 0 q122 0 188 60.5 q66 60.5 66 174.5 Z" /><glyph glyph-name="uni01A5" unicode="&#x1a5;" d="M1167 546 q0 -271 -108.5 -418.5 q-108.5 -147.5 -306.5 -147.5 q-116 0 -201.5 51 q-85.5 51 -126.5 141 l-6 0 q6 -30 6 -182 l0 -415 l-281 0 l0 1628 q0 137 87.5 213.5 q87.5 76.5 243.5 76.5 q49 0 110 -6 q61 -6 84 -11 l0 -211 q-18 5 -55.5 8.5 q-37.5 3.5 -58.5 3.5 q-134 0 -134 -133 l0 -241 l4 0 q95 199 346 199 q188 0 292.5 -144.5 q104.5 -144.5 104.5 -411.5 ZM874 546 q0 364 -223 364 q-112 0 -171.5 -98 q-59.5 -98 -59.5 -274 q0 -175 59 -270.5 q59 -95.5 170 -95.5 q225 0 225 374 Z" /><glyph glyph-name="uni01A6" unicode="&#x1a6;" d="M1020 -330 l-330 689 l-258 0 l0 -359 l-295 0 l0 1409 l295 0 l0 -176 l311 0 q252 0 389 -108.5 q137 -108.5 137 -311.5 q0 -148 -84 -255.5 q-84 -107.5 -227 -141.5 l381 -746 l-319 0 ZM972 801 q0 203 -260 203 l-280 0 l0 -416 l288 0 q124 0 188 56 q64 56 64 157 Z" /><glyph glyph-name="uni01A7" unicode="&#x1a7;" d="M80 406 q0 82 21.5 142 q21.5 60 59 103.5 q37.5 43.5 88.5 73.5 q51 30 110 51 q59 21 124 36 q65 15 131 30 q170 36 226.5 60.5 q56.5 24.5 85 60 q28.5 35.5 28.5 90.5 q0 168 -268 168 q-126 0 -193.5 -46 q-67.5 -46 -89.5 -137 l-286 39 q38 188 171.5 270.5 q133.5 82.5 398.5 82.5 q271 0 412.5 -100 q141.5 -100 141.5 -294 q0 -78 -20 -135.5 q-20 -57.5 -56 -100 q-36 -42.5 -86.5 -73 q-50.5 -30.5 -114.5 -53.5 q-64 -23 -214 -58 l-143 -33 q-122 -28 -181 -75 q-59 -47 -59 -119 q0 -188 309 -188 q149 0 233 50 q84 50 113 163 l285 -47 q-86 -387 -631 -387 q-295 0 -445.5 109 q-150.5 109 -150.5 317 Z" /><glyph glyph-name="uni01A8" unicode="&#x1a8;" d="M84 316 q0 100 44.5 165.5 q44.5 65.5 129.5 107.5 q85 42 341 95 q91 18 129 46 q38 28 38 75 q0 60 -50 85.5 q-50 25.5 -150 25.5 q-102 0 -149 -33 q-47 -33 -59 -98 l-249 26 q29 141 148.5 216.5 q119.5 75.5 314.5 75.5 q217 0 334.5 -85.5 q117.5 -85.5 117.5 -242.5 q0 -96 -45 -161 q-45 -65 -132 -105 q-87 -40 -313 -85 q-105 -21 -148.5 -51.5 q-43.5 -30.5 -43.5 -82.5 q0 -65 54.5 -94.5 q54.5 -29.5 171.5 -29.5 q127 0 179 31.5 q52 31.5 73 109.5 l247 -37 q-38 -148 -158 -219 q-120 -71 -345 -71 q-224 0 -352 88.5 q-128 88.5 -128 247.5 Z" /><glyph glyph-name="uni01AA" unicode="&#x1aa;" d="M24 1286 q0 94 63 149 q63 55 170 55 q167 0 250.5 -97 q83.5 -97 83.5 -287 l0 -1174 q0 -141 119 -141 q19 0 57.5 3.5 q38.5 3.5 56.5 8.5 l0 -211 q-68 -17 -182 -17 q-329 0 -329 329 l0 1201 q-44 -22 -96 -22 q-89 0 -141 56 q-52 56 -52 147 ZM144 1286 q0 -40 25.5 -63.5 q25.5 -23.5 61.5 -23.5 q36 0 61 23.5 q25 23.5 25 63.5 q0 40 -25 63.5 q-25 23.5 -61 23.5 q-36 0 -61.5 -23.5 q-25.5 -23.5 -25.5 -63.5 Z" /><glyph glyph-name="uni01AB" unicode="&#x1ab;" d="M292 -219 q118 0 118 141 l0 60 q-119 3 -183.5 70.5 q-64.5 67.5 -64.5 201.5 l0 638 l-137 0 l0 190 l151 0 l88 254 l176 0 l0 -254 l205 0 l0 -190 l-205 0 l0 -562 q0 -79 30 -116.5 q30 -37.5 93 -37.5 q33 0 94 14 l0 -312 q0 -143 -76 -223 q-76 -80 -232 -80 q-76 0 -167 20 l0 201 q72 -15 110 -15 Z" /><glyph glyph-name="uni01AC" unicode="&#x1ac;" d="M346 1181 q-133 0 -133 -96 q0 -51 31 -134 l-214 -17 q-30 105 -30 201 q0 126 83.5 200 q83.5 74 231.5 74 l914 0 l0 -228 l-456 0 l0 -1181 l-295 0 l0 1181 l-132 0 Z" /><glyph glyph-name="uni01AD" unicode="&#x1ad;" d="M420 -18 q-124 0 -191 67.5 q-67 67.5 -67 204.5 l0 638 l-137 0 l0 190 l134 0 l0 121 q0 138 87.5 214 q87.5 76 241.5 76 q97 0 182 -17 l0 -201 q-18 5 -55.5 8.5 q-37.5 3.5 -58.5 3.5 q-61 0 -88.5 -35 q-27.5 -35 -27.5 -106 l0 -64 l205 0 l0 -190 l-205 0 l0 -562 q0 -79 30 -116.5 q30 -37.5 93 -37.5 q33 0 94 14 l0 -174 q-104 -34 -237 -34 Z" /><glyph glyph-name="uni01AE" unicode="&#x1ae;" d="M23 1181 l0 228 l1206 0 l0 -228 l-456 0 l0 -1223 q0 -79 27 -117.5 q27 -38.5 91 -38.5 q27 0 95 13 l0 -220 q-91 -20 -165 -20 q-173 0 -258 94 q-85 94 -85 295 l0 1217 l-455 0 Z" /><glyph glyph-name="Uhorn" unicode="&#x1af;" d="M715 -20 q-288 0 -440 140 q-152 140 -152 408 l0 881 l295 0 l0 -858 q0 -340 305 -340 q157 0 239 90.5 q82 90.5 82 259.5 l0 848 l295 0 l0 -512 q107 14 164.5 79.5 q57.5 65.5 57.5 172.5 l-125 0 l0 260 l263 0 l0 -210 q0 -188 -86 -298.5 q-86 -110.5 -274 -139.5 l0 -218 q0 -269 -163 -416 q-163 -147 -461 -147 Z" /><glyph glyph-name="uhorn" unicode="&#x1b0;" d="M408 1082 l0 -607 q0 -285 192 -285 q102 0 164.5 87.5 q62.5 87.5 62.5 224.5 l0 580 l281 0 l0 -521 q110 12 173.5 81.5 q63.5 69.5 63.5 179.5 l-125 0 l0 260 l263 0 l0 -210 q0 -196 -93 -305 q-93 -109 -282 -135 l0 -190 q0 -87 2.5 -142.5 q2.5 -55.5 5.5 -99.5 l-268 0 q-4 25 -7.5 97 q-3.5 72 -4.5 118 l-5 0 q-107 -235 -348 -235 q-172 0 -264 106 q-92 106 -92 309 l0 687 l281 0 Z" /><glyph glyph-name="uni01B1" unicode="&#x1b1;" d="M821 -22 q-207 0 -363.5 74.5 q-156.5 74.5 -240.5 213 q-84 138.5 -84 323.5 q0 203 104.5 351 q104.5 148 325.5 251 q-128 -11 -188 -11 l-270 0 l0 228 l650 0 l0 -309 q-163 -80 -245 -192.5 q-82 -112.5 -82 -272.5 q0 -200 105 -312 q105 -112 289 -112 q184 0 289.5 112 q105.5 112 105.5 312 q0 158 -80.5 271.5 q-80.5 113.5 -243.5 193.5 l0 309 l644 0 l0 -228 l-268 0 q-58 0 -186 11 q217 -103 321.5 -250.5 q104.5 -147.5 104.5 -350.5 q0 -183 -84 -322.5 q-84 -139.5 -240.5 -214.5 q-156.5 -75 -363.5 -75 Z" /><glyph glyph-name="uni01B2" unicode="&#x1b2;" d="M1348 952 q0 -480 -166.5 -726 q-166.5 -246 -498.5 -246 q-271 0 -415.5 140 q-144.5 140 -144.5 408 l0 881 l295 0 l0 -858 q0 -165 66.5 -252.5 q66.5 -87.5 198.5 -87.5 q136 0 215.5 75 q79.5 75 117.5 233 q38 158 38 418 q0 134 -43.5 199 q-43.5 65 -135.5 65 q-43 0 -111 -13 l0 220 q90 20 232 20 q171 0 261.5 -121.5 q90.5 -121.5 90.5 -354.5 Z" /><glyph glyph-name="uni01B3" unicode="&#x1b3;" d="M682 813 l241 426 q56 100 118.5 145.5 q62.5 45.5 147.5 45.5 q157 0 298 -129 l-109 -185 q-70 62 -128 62 q-37 0 -62.5 -20 q-25.5 -20 -52.5 -64 l-304 -516 l0 -578 l-294 0 l0 578 l-502 831 l309 0 l338 -596 Z" /><glyph glyph-name="uni01B4" unicode="&#x1b4;" d="M1181 1493 q126 0 246 -74 l-95 -196 q-56 36 -110 36 q-44 0 -69.5 -29.5 q-25.5 -29.5 -41.5 -76.5 l-411 -1210 q-77 -205 -172 -286.5 q-95 -81.5 -245 -81.5 q-101 0 -177 13 l0 200 q53 -8 97 -8 q88 0 137 41.5 q49 41.5 86 141.5 l18 48 l-428 1071 l297 0 l170 -507 q12 -34 51 -163.5 q39 -129.5 50 -170.5 l9 37 l81 293 l210 657 q44 140 118.5 202.5 q74.5 62.5 178.5 62.5 Z" /><glyph glyph-name="uni01B5" unicode="&#x1b5;" d="M52 835 l501 0 l270 343 l-686 0 l0 231 l1014 0 l0 -205 l-289 -369 l295 0 l0 -197 l-450 0 l-318 -407 l803 0 l0 -231 l-1131 0 l0 209 l337 429 l-346 0 l0 197 Z" /><glyph glyph-name="uni01B6" unicode="&#x1b6;" d="M64 633 l348 0 l196 246 l-499 0 l0 203 l809 0 l0 -201 l-203 -248 l217 0 l0 -177 l-352 0 l-199 -251 l586 0 l0 -205 l-899 0 l0 199 l214 257 l-218 0 l0 177 Z" /><glyph glyph-name="uni01B7" unicode="&#x1b7;" d="M593 -434 q-215 0 -353.5 91 q-138.5 91 -213.5 284 l258 101 q54 -131 125.5 -187.5 q71.5 -56.5 174.5 -56.5 q147 0 226.5 97 q79.5 97 79.5 280 q0 170 -101.5 259.5 q-101.5 89.5 -301.5 89.5 l-128 0 l0 231 l417 423 l-690 0 l0 231 l1050 0 l0 -205 l-474 -467 q244 -12 380.5 -157.5 q136.5 -145.5 136.5 -393.5 q0 -187 -71.5 -328 q-71.5 -141 -205.5 -216.5 q-134 -75.5 -309 -75.5 Z" /><glyph glyph-name="uni01B8" unicode="&#x1b8;" d="M658 -434 q-274 0 -430 162 q-156 162 -156 441 q0 168 64 294 q64 126 181 196.5 q117 70.5 272 77.5 l-474 467 l0 205 l1050 0 l0 -231 l-690 0 l417 -423 l0 -231 l-128 0 q-201 0 -302 -89.5 q-101 -89.5 -101 -259.5 q0 -183 79.5 -280 q79.5 -97 226.5 -97 q103 0 175 57 q72 57 125 187 l258 -101 q-75 -193 -213.5 -284 q-138.5 -91 -353.5 -91 Z" /><glyph glyph-name="uni01B9" unicode="&#x1b9;" d="M569 -241 q87 0 144.5 47.5 q57.5 47.5 67.5 153.5 l277 -13 q-24 -182 -153.5 -281.5 q-129.5 -99.5 -337.5 -99.5 q-244 0 -385.5 131 q-141.5 131 -141.5 354 q0 200 111 321 q111 121 313 141 l-364 374 l0 195 l902 0 l0 -203 l-565 0 l336 -356 l0 -189 l-102 0 q-183 0 -264 -72.5 q-81 -72.5 -81 -227.5 q0 -275 243 -275 Z" /><glyph glyph-name="uni01BA" unicode="&#x1ba;" d="M1039 -99 q-34 -156 -176.5 -245.5 q-142.5 -89.5 -359.5 -89.5 q-128 0 -230.5 38 q-102.5 38 -160 109.5 q-57.5 71.5 -57.5 171.5 q0 87 48 150.5 q48 63.5 137.5 103.5 q89.5 40 275.5 82 q110 24 161.5 54.5 q51.5 30.5 51.5 74.5 q0 45 -25 68.5 q-25 23.5 -78 33.5 q-53 10 -219 10 l-102 0 l0 144 l303 273 l-538 0 l0 203 l902 0 l0 -163 l-346 -295 q208 -5 298.5 -72 q90.5 -67 90.5 -206 q0 -81 -44.5 -140.5 q-44.5 -59.5 -132.5 -101.5 q-88 -42 -295 -92 q-118 -29 -168.5 -59.5 q-50.5 -30.5 -50.5 -71.5 q0 -56 55 -89 q55 -33 155 -33 q98 0 159 46 q61 46 72 134 l274 -38 Z" /><glyph glyph-name="uni01BB" unicode="&#x1bb;" d="M86 764 l505 0 q159 141 159 258 q0 184 -185 184 q-90 0 -137.5 -48.5 q-47.5 -48.5 -61.5 -145.5 l-283 16 q24 196 146.5 299 q122.5 103 333.5 103 q228 0 350 -104 q122 -104 122 -292 q0 -139 -102 -270 l110 0 l0 -191 l-302 0 l-104 -85 q-188 -148 -234 -257 l654 0 l0 -231 l-986 0 l0 195 q42 92 111 181.5 q69 89.5 187 196.5 l-283 0 l0 191 Z" /><glyph glyph-name="uni01BC" unicode="&#x1bc;" d="M70 1409 l981 0 l0 -228 l-531 0 l0 -238 l36 0 q257 0 389 -116 q132 -116 132 -341 q0 -249 -132 -377.5 q-132 -128.5 -390 -128.5 q-208 0 -338.5 101 q-130.5 101 -155.5 283 l282 13 q40 -174 220 -174 q120 0 173 63.5 q53 63.5 53 195.5 q0 125 -60 185.5 q-60 60.5 -200 60.5 l-285 0 l0 473 l-174 0 l0 228 Z" /><glyph glyph-name="uni01BD" unicode="&#x1bd;" d="M30 1082 l852 0 l0 -203 l-447 0 l0 -184 l50 0 q460 0 460 -360 q0 -169 -119.5 -262 q-119.5 -93 -340.5 -93 q-186 0 -308 86.5 q-122 86.5 -160 247.5 l271 18 q18 -83 69 -121.5 q51 -38.5 139 -38.5 q89 0 134 39 q45 39 45 124 q0 94 -53.5 134.5 q-53.5 40.5 -174.5 40.5 l-258 0 l0 369 l-159 0 l0 203 Z" /><glyph glyph-name="uni01BE" unicode="&#x1be;" d="M168 892 l-137 0 l0 190 l151 0 l88 254 l176 0 l0 -254 l205 0 l0 -190 l-205 0 l0 -77 q0 -39 19.5 -64 q19.5 -25 60 -42.5 q40.5 -17.5 181.5 -49.5 q174 -40 248 -81 q74 -41 114 -104 q40 -63 40 -158 q0 -157 -128.5 -246.5 q-128.5 -89.5 -355.5 -89.5 q-223 0 -341.5 70.5 q-118.5 70.5 -157.5 219.5 l247 37 q21 -77 72.5 -109 q51.5 -32 179.5 -32 q117 0 171.5 29.5 q54.5 29.5 54.5 94.5 q0 52 -43.5 82.5 q-43.5 30.5 -147.5 51.5 q-235 46 -319 89.5 q-84 43.5 -128.5 115.5 q-44.5 72 -44.5 179 l0 84 Z" /><glyph glyph-name="uni01BF" unicode="&#x1bf;" d="M1164 668 q0 -315 -175 -522.5 q-175 -207.5 -565 -364.5 l0 -206 l-281 0 l0 1507 l265 0 q7 -53 12 -164 l4 0 q51 91 135.5 139 q84.5 48 197.5 48 q130 0 221 -55 q91 -55 138.5 -154.5 q47.5 -99.5 47.5 -227.5 ZM878 639 q0 271 -218 271 q-112 0 -174 -87.5 q-62 -87.5 -62 -227.5 l0 -595 q234 120 344 276.5 q110 156.5 110 362.5 Z" /><glyph glyph-name="uni01C0" unicode="&#x1c0;" d="M164 0 l0 1484 l245 0 l0 -1484 l-245 0 Z" /><glyph glyph-name="uni01C1" unicode="&#x1c1;" d="M174 0 l0 1484 l240 0 l0 -1484 l-240 0 ZM605 0 l0 1484 l240 0 l0 -1484 l-240 0 Z" /><glyph glyph-name="uni01C2" unicode="&#x1c2;" d="M82 1083 l394 0 l0 401 l245 0 l0 -401 l394 0 l0 -209 l-394 0 l0 -266 l394 0 l0 -209 l-394 0 l0 -399 l-245 0 l0 399 l-394 0 l0 209 l394 0 l0 266 l-394 0 l0 209 Z" /><glyph glyph-name="uni01DD" unicode="&#x1dd;" d="M563 1102 q244 0 375 -144.5 q131 -144.5 131 -421.5 q0 -268 -133 -412 q-133 -144 -377 -144 q-233 0 -356 154.5 q-123 154.5 -123 452.5 l0 8 l694 0 q0 158 -58.5 238.5 q-58.5 80.5 -166.5 80.5 q-149 0 -188 -129 l-265 23 q115 294 467 294 ZM563 157 q99 0 152.5 69 q53.5 69 56.5 193 l-420 0 q8 -131 63 -196.5 q55 -65.5 148 -65.5 Z" /><glyph glyph-name="uni01E4" unicode="&#x1e4;" d="M856 479 l340 0 l0 128 l-344 0 l0 218 l614 0 l0 -346 l116 0 l0 -148 l-116 0 l0 -106 q-112 -115 -291.5 -180 q-179.5 -65 -376.5 -65 q-344 0 -529 190.5 q-185 190.5 -185 540.5 q0 348 186 533.5 q186 185.5 535 185.5 q496 0 631 -367 l-272 -82 q-44 107 -138 162 q-94 55 -221 55 q-208 0 -316 -126 q-108 -126 -108 -361 q0 -239 111.5 -369.5 q111.5 -130.5 313.5 -130.5 q127 0 233.5 32.5 q106.5 32.5 166.5 87.5 l-350 0 l0 148 Z" /><glyph glyph-name="uni01E5" unicode="&#x1e5;" d="M37 0 l791 0 l1 37 l0 57 l2 107 l-2 0 q-62 -81 -142 -115 q-80 -34 -189 -34 q-202 0 -308 137.5 q-106 137.5 -106 385.5 q0 256 108.5 392 q108.5 136 309.5 136 q236 0 327 -195 l5 0 q0 35 4.5 95 q4.5 60 9.5 79 l266 0 q-6 -108 -6 -250 l0 -832 l99 0 l0 -93 l-111 0 q-34 -172 -162.5 -256.5 q-128.5 -84.5 -337.5 -84.5 q-180 0 -296.5 63.5 q-116.5 63.5 -158.5 184.5 l283 37 q48 -100 180 -100 q168 0 210 156 l-777 0 l0 93 ZM831 581 q0 156 -59.5 242.5 q-59.5 86.5 -169.5 86.5 q-225 0 -225 -335 q0 -328 223 -328 q111 0 171 85.5 q60 85.5 60 248.5 Z" /><glyph glyph-name="uni01F6" unicode="&#x1f6;" d="M1341 448 q0 -132 47.5 -194.5 q47.5 -62.5 142.5 -62.5 q191 0 191 257 l0 634 l280 0 l0 -626 q0 -476 -471 -476 q-246 0 -365.5 114 q-119.5 114 -119.5 362 l0 148 l-614 0 l0 -604 l-295 0 l0 1409 l295 0 l0 -561 l614 0 l0 561 l295 0 l0 -961 Z" /><glyph glyph-name="uni01F7" unicode="&#x1f7;" d="M1251 895 q0 -367 -198 -632 q-198 -265 -625 -456 l0 -231 l-291 0 l0 1833 l272 0 l0 -166 q75 102 162.5 144.5 q87.5 42.5 213.5 42.5 q137 0 243.5 -68 q106.5 -68 164.5 -190.5 q58 -122.5 58 -276.5 ZM950 863 q0 169 -56 252 q-56 83 -188 83 q-128 0 -203 -79.5 q-75 -79.5 -75 -206.5 l0 -852 q271 138 396.5 336 q125.5 198 125.5 467 Z" /><glyph glyph-name="uni021C" unicode="&#x21c;" d="M1086 308 q0 -95 -28.5 -174.5 q-28.5 -79.5 -80 -146 q-51.5 -66.5 -126 -122.5 q-74.5 -56 -172 -104.5 q-97.5 -48.5 -220 -90 q-122.5 -41.5 -369.5 -97.5 l0 238 q241 58 362.5 108 q121.5 50 194 106.5 q72.5 56.5 112 126 q39.5 69.5 39.5 155.5 q0 71 -16.5 132.5 q-16.5 61.5 -42.5 98.5 q-66 -41 -208 -94 q-142 -53 -441 -140 l0 225 q185 56 321 106.5 q136 50.5 219 94.5 q83 44 119 100 q36 56 36 143 q0 104 -69.5 164.5 q-69.5 60.5 -184.5 60.5 q-187 0 -311 -168 l-200 140 q99 131 228 195.5 q129 64.5 302 64.5 q162 0 283.5 -51.5 q121.5 -51.5 187 -149 q65.5 -97.5 65.5 -222.5 q0 -100 -27.5 -164.5 q-27.5 -64.5 -108.5 -147.5 q71 -76 103.5 -171 q32.5 -95 32.5 -216 Z" /><glyph glyph-name="uni021D" unicode="&#x21d;" d="M720 740 q0 81 -53 129.5 q-53 48.5 -151 48.5 q-83 0 -141 -43.5 q-58 -43.5 -79 -127.5 l-229 54 q25 142 148.5 221.5 q123.5 79.5 312.5 79.5 q218 0 341 -96 q123 -96 123 -268 q0 -98 -32.5 -163 q-32.5 -65 -98.5 -120 q60 -40 95.5 -119.5 q35.5 -79.5 35.5 -180.5 q0 -124 -54.5 -219 q-54.5 -95 -154 -164 q-99.5 -69 -263.5 -120 q-164 -51 -446 -83 l0 217 q200 15 347.5 64.5 q147.5 49.5 218 128.5 q70.5 79 70.5 184 q0 49 -14.5 95.5 q-14.5 46.5 -37.5 73.5 q-170 -69 -584 -140 l0 214 q112 19 195 35 q83 16 137 30 q54 14 146 48.5 q92 34.5 130 85.5 q38 51 38 135 Z" /><glyph glyph-name="uni0220" unicode="&#x220;" d="M1299 -425 l-291 0 l0 1252 q0 144 -27.5 219.5 q-27.5 75.5 -87 114 q-59.5 38.5 -156.5 38.5 q-172 0 -306 -130 l0 -1069 l-291 0 l0 1409 l272 0 l0 -130 q75 70 178 110.5 q103 40.5 215 40.5 q494 0 494 -504 l0 -1351 Z" /><glyph glyph-name="uni0221" unicode="&#x221;" d="M1108 111 q115 81 259 81 q168 0 262 -83.5 q94 -83.5 94 -222.5 q0 -143 -103.5 -227 q-103.5 -84 -274.5 -84 q-102 0 -194 32 q-92 32 -189 108 l-112 -134 l-168 151 q44 64 175 200 q-28 74 -28 201 l0 43 l-4 0 q-91 -196 -346 -196 q-189 0 -292 147.5 q-103 147.5 -103 412.5 q0 269 108.5 415.5 q108.5 146.5 307.5 146.5 q115 0 198.5 -48 q83.5 -48 128.5 -143 l2 0 l-2 178 l0 395 l281 0 l0 -1373 ZM831 547 q0 175 -58.5 269.5 q-58.5 94.5 -172.5 94.5 q-113 0 -168 -91.5 q-55 -91.5 -55 -279.5 q0 -368 221 -368 q111 0 172 97.5 q61 97.5 61 277.5 ZM1487 -120 q0 51 -37.5 79.5 q-37.5 28.5 -99.5 28.5 q-59 0 -118.5 -25.5 q-59.5 -25.5 -95.5 -69.5 q17 -51 78.5 -86.5 q61.5 -35.5 134.5 -35.5 q63 0 100.5 28.5 q37.5 28.5 37.5 80.5 Z" /><glyph glyph-name="uni0222" unicode="&#x222;" d="M580 1158 q-83 0 -123 -35.5 q-40 -35.5 -40 -110.5 q0 -174 229 -174 q113 0 170.5 46.5 q57.5 46.5 57.5 155.5 q0 103 -41.5 147 q-41.5 44 -126.5 44 l0 198 q220 0 338.5 -97 q118.5 -97 118.5 -277 q0 -233 -236 -312 l0 -4 q137 -29 204 -116 q67 -87 67 -226 q0 -199 -143 -308 q-143 -109 -407 -109 q-265 0 -408 110 q-143 110 -143 305 q0 136 69 225 q69 89 198 117 l0 4 q-120 36 -177 112.5 q-57 76.5 -57 178.5 q0 152 118.5 238.5 q118.5 86.5 331.5 86.5 l0 -199 ZM907 420 q0 221 -266 221 q-124 0 -189.5 -57 q-65.5 -57 -65.5 -168 q0 -123 65 -180.5 q65 -57.5 200 -57.5 q132 0 194 57 q62 57 62 185 Z" /><glyph glyph-name="uni0223" unicode="&#x223;" d="M641 -20 q-260 0 -408.5 115 q-148.5 115 -148.5 317 q0 141 69.5 235 q69.5 94 201.5 122 l0 4 q-115 47 -175.5 132 q-60.5 85 -60.5 198 q0 258 298 386 l106 -152 q-68 -56 -93 -106 q-25 -50 -25 -123 q0 -127 62.5 -183.5 q62.5 -56.5 178.5 -56.5 q112 0 171.5 56.5 q59.5 56.5 59.5 183.5 q0 72 -25 123 q-25 51 -93 106 l106 152 q298 -128 298 -386 q0 -113 -60 -198 q-60 -85 -176 -132 l0 -4 q132 -28 201.5 -122 q69.5 -94 69.5 -235 q0 -202 -149 -317 q-149 -115 -408 -115 ZM641 178 q266 0 266 257 q0 117 -68 176.5 q-68 59.5 -198 59.5 q-129 0 -197.5 -59 q-68.5 -59 -68.5 -177 q0 -257 266 -257 Z" /><glyph glyph-name="uni0224" unicode="&#x224;" d="M879 231 q154 0 244 -72 q90 -72 90 -204 q0 -106 -42 -232 l-227 33 q31 83 31 134 q0 110 -133 110 l-781 0 l0 209 l762 969 l-686 0 l0 231 l1014 0 l0 -205 l-762 -973 l490 0 Z" /><glyph glyph-name="uni0225" unicode="&#x225;" d="M68 0 l0 199 l540 680 l-499 0 l0 203 l809 0 l0 -201 l-537 -677 l278 0 q334 0 334 -249 q0 -106 -35 -232 l-221 33 q31 83 31 134 q0 110 -133 110 l-567 0 Z" /><glyph glyph-name="uni0234" unicode="&#x234;" d="M424 1484 l0 -1373 q115 81 259 81 q168 0 262 -83.5 q94 -83.5 94 -222.5 q0 -143 -103.5 -227 q-103.5 -84 -274.5 -84 q-102 0 -194 32 q-92 32 -189 108 l-112 -134 l-168 151 q49 71 173 200 q-28 74 -28 201 l0 1351 l281 0 ZM803 -120 q0 51 -37.5 79.5 q-37.5 28.5 -99.5 28.5 q-59 0 -118.5 -25.5 q-59.5 -25.5 -95.5 -69.5 q17 -51 78.5 -86.5 q61.5 -35.5 134.5 -35.5 q63 0 100.5 28.5 q37.5 28.5 37.5 80.5 Z" /><glyph glyph-name="uni0235" unicode="&#x235;" d="M844 607 q0 285 -193 285 q-102 0 -164.5 -87.5 q-62.5 -87.5 -62.5 -224.5 l0 -580 l-281 0 l0 840 q0 138 -8 242 l268 0 q3 -19 8 -101.5 q5 -82.5 5 -113.5 l4 0 q57 124 143 180 q86 56 205 56 q172 0 264 -106 q92 -106 92 -310 l0 -572 q58 42 114 59.5 q56 17.5 125 17.5 q168 0 262 -83.5 q94 -83.5 94 -222.5 q0 -143 -103.5 -227 q-103.5 -84 -274.5 -84 q-70 0 -126.5 14 q-56.5 14 -105.5 38 q-49 24 -131 88 l-112 -134 l-168 151 q49 71 173 200 q-27 71 -27 201 l0 474 ZM1483 -120 q0 51 -37.5 79.5 q-37.5 28.5 -99.5 28.5 q-116 0 -194 -95 q18 -55 71.5 -88.5 q53.5 -33.5 121.5 -33.5 q63 0 100.5 28.5 q37.5 28.5 37.5 80.5 Z" /><glyph glyph-name="uni0236" unicode="&#x236;" d="M440 541 q61 44 121 62.5 q60 18.5 143 18.5 q154 0 243 -84.5 q89 -84.5 89 -221.5 q0 -141 -99 -226 q-99 -85 -254 -85 q-80 0 -142.5 14 q-62.5 14 -114 39 q-51.5 25 -131.5 87 l-112 -134 l-168 151 q49 71 173 200 q-26 69 -26 165 l0 365 l-137 0 l0 190 l151 0 l88 254 l176 0 l0 -254 l205 0 l0 -190 l-205 0 l0 -351 ZM800 310 q0 51 -35 79.5 q-35 28.5 -85 28.5 q-133 0 -211 -95 q18 -55 73 -88.5 q55 -33.5 135 -33.5 q53 0 88 29.5 q35 29.5 35 79.5 Z" /><glyph glyph-name="j.dotless" unicode="&#x237;" d="M138 -425 q-100 0 -170 9 l0 198 l51 -4 q72 0 98.5 31.5 q26.5 31.5 26.5 130.5 l0 1142 l281 0 l0 -1210 q0 -143 -72.5 -220 q-72.5 -77 -214.5 -77 Z" /><glyph glyph-name="uni0238" unicode="&#x238;" d="M1860 545 q0 -268 -107.5 -416.5 q-107.5 -148.5 -307.5 -148.5 q-118 0 -206 51.5 q-88 51.5 -130 142.5 l-2 0 l0 -174 l-261 0 l0 176 l-4 0 q-43 -94 -131.5 -145 q-88.5 -51 -222.5 -51 q-189 0 -292 147.5 q-103 147.5 -103 412.5 q0 269 108.5 415.5 q108.5 146.5 307.5 146.5 q115 0 198.5 -48 q83.5 -48 128.5 -143 l2 0 l-2 178 l0 395 l281 0 l0 -414 l-4 -176 l4 0 q95 208 346 208 q192 0 294.5 -145.5 q102.5 -145.5 102.5 -411.5 ZM840 547 q0 175 -58.5 269.5 q-58.5 94.5 -172.5 94.5 q-113 0 -168 -91.5 q-55 -91.5 -55 -279.5 q0 -368 221 -368 q111 0 172 97.5 q61 97.5 61 277.5 ZM1567 545 q0 184 -54 273 q-54 89 -167 89 q-114 0 -173.5 -95.5 q-59.5 -95.5 -59.5 -275.5 q0 -172 58.5 -268 q58.5 -96 172.5 -96 q223 0 223 373 Z" /><glyph glyph-name="uni0239" unicode="&#x239;" d="M84 540 q0 268 109.5 415.5 q109.5 147.5 308.5 147.5 q122 0 208 -51.5 q86 -51.5 129 -143.5 l1 174 l258 0 l1 -176 q45 96 135 147.5 q90 51.5 221 51.5 q188 0 292.5 -145 q104.5 -145 104.5 -414 q0 -271 -108.5 -418.5 q-108.5 -147.5 -306.5 -147.5 q-116 0 -201.5 51 q-85.5 51 -126.5 141 l-6 0 q6 -30 6 -182 l0 -415 l-280 0 l0 450 q0 95 5 155 l-2 0 q-93 -200 -353 -200 q-189 0 -292 147.5 q-103 147.5 -103 412.5 ZM1559 546 q0 364 -223 364 q-112 0 -171.5 -98 q-59.5 -98 -59.5 -274 q0 -175 59 -270.5 q59 -95.5 170 -95.5 q225 0 225 374 ZM831 546 q0 173 -58 268.5 q-58 95.5 -171 95.5 q-225 0 -225 -370 q0 -368 223 -368 q110 0 170.5 97.5 q60.5 97.5 60.5 276.5 Z" /><glyph glyph-name="uni023A" unicode="&#x23a;" d="M1133 0 l-125 360 l-320 0 l-223 -414 l-163 0 l29 54 l-280 0 l514 1409 l348 0 l71 -196 l146 271 l163 0 l-243 -452 l375 -1032 l-292 0 ZM537 582 l107 0 l182 338 l-23 67 l-43 136 l-21 69 l-6 -22 q-10 -36 -24 -82 q-14 -46 -172 -506 ZM889 734 l-82 -152 l135 0 l-53 152 ZM373 78 l151 282 l-53 0 l-98 -282 Z" /><glyph glyph-name="uni023B" unicode="&#x23b;" d="M795 212 q127 0 220 63 q93 63 151 205 l257 -97 q-81 -202 -242 -302.5 q-161 -100.5 -386 -100.5 q-188 0 -327 58 l-53 -92 l-163 0 l92 161 q-133 97 -196.5 253 q-63.5 156 -63.5 351 q0 347 179 533 q179 186 519 186 q168 0 291 -45 l57 99 l163 0 l-93 -163 q144 -99 205 -283 l-260 -71 q-24 74 -76 125 l-477 -836 q83 -44 203 -44 ZM381 711 q0 -235 100 -364 l469 822 q-72 29 -162 29 q-200 0 -303.5 -124 q-103.5 -124 -103.5 -363 Z" /><glyph glyph-name="uni023C" unicode="&#x23c;" d="M594 -20 q-115 0 -208 33 l-214 -438 l-163 0 l249 510 q-178 142 -178 450 q0 268 135 417.5 q135 149.5 383 149.5 q79 0 147 -17 l195 399 l163 0 l-222 -455 q154 -97 190 -288 l-283 -14 q-5 35 -20 71 l-287 -590 q46 -36 115 -36 q80 0 134 50.5 q54 50.5 67 150.5 l282 -13 q-15 -111 -79 -198 q-64 -87 -168 -134.5 q-104 -47.5 -238 -47.5 ZM375 546 q0 -107 18 -183 l262 537 q-29 9 -63 9 q-217 0 -217 -363 Z" /><glyph glyph-name="uni023D" unicode="&#x23d;" d="M137 0 l0 653 l-127 0 l0 203 l127 0 l0 553 l295 0 l0 -553 l366 0 l0 -203 l-366 0 l0 -425 l756 0 l0 -228 l-1051 0 Z" /><glyph glyph-name="uni023E" unicode="&#x23e;" d="M1022 1181 l-249 -377 l0 -804 l-295 0 l0 358 l-273 -412 l-163 0 l436 658 l0 577 l-455 0 l0 228 l987 0 l50 75 l163 0 l-50 -75 l56 0 l0 -228 l-207 0 ZM773 1050 l86 131 l-86 0 l0 -131 Z" /><glyph glyph-name="uni023F" unicode="&#x23f;" d="M79 170 l163 151 q55 -70 139 -112.5 q84 -42.5 190 -42.5 q117 0 171.5 29.5 q54.5 29.5 54.5 94.5 q0 52 -43.5 82.5 q-43.5 30.5 -147.5 51.5 q-228 45 -315 85.5 q-87 40.5 -131.5 105 q-44.5 64.5 -44.5 160.5 q0 155 119.5 241.5 q119.5 86.5 338.5 86.5 q193 0 310.5 -75 q117.5 -75 146.5 -217 l-249 -26 q-12 66 -59 98.5 q-47 32.5 -149 32.5 q-100 0 -150 -25.5 q-50 -25.5 -50 -85.5 q0 -48 38.5 -75.5 q38.5 -27.5 128.5 -45.5 q258 -54 342.5 -96 q84.5 -42 128.5 -108 q44 -66 44 -164 q0 -157 -128.5 -246.5 q-128.5 -89.5 -355.5 -89.5 q-29 0 -39 1 l56 -65 q63 -74 107.5 -104.5 q44.5 -30.5 102.5 -30.5 q19 0 57.5 3.5 q38.5 3.5 56.5 8.5 l0 -201 q-87 -17 -151 -17 q-82 0 -149.5 31 q-67.5 31 -130.5 90.5 q-63 59.5 -187 227.5 q-79 104 -179 205 q-21 20 -36 41 Z" /><glyph glyph-name="uni0240" unicode="&#x240;" d="M68 0 l0 199 l540 680 l-499 0 l0 203 l809 0 l0 -201 l-537 -676 q66 -14 129 -65 q63 -51 143 -156 q76 -100 132.5 -142.5 q56.5 -42.5 113.5 -42.5 q40 0 98 12 l0 -219 q-87 -17 -151 -17 q-61 0 -112 21.5 q-51 21.5 -96.5 59 q-45.5 37.5 -122.5 132.5 l-63 78 q-111 134 -230 134 l-154 0 Z" /><glyph glyph-name="uni0241" unicode="&#x241;" d="M590 546 q165 0 255.5 89.5 q90.5 89.5 90.5 256.5 q0 145 -77.5 225.5 q-77.5 80.5 -232.5 80.5 q-125 0 -203 -54.5 q-78 -54.5 -111 -176.5 l-260 71 q58 188 206 290 q148 102 368 102 q286 0 446.5 -145.5 q160.5 -145.5 160.5 -397.5 q0 -134 -56.5 -251.5 q-56.5 -117.5 -160.5 -197 q-104 -79.5 -240 -106.5 l0 -332 l-295 0 l0 559 q57 -13 109 -13 Z" /><glyph glyph-name="uni0242" unicode="&#x242;" d="M929 674 q0 -140 -75 -237.5 q-75 -97.5 -221 -142.5 l0 -294 l-281 0 l0 428 q159 5 220.5 65.5 q61.5 60.5 61.5 187.5 q0 111 -35 169.5 q-35 58.5 -119 58.5 q-66 0 -108.5 -49.5 q-42.5 -49.5 -51.5 -132.5 l-277 14 q26 162 147 261.5 q121 99.5 298 99.5 q210 0 325.5 -112.5 q115.5 -112.5 115.5 -315.5 Z" /><glyph glyph-name="uni0243" unicode="&#x243;" d="M0 520 l137 0 l0 889 l645 0 q259 0 391 -90 q132 -90 132 -264 q0 -120 -66.5 -202.5 q-66.5 -82.5 -202.5 -111.5 q171 -20 260.5 -107.5 q89.5 -87.5 89.5 -231.5 q0 -192 -144 -297 q-144 -105 -400 -105 l-705 0 l0 324 l-137 0 l0 196 ZM1090 425 q0 99 -72 151 q-72 52 -212 52 l-374 0 l0 -108 l263 0 l0 -196 l-263 0 l0 -110 l385 0 q273 0 273 211 ZM1008 1015 q0 95 -61 135 q-61 40 -179 40 l-336 0 l0 -349 l338 0 q125 0 181.5 43.5 q56.5 43.5 56.5 130.5 Z" /><glyph glyph-name="uni0244" unicode="&#x244;" d="M20 878 l113 0 l0 531 l295 0 l0 -531 l621 0 l0 531 l295 0 l0 -531 l115 0 l0 -203 l-115 0 l0 -132 q0 -269 -161 -416 q-161 -147 -460 -147 q-286 0 -438 139.5 q-152 139.5 -152 408.5 l0 147 l-113 0 l0 203 ZM731 211 q155 0 236.5 89.5 q81.5 89.5 81.5 260.5 l0 114 l-621 0 l0 -124 q0 -340 303 -340 Z" /><glyph glyph-name="uni0246" unicode="&#x246;" d="M478 0 l-53 -110 l-163 0 l53 110 l-178 0 l0 1409 l866 0 l47 95 l163 0 l-47 -95 l79 0 l0 -228 l-190 0 l-173 -354 l302 0 l0 -228 l-413 0 l-181 -371 l696 0 l0 -228 l-808 0 ZM432 827 l287 0 l173 354 l-460 0 l0 -354 ZM432 238 l176 361 l-176 0 l0 -361 Z" /><glyph glyph-name="uni0247" unicode="&#x247;" d="M586 -20 q-114 0 -201 31 l-213 -436 l-163 0 l247 507 q-176 143 -176 464 q0 268 133 412 q133 144 377 144 q83 0 154 -20 l196 402 l163 0 l-228 -467 q194 -148 194 -522 l0 -8 l-452 0 l-139 -284 q49 -35 122 -35 q149 0 188 129 l265 -23 q-57 -148 -177 -221 q-120 -73 -290 -73 ZM586 925 q-99 0 -152.5 -69 q-53.5 -69 -56.5 -193 l163 0 l121 249 q-37 13 -75 13 ZM797 663 q-6 81 -28 135 l-66 -135 l94 0 ZM375 487 q0 -80 14 -134 l65 134 l-79 0 Z" /><glyph glyph-name="uni0248" unicode="&#x248;" d="M524 -20 q-219 0 -336.5 95 q-117.5 95 -156.5 307 l293 43 q18 -109 67 -161.5 q49 -52.5 135 -52.5 q88 0 133.5 59 q45.5 59 45.5 169 l0 236 l-241 0 l0 203 l241 0 l0 300 l-281 0 l0 231 l575 0 l0 -531 l130 0 l0 -203 l-130 0 l0 -229 q0 -220 -125 -343 q-125 -123 -350 -123 Z" /><glyph glyph-name="uni0249" unicode="&#x249;" d="M138 -425 q-100 0 -170 9 l0 198 l51 -4 q72 0 98.5 31.5 q26.5 31.5 26.5 130.5 l0 515 l-122 0 l0 203 l122 0 l0 424 l281 0 l0 -424 l122 0 l0 -203 l-122 0 l0 -583 q0 -143 -72.5 -220 q-72.5 -77 -214.5 -77 ZM144 1277 l0 207 l281 0 l0 -207 l-281 0 Z" /><glyph glyph-name="uni024A" unicode="&#x24a;" d="M1406 -32 q0 -79 26.5 -117.5 q26.5 -38.5 87.5 -38.5 q30 0 98 13 l0 -230 q-38 -9 -95.5 -14.5 q-57.5 -5.5 -90.5 -5.5 q-168 0 -237.5 87.5 q-69.5 87.5 -69.5 285.5 l0 129 q-158 -97 -369 -97 q-206 0 -358 88 q-152 88 -233 251 q-81 163 -81 382 q0 341 189 535 q189 194 522 194 q219 0 383 -99 l164 78 l64 0 l0 -1441 ZM759 200 q109 0 200.5 25.5 q91.5 25.5 151.5 72.5 l0 811 q-61 46 -145 67.5 q-84 21.5 -171 21.5 q-196 0 -305 -131 q-109 -131 -109 -366 q0 -226 103 -363.5 q103 -137.5 275 -137.5 Z" /><glyph glyph-name="uni024B" unicode="&#x24b;" d="M831 911 q0 32 5.5 92 q5.5 60 11.5 79 l266 0 q-6 -105 -6 -250 l0 -864 q0 -79 26.5 -117.5 q26.5 -38.5 87.5 -38.5 q30 0 98 13 l0 -230 q-38 -9 -95.5 -14.5 q-57.5 -5.5 -90.5 -5.5 q-166 0 -235.5 86 q-69.5 86 -69.5 287 l0 228 l-4 0 q-91 -196 -346 -196 q-189 0 -292 147.5 q-103 147.5 -103 412.5 q0 269 108.5 415.5 q108.5 146.5 307.5 146.5 q115 0 198.5 -48 q83.5 -48 128.5 -143 l4 0 ZM831 547 q0 175 -58.5 269.5 q-58.5 94.5 -172.5 94.5 q-113 0 -168 -91.5 q-55 -91.5 -55 -279.5 q0 -368 221 -368 q111 0 172 97.5 q61 97.5 61 277.5 Z" /><glyph glyph-name="uni024C" unicode="&#x24c;" d="M1105 0 l-327 535 l-256 0 l0 -535 l-295 0 l0 535 l-227 0 l0 229 l227 0 l0 645 l614 0 q252 0 389 -108.5 q137 -108.5 137 -311.5 q0 -148 -84 -255.5 q-84 -107.5 -227 -141.5 l381 -592 l-332 0 ZM1070 977 q0 203 -260 203 l-288 0 l0 -416 l296 0 q124 0 188 56 q64 56 64 157 Z" /><glyph glyph-name="uni024D" unicode="&#x24d;" d="M27 568 l116 0 l0 260 q0 150 -8 254 l268 0 q3 -18 8 -109.5 q5 -91.5 5 -121.5 l4 0 q41 114 73 160.5 q32 46.5 76 69 q44 22.5 110 22.5 q54 0 87 -15 l0 -235 q-68 15 -120 15 q-99 0 -156.5 -75.5 q-57.5 -75.5 -64.5 -224.5 l153 0 l0 -203 l-154 0 l0 -365 l-281 0 l0 365 l-116 0 l0 203 Z" /><glyph glyph-name="uni024E" unicode="&#x24e;" d="M1247 1268 l119 0 l0 -203 l-241 0 l-294 -487 l0 -578 l-294 0 l0 578 l-295 487 l-242 0 l0 203 l120 0 l-85 141 l309 0 l80 -141 l519 0 l81 141 l309 0 l-86 -141 ZM682 813 l144 252 l-287 0 l143 -252 Z" /><glyph glyph-name="uni024F" unicode="&#x24f;" d="M1014 778 l108 0 l0 -203 l-185 0 l-237 -632 q-77 -205 -172 -286.5 q-95 -81.5 -245 -81.5 q-101 0 -177 13 l0 200 q53 -8 97 -8 q88 0 137 41.5 q49 41.5 86 141.5 l18 48 l-226 564 l-201 0 l0 203 l120 0 l-121 304 l297 0 l102 -304 l323 0 l96 304 l294 0 l-114 -304 ZM584 241 l91 334 l-192 0 l101 -334 Z" /><glyph glyph-name="uni0250" unicode="&#x250;" d="M742 1102 q157 0 245 -85.5 q88 -85.5 88 -240.5 q0 -168 -109.5 -256 q-109.5 -88 -317.5 -90 l-233 -4 l0 -55 q0 -106 37 -157.5 q37 -51.5 121 -51.5 q78 0 114.5 35.5 q36.5 35.5 45.5 117.5 l293 -14 q-27 -158 -144.5 -239.5 q-117.5 -81.5 -320.5 -81.5 q-205 0 -316 101 q-111 101 -111 287 l0 394 q0 91 -20.5 125.5 q-20.5 34.5 -68.5 34.5 q-32 0 -62 -6 l0 152 q25 6 45 11 q20 5 40 8 q20 3 42.5 5 q22.5 2 52.5 2 q106 0 156.5 -52 q50.5 -52 60.5 -153 l6 0 q118 213 356 213 ZM415 581 l144 2 q98 4 139 21.5 q41 17.5 62.5 53.5 q21.5 36 21.5 96 q0 77 -35.5 114.5 q-35.5 37.5 -94.5 37.5 q-66 0 -120.5 -36 q-54.5 -36 -85.5 -99.5 q-31 -63.5 -31 -134.5 l0 -55 Z" /><glyph glyph-name="uni0251" unicode="&#x251;" d="M831 911 q0 32 5.5 92 q5.5 60 11.5 79 l266 0 q-6 -105 -6 -250 l0 -596 q0 -100 8 -236 l-272 0 q-6 21 -10.5 84 q-4.5 63 -4.5 92 l-4 0 q-91 -196 -346 -196 q-189 0 -292 147.5 q-103 147.5 -103 412.5 q0 269 108.5 415.5 q108.5 146.5 307.5 146.5 q115 0 198.5 -48 q83.5 -48 128.5 -143 l4 0 ZM831 547 q0 175 -58.5 269.5 q-58.5 94.5 -172.5 94.5 q-113 0 -168 -91.5 q-55 -91.5 -55 -279.5 q0 -368 221 -368 q111 0 172 97.5 q61 97.5 61 277.5 Z" /><glyph glyph-name="uni0252" unicode="&#x252;" d="M418 171 q0 -32 -5.5 -92 q-5.5 -60 -11.5 -79 l-266 0 q6 105 6 250 l0 596 q0 100 -8 236 l272 0 q4 -15 9.5 -75.5 q5.5 -60.5 5.5 -100.5 l4 0 q91 196 346 196 q189 0 292 -147.5 q103 -147.5 103 -412.5 q0 -269 -108.5 -415.5 q-108.5 -146.5 -307.5 -146.5 q-115 0 -198.5 48 q-83.5 48 -128.5 143 l-4 0 ZM418 535 q0 -175 58.5 -269.5 q58.5 -94.5 172.5 -94.5 q113 0 168 91.5 q55 91.5 55 279.5 q0 368 -221 368 q-111 0 -172 -97.5 q-61 -97.5 -61 -277.5 Z" /><glyph glyph-name="uni0253" unicode="&#x253;" d="M1167 545 q0 -268 -107.5 -416.5 q-107.5 -148.5 -307.5 -148.5 q-116 0 -200.5 50.5 q-84.5 50.5 -127.5 143.5 l-2 0 q0 -35 -4.5 -96 q-4.5 -61 -9.5 -78 l-273 0 q8 93 8 247 l0 956 q0 137 88 213.5 q88 76.5 244 76.5 q26 0 92 -5 q66 -5 101 -12 l0 -211 q-18 5 -58.5 8.5 q-40.5 3.5 -56.5 3.5 q-129 0 -129 -125 l0 -82 l-4 -176 l4 0 q95 208 346 208 q192 0 294.5 -145.5 q102.5 -145.5 102.5 -411.5 ZM874 545 q0 184 -54 273 q-54 89 -167 89 q-114 0 -173.5 -95.5 q-59.5 -95.5 -59.5 -275.5 q0 -172 58.5 -268 q58.5 -96 172.5 -96 q223 0 223 373 Z" /><glyph glyph-name="uni0254" unicode="&#x254;" d="M545 -20 q-133 0 -237.5 47.5 q-104.5 47.5 -168.5 134.5 q-64 87 -79 198 l282 13 q13 -100 67 -150.5 q54 -50.5 134 -50.5 q221 0 221 374 q0 363 -217 363 q-88 0 -136 -49.5 q-48 -49.5 -60 -132.5 l-283 14 q31 169 157 265 q126 96 316 96 q248 0 383 -149.5 q135 -149.5 135 -417.5 q0 -262 -134 -408.5 q-134 -146.5 -380 -146.5 Z" /><glyph glyph-name="uni0255" unicode="&#x255;" d="M176 -62 l-168 151 q58 89 132 172 q-60 118 -60 274 q0 268 135 417.5 q135 149.5 383 149.5 q191 0 316 -96 q125 -96 157 -265 l-283 -14 q-12 83 -60 132.5 q-48 49.5 -136 49.5 q-217 0 -217 -363 l2 -70 q169 115 335 115 q179 0 273 -71.5 q94 -71.5 94 -203.5 q0 -157 -123.5 -246.5 q-123.5 -89.5 -338.5 -89.5 q-190 0 -333 107 q-47 -61 -108 -149 ZM833 286 q0 99 -163 99 q-108 0 -230 -118 q65 -95 206 -95 q187 0 187 114 Z" /><glyph glyph-name="uni0256" unicode="&#x256;" d="M1150 -425 q-166 0 -243.5 86.5 q-77.5 86.5 -77.5 261.5 l0 253 l-4 0 q-91 -196 -346 -196 q-189 0 -292 147.5 q-103 147.5 -103 412.5 q0 269 108.5 415.5 q108.5 146.5 307.5 146.5 q115 0 198.5 -48 q83.5 -48 128.5 -143 l2 0 l-2 178 l0 395 l281 0 l0 -1568 q0 -125 129 -125 q47 0 105 12 l0 -211 q-27 -5 -83 -11 q-56 -6 -109 -6 ZM831 547 q0 175 -58.5 269.5 q-58.5 94.5 -172.5 94.5 q-113 0 -168 -91.5 q-55 -91.5 -55 -279.5 q0 -368 221 -368 q111 0 172 97.5 q61 97.5 61 277.5 Z" /><glyph glyph-name="uni0257" unicode="&#x257;" d="M1108 236 q0 -100 8 -236 l-272 0 q-6 21 -10.5 84 q-4.5 63 -4.5 92 l-4 0 q-91 -196 -346 -196 q-189 0 -292 147.5 q-103 147.5 -103 412.5 q0 269 108.5 415.5 q108.5 146.5 307.5 146.5 q115 0 198.5 -48 q83.5 -48 128.5 -143 l2 0 l-2 178 l0 114 q0 137 88 213.5 q88 76.5 244 76.5 q26 0 92 -5 q66 -5 101 -12 l0 -211 q-18 5 -58.5 8.5 q-40.5 3.5 -56.5 3.5 q-129 0 -129 -125 l0 -916 ZM831 547 q0 175 -58.5 269.5 q-58.5 94.5 -172.5 94.5 q-113 0 -168 -91.5 q-55 -91.5 -55 -279.5 q0 -368 221 -368 q111 0 172 97.5 q61 97.5 61 277.5 Z" /><glyph glyph-name="uni0258" unicode="&#x258;" d="M553 -20 q-172 0 -291 73 q-119 73 -176 221 l265 23 q39 -129 188 -129 q108 0 166.5 80.5 q58.5 80.5 58.5 238.5 l-694 0 l0 8 q0 298 123 452.5 q123 154.5 356 154.5 q244 0 377 -144.5 q133 -144.5 133 -411.5 q0 -275 -130.5 -420.5 q-130.5 -145.5 -375.5 -145.5 ZM553 925 q-93 0 -148 -65.5 q-55 -65.5 -63 -196.5 l420 0 q-4 125 -57 193.5 q-53 68.5 -152 68.5 Z" /><glyph glyph-name="uni0259" unicode="&#x259;" d="M563 1102 q244 0 375 -144.5 q131 -144.5 131 -421.5 q0 -268 -133 -412 q-133 -144 -377 -144 q-233 0 -356 154.5 q-123 154.5 -123 452.5 l0 8 l694 0 q0 158 -58.5 238.5 q-58.5 80.5 -166.5 80.5 q-149 0 -188 -129 l-265 23 q115 294 467 294 ZM563 157 q99 0 152.5 69 q53.5 69 56.5 193 l-420 0 q8 -131 63 -196.5 q55 -65.5 148 -65.5 Z" /><glyph glyph-name="uni025A" unicode="&#x25a;" d="M563 1102 q183 0 307 -85.5 q124 -85.5 172 -259.5 l190 38 l28 -137 q16 -77 43.5 -106 q27.5 -29 90.5 -29 q42 0 75.5 11.5 q33.5 11.5 71.5 31.5 l69 -180 q-124 -56 -254 -56 q-115 0 -183 53.5 q-68 53.5 -105 176.5 l0 -24 q0 -267 -132.5 -411.5 q-132.5 -144.5 -376.5 -144.5 q-233 0 -356 154.5 q-123 154.5 -123 452.5 l0 8 l686 101 q-34 218 -217 218 q-149 0 -188 -129 l-265 23 q115 294 467 294 ZM563 157 q220 0 220 343 l-432 -65 q21 -278 212 -278 Z" /><glyph glyph-name="uni025B" unicode="&#x25b;" d="M525 -20 q-218 0 -337 83 q-119 83 -119 231 q0 108 74 181 q74 73 192 89 l0 4 q-111 19 -172 82.5 q-61 63.5 -61 160.5 q0 128 111.5 209.5 q111.5 81.5 289.5 81.5 q182 0 297 -77 q115 -77 141 -224 l-237 -22 q-8 68 -57 106 q-49 38 -127 38 q-72 0 -111 -33.5 q-39 -33.5 -39 -93.5 q0 -77 67 -112.5 q67 -35.5 216 -35.5 l0 -177 q-161 0 -228 -38 q-67 -38 -67 -122 q0 -64 44.5 -103.5 q44.5 -39.5 124.5 -39.5 q72 0 126 44.5 q54 44.5 71 119.5 l241 -44 q-41 -148 -151 -228 q-110 -80 -289 -80 Z" /><glyph glyph-name="uni025C" unicode="&#x25c;" d="M493 -20 q-179 0 -289 80 q-110 80 -151 228 l241 44 q17 -74 70.5 -119 q53.5 -45 126.5 -45 q80 0 124.5 39.5 q44.5 39.5 44.5 103.5 q0 84 -67 122 q-67 38 -228 38 l0 177 q150 0 216.5 35.5 q66.5 35.5 66.5 112.5 q0 60 -39 93.5 q-39 33.5 -111 33.5 q-79 0 -127.5 -38.5 q-48.5 -38.5 -56.5 -105.5 l-237 22 q25 147 140.5 224 q115.5 77 297.5 77 q180 0 290.5 -77.5 q110.5 -77.5 110.5 -203.5 q0 -98 -62.5 -163 q-62.5 -65 -185.5 -91 l0 -2 q128 -14 204.5 -85.5 q76.5 -71.5 76.5 -175.5 q0 -151 -120.5 -237.5 q-120.5 -86.5 -335.5 -86.5 Z" /><glyph glyph-name="uni025D" unicode="&#x25d;" d="M483 -20 q-179 0 -289 80 q-110 80 -151 228 l241 44 q17 -74 70.5 -119 q53.5 -45 126.5 -45 q80 0 124.5 39.5 q44.5 39.5 44.5 103.5 q0 84 -67 122 q-67 38 -228 38 l0 177 q150 0 216.5 35.5 q66.5 35.5 66.5 112.5 q0 60 -39 93.5 q-39 33.5 -111 33.5 q-79 0 -127.5 -38.5 q-48.5 -38.5 -56.5 -105.5 l-237 22 q25 147 140.5 224 q115.5 77 297.5 77 q133 0 227.5 -42.5 q94.5 -42.5 139.5 -115.5 l154 29 l22 -120 q28 -150 137 -150 q42 0 75.5 11.5 q33.5 11.5 71.5 31.5 l69 -180 q-124 -56 -254 -56 q-102 0 -172.5 48 q-70.5 48 -102.5 136 q-58 -93 -214 -127 l0 -2 q128 -14 204.5 -85.5 q76.5 -71.5 76.5 -175.5 q0 -151 -120.5 -237.5 q-120.5 -86.5 -335.5 -86.5 Z" /><glyph glyph-name="uni025E" unicode="&#x25e;" d="M628 923 q-125 0 -193 -94.5 q-68 -94.5 -68 -286.5 q0 -179 66.5 -276.5 q66.5 -97.5 187.5 -97.5 q80 0 124.5 39.5 q44.5 39.5 44.5 103.5 q0 84 -46.5 119.5 q-46.5 35.5 -178.5 35.5 l0 182 q118 0 165.5 34.5 q47.5 34.5 47.5 113.5 q0 60 -39 93.5 q-39 33.5 -111 33.5 ZM624 1102 q184 0 303 -79 q119 -79 119 -202 q0 -203 -228 -256 q125 -13 193 -79 q68 -66 68 -172 q0 -153 -124 -243.5 q-124 -90.5 -337 -90.5 q-252 0 -394 150 q-142 150 -142 412 q0 261 142 410.5 q142 149.5 400 149.5 Z" /><glyph glyph-name="uni025F" unicode="&#x25f;" d="M228 190 l0 892 l280 0 l0 -892 l158 0 l0 -190 l-158 0 l0 -136 q0 -147 -78 -218 q-78 -71 -237 -71 q-79 0 -178 16 l0 181 q41 -9 82 -9 q72 0 101.5 28.5 q29.5 28.5 29.5 100.5 l0 108 l-213 0 l0 190 l213 0 Z" /><glyph glyph-name="uni0260" unicode="&#x260;" d="M1108 33 q0 -231 -131 -349 q-131 -118 -381 -118 q-198 0 -318.5 75.5 q-120.5 75.5 -148.5 215.5 l281 33 q15 -65 64.5 -102 q49.5 -37 129.5 -37 q117 0 171 72 q54 72 54 214 l0 57 l2 107 l-2 0 q-93 -199 -348 -199 q-192 0 -294.5 143 q-102.5 143 -102.5 405 q0 265 107 409 q107 144 311 144 q236 0 327 -195 l5 0 l0 295 q0 138 86 214 q86 76 239 76 q26 0 92 -5 q66 -5 101 -12 l0 -211 q-18 5 -58.5 8.5 q-40.5 3.5 -56.5 3.5 q-129 0 -129 -125 l0 -1119 ZM831 556 q0 167 -59.5 260.5 q-59.5 93.5 -169.5 93.5 q-225 0 -225 -360 q0 -353 223 -353 q112 0 171.5 93.5 q59.5 93.5 59.5 265.5 Z" /><glyph glyph-name="uni0262" unicode="&#x262;" d="M858 357 l-202 0 l0 209 l471 0 l0 -454 q-122 -72 -237.5 -102 q-115.5 -30 -245.5 -30 q-264 0 -414 146.5 q-150 146.5 -150 408.5 q0 264 148 415.5 q148 151.5 400 151.5 q192 0 319 -87 q127 -87 169 -249 l-278 -39 q-24 164 -206 164 q-125 0 -191 -88.5 q-66 -88.5 -66 -256.5 q0 -176 71.5 -269 q71.5 -93 209.5 -93 q67 0 112.5 10.5 q45.5 10.5 89.5 33.5 l0 129 Z" /><glyph glyph-name="uni0263" unicode="&#x263;" d="M745 271 l67 -121 q98 -177 98 -278 q0 -146 -86.5 -225 q-86.5 -79 -245.5 -79 q-158 0 -247 81.5 q-89 81.5 -89 222.5 q0 58 32.5 146.5 q32.5 88.5 114.5 236.5 l-381 827 l297 0 l260 -615 l271 615 l294 0 l-385 -811 ZM658 -129 q0 49 -23.5 116.5 q-23.5 67.5 -63.5 137.5 q-86 -161 -86 -254 q0 -52 22 -81.5 q22 -29.5 64 -29.5 q42 0 64.5 29 q22.5 29 22.5 82 Z" /><glyph glyph-name="uni0264" unicode="&#x264;" d="M621 172 q37 0 60 24 q23 24 23 65 q0 35 -17.5 81.5 q-17.5 46.5 -65.5 122.5 q-49 -80 -66 -125.5 q-17 -45.5 -17 -78.5 q0 -41 22.5 -65 q22.5 -24 60.5 -24 ZM621 -20 q-310 0 -310 248 q0 60 25 130.5 q25 70.5 125 247.5 l-84 171 q-41 88 -130 88 q-80 0 -166 -71 l-71 198 q125 110 271 110 q185 0 268 -160 l73 -136 l71 136 q43 83 108.5 121.5 q65.5 38.5 159.5 38.5 q146 0 271 -110 l-71 -198 q-86 71 -166 71 q-89 0 -130 -88 l-84 -171 q74 -130 99 -184 q25 -54 38 -101.5 q13 -47.5 13 -92.5 q0 -248 -310 -248 Z" /><glyph glyph-name="uni0265" unicode="&#x265;" d="M408 1082 l0 -607 q0 -285 192 -285 q102 0 164.5 87.5 q62.5 87.5 62.5 224.5 l0 580 l281 0 l0 -1507 l-277 0 l0 610 q-46 -106 -137.5 -155.5 q-91.5 -49.5 -210.5 -49.5 q-172 0 -264 106 q-92 106 -92 309 l0 687 l281 0 Z" /><glyph glyph-name="uni0266" unicode="&#x266;" d="M420 866 q57 124 143 180 q86 56 205 56 q172 0 264 -106 q92 -106 92 -310 l0 -686 l-280 0 l0 606 q0 285 -193 285 q-102 0 -164.5 -87.5 q-62.5 -87.5 -62.5 -224.5 l0 -579 l-281 0 l0 1203 q0 137 88 213.5 q88 76.5 244 76.5 q26 0 92 -5 q66 -5 101 -12 l0 -211 q-18 5 -58.5 8.5 q-40.5 3.5 -56.5 3.5 q-129 0 -129 -125 l0 -73 q0 -109 -8 -213 l4 0 Z" /><glyph glyph-name="uni0267" unicode="&#x267;" d="M420 866 q57 124 143 180 q86 56 205 56 q172 0 264 -106 q92 -106 92 -310 l0 -763 q0 -177 -78.5 -262.5 q-78.5 -85.5 -242.5 -85.5 q-48 0 -106 5.5 q-58 5.5 -86 11.5 l0 211 q58 -12 105 -12 q128 0 128 125 l0 690 q0 285 -193 285 q-102 0 -164.5 -87.5 q-62.5 -87.5 -62.5 -224.5 l0 -579 l-281 0 l0 1203 q0 137 88 213.5 q88 76.5 244 76.5 q26 0 92 -5 q66 -5 101 -12 l0 -211 q-18 5 -58.5 8.5 q-40.5 3.5 -56.5 3.5 q-129 0 -129 -125 l0 -73 q0 -109 -8 -213 l4 0 Z" /><glyph glyph-name="uni0268" unicode="&#x268;" d="M22 658 l121 0 l0 424 l281 0 l0 -424 l123 0 l0 -203 l-123 0 l0 -455 l-281 0 l0 455 l-121 0 l0 203 ZM143 1277 l0 207 l281 0 l0 -207 l-281 0 Z" /><glyph glyph-name="uni0269" unicode="&#x269;" d="M108 1082 l281 0 l0 -746 q0 -63 27 -93.5 q27 -30.5 89 -30.5 q29 0 64 6 l0 -225 q-91 -13 -151 -13 q-163 0 -236.5 88 q-73.5 88 -73.5 275 l0 739 Z" /><glyph glyph-name="uni026A" unicode="&#x26a;" d="M274 874 l-206 0 l0 208 l694 0 l0 -208 l-207 0 l0 -666 l207 0 l0 -208 l-694 0 l0 208 l206 0 l0 666 Z" /><glyph glyph-name="uni026B" unicode="&#x26b;" d="M199 0 l0 731 q-42 -2 -56 -24.5 q-14 -22.5 -14 -77.5 l-129 0 q0 144 49 205 q49 61 150 67 l0 583 l281 0 l0 -705 q39 2 56 24 q17 22 17 79 l127 0 q0 -150 -47.5 -209 q-47.5 -59 -152.5 -64 l0 -609 l-281 0 Z" /><glyph glyph-name="uni026C" unicode="&#x26c;" d="M707 487 l-119 0 l0 -487 l-281 0 l0 488 l-18 0 q-120 0 -194.5 73 q-74.5 73 -74.5 185 q0 114 73.5 187 q73.5 73 190.5 73 l23 0 l0 478 l281 0 l0 -820 l119 0 l0 -177 ZM307 664 l0 164 l-18 0 q-96 0 -96 -80 q0 -84 96 -84 l18 0 Z" /><glyph glyph-name="uni026D" unicode="&#x26d;" d="M466 -425 q-165 0 -244 85.5 q-79 85.5 -79 262.5 l0 1561 l281 0 l0 -1568 q0 -125 129 -125 q47 0 105 12 l0 -211 q-27 -5 -83 -11 q-56 -6 -109 -6 Z" /><glyph glyph-name="uni026E" unicode="&#x26e;" d="M143 0 l0 1484 l281 0 l0 -402 l712 0 l0 -195 l-297 -366 q169 -29 263 -145.5 q94 -116.5 94 -298.5 q0 -233 -147.5 -368 q-147.5 -135 -393.5 -135 q-177 0 -302 68 q-125 68 -179 197 l257 60 q77 -139 231 -139 q130 0 189 73 q59 73 59 228 q0 147 -77.5 214 q-77.5 67 -254.5 67 l-25 0 l0 189 l279 348 l-408 0 l0 -879 l-281 0 Z" /><glyph glyph-name="uni026F" unicode="&#x26f;" d="M1041 1082 l0 -607 q0 -285 164 -285 q86 0 139 87 q53 87 53 225 l0 580 l281 0 l0 -840 q0 -87 2.5 -142.5 q2.5 -55.5 5.5 -99.5 l-268 0 q-3 20 -8 102 q-5 82 -5 113 l-4 0 q-52 -124 -129.5 -180 q-77.5 -56 -185.5 -56 q-248 0 -301 236 l-6 0 q-55 -126 -132 -181 q-77 -55 -196 -55 q-158 0 -241 107.5 q-83 107.5 -83 308.5 l0 687 l279 0 l0 -607 q0 -285 164 -285 q82 0 134.5 79.5 q52.5 79.5 57.5 219.5 l0 593 l279 0 Z" /><glyph glyph-name="uni0270" unicode="&#x270;" d="M1041 1082 l0 -607 q0 -285 164 -285 q86 0 139 87 q53 87 53 225 l0 580 l281 0 l0 -1507 l-273 0 l0 627 q-50 -115 -127.5 -169 q-77.5 -54 -191.5 -54 q-248 0 -301 236 l-6 0 q-55 -126 -132 -181 q-77 -55 -196 -55 q-158 0 -241 107.5 q-83 107.5 -83 308.5 l0 687 l279 0 l0 -607 q0 -285 164 -285 q86 0 139 85 q53 85 53 214 l0 593 l279 0 Z" /><glyph glyph-name="uni0271" unicode="&#x271;" d="M780 0 l0 607 q0 285 -164 285 q-85 0 -138.5 -87 q-53.5 -87 -53.5 -225 l0 -580 l-281 0 l0 840 q0 138 -8 242 l268 0 q3 -19 8 -101.5 q5 -82.5 5 -113.5 l4 0 q52 124 129.5 180 q77.5 56 185.5 56 q248 0 301 -236 l6 0 q51 123 129 179.5 q78 56.5 199 56.5 q158 0 241 -107.5 q83 -107.5 83 -308.5 l0 -764 q0 -177 -78.5 -262.5 q-78.5 -85.5 -242.5 -85.5 q-48 0 -106 5.5 q-58 5.5 -86 11.5 l0 211 q58 -12 105 -12 q129 0 129 125 l0 691 q0 285 -164 285 q-85 0 -138.5 -83 q-53.5 -83 -53.5 -216 l0 -593 l-279 0 Z" /><glyph glyph-name="uni0272" unicode="&#x272;" d="M143 840 q0 138 -8 242 l268 0 q3 -19 8 -101.5 q5 -82.5 5 -113.5 l4 0 q57 124 143 180 q86 56 205 56 q172 0 264 -106 q92 -106 92 -310 l0 -687 l-280 0 l0 607 q0 285 -193 285 q-102 0 -164.5 -87.5 q-62.5 -87.5 -62.5 -224.5 l0 -657 q0 -177 -79 -262.5 q-79 -85.5 -244 -85.5 q-48 0 -106 5.5 q-58 5.5 -86 11.5 l0 211 q58 -12 105 -12 q129 0 129 125 l0 924 Z" /><glyph glyph-name="uni0273" unicode="&#x273;" d="M844 607 q0 285 -193 285 q-102 0 -164.5 -87.5 q-62.5 -87.5 -62.5 -224.5 l0 -580 l-281 0 l0 840 q0 138 -8 242 l268 0 q3 -19 8 -101.5 q5 -82.5 5 -113.5 l4 0 q57 124 143 180 q86 56 205 56 q172 0 264 -106 q92 -106 92 -310 l0 -771 q0 -125 129 -125 q47 0 105 12 l0 -211 q-27 -5 -83 -11 q-56 -6 -109 -6 q-166 0 -244 86 q-78 86 -78 262 l0 684 Z" /><glyph glyph-name="uni0274" unicode="&#x274;" d="M1118 0 l-260 0 l-478 759 q10 -104 10 -206 l0 -553 l-250 0 l0 1082 l286 0 l452 -747 q-10 135 -10 217 l0 530 l250 0 l0 -1082 Z" /><glyph glyph-name="uni0275" unicode="&#x275;" d="M1171 542 q0 -263 -146 -412.5 q-146 -149.5 -404 -149.5 q-253 0 -397 150 q-144 150 -144 412 q0 261 144 410.5 q144 149.5 403 149.5 q265 0 404.5 -144.5 q139.5 -144.5 139.5 -415.5 ZM631 909 q-226 0 -257 -277 l504 0 q-29 277 -247 277 ZM618 172 q223 0 257 262 l-499 0 q19 -130 81.5 -196 q62.5 -66 160.5 -66 Z" /><glyph glyph-name="uni0276" unicode="&#x276;" d="M901 53 q-119 -73 -280 -73 q-253 0 -397 150 q-144 150 -144 412 q0 261 144 410.5 q144 149.5 403 149.5 q157 0 274 -67 l0 47 l713 0 l0 -203 l-445 0 l0 -223 l405 0 l0 -203 l-405 0 l0 -248 l445 0 l0 -205 l-713 0 l0 53 ZM887 542 q0 367 -256 367 q-256 0 -256 -367 q0 -181 62.5 -275.5 q62.5 -94.5 180.5 -94.5 q269 0 269 370 Z" /><glyph glyph-name="uni0277" unicode="&#x277;" d="M865 906 q-253 0 -377.5 -98 q-124.5 -98 -124.5 -304 q0 -176 47 -254 q47 -78 144 -78 q86 0 134.5 78.5 q48.5 78.5 48.5 219.5 l0 187 l258 0 l0 -187 q0 -142 47 -220 q47 -78 132 -78 q193 0 193 332 q0 212 -120 307 q-120 95 -382 95 ZM865 1102 q387 0 585.5 -151 q198.5 -151 198.5 -447 q0 -254 -112.5 -389 q-112.5 -135 -322.5 -135 q-276 0 -347 238 l-4 0 q-71 -238 -347 -238 q-207 0 -321 138 q-114 138 -114 386 q0 598 784 598 Z" /><glyph glyph-name="uni0278" unicode="&#x278;" d="M632 -425 l0 405 q-254 8 -403 157 q-149 149 -149 405 q0 259 145 405.5 q145 146.5 407 154.5 l0 382 l273 0 l0 -382 q262 -8 407 -154.5 q145 -146.5 145 -405.5 q0 -256 -149 -405.5 q-149 -149.5 -403 -156.5 l0 -405 l-273 0 ZM1168 542 q0 174 -63 264.5 q-63 90.5 -200 102.5 l0 -737 q127 9 195 104 q68 95 68 266 ZM369 542 q0 -173 68.5 -267 q68.5 -94 194.5 -103 l0 737 q-136 -11 -199.5 -101.5 q-63.5 -90.5 -63.5 -265.5 Z" /><glyph glyph-name="uni0279" unicode="&#x279;" d="M654 1082 l0 -828 q0 -89 2.5 -148.5 q2.5 -59.5 5.5 -105.5 l-268 0 q-3 18 -8 109.5 q-5 91.5 -5 121.5 l-4 0 q-41 -114 -73 -160.5 q-32 -46.5 -76 -69 q-44 -22.5 -110 -22.5 q-54 0 -87 15 l0 235 q67 -15 120 -15 q105 0 163.5 85 q58.5 85 58.5 252 l0 531 l281 0 Z" /><glyph glyph-name="uni027A" unicode="&#x27a;" d="M654 1484 l0 -1230 q0 -89 2.5 -148.5 q2.5 -59.5 5.5 -105.5 l-268 0 q-3 18 -8 109.5 q-5 91.5 -5 121.5 l-4 0 q-41 -114 -73 -160.5 q-32 -46.5 -76 -69 q-44 -22.5 -110 -22.5 q-54 0 -87 15 l0 235 q67 -15 120 -15 q105 0 163.5 85 q58.5 85 58.5 252 l0 933 l281 0 Z" /><glyph glyph-name="uni027B" unicode="&#x27b;" d="M654 1082 l0 -1166 q0 -125 129 -125 q47 0 105 12 l0 -211 q-27 -5 -83 -11 q-56 -6 -109 -6 q-161 0 -234 83 q-73 83 -73 265 l0 302 l-4 0 q-51 -144 -110 -195 q-59 -51 -157 -51 q-54 0 -87 15 l0 235 q67 -15 120 -15 q105 0 163.5 85 q58.5 85 58.5 252 l0 531 l281 0 Z" /><glyph glyph-name="uni027C" unicode="&#x27c;" d="M143 -425 l0 1253 q0 150 -8 254 l268 0 q3 -18 8 -109.5 q5 -91.5 5 -121.5 l4 0 q41 114 73 160.5 q32 46.5 76 69 q44 22.5 110 22.5 q54 0 87 -15 l0 -235 q-68 15 -120 15 q-105 0 -163.5 -85 q-58.5 -85 -58.5 -252 l0 -956 l-281 0 Z" /><glyph glyph-name="uni027D" unicode="&#x27d;" d="M143 828 q0 150 -8 254 l268 0 q3 -18 8 -109.5 q5 -91.5 5 -121.5 l4 0 q41 114 73 160.5 q32 46.5 76 69 q44 22.5 110 22.5 q54 0 87 -15 l0 -235 q-68 15 -120 15 q-105 0 -163.5 -85 q-58.5 -85 -58.5 -252 l0 -615 q0 -125 129 -125 q47 0 105 12 l0 -211 q-27 -5 -83 -11 q-56 -6 -109 -6 q-165 0 -244 85.5 q-79 85.5 -79 262.5 l0 905 Z" /><glyph glyph-name="uni027E" unicode="&#x27e;" d="M786 845 q-57 23 -148 23 q-214 0 -214 -313 l0 -555 l-281 0 l0 554 q0 274 109.5 411 q109.5 137 341.5 137 q119 0 192 -25 l0 -232 Z" /><glyph glyph-name="uni027F" unicode="&#x27f;" d="M10 1077 q73 25 192 25 q232 0 341.5 -137 q109.5 -137 109.5 -411 l0 -979 l-281 0 l0 980 q0 313 -214 313 q-91 0 -148 -23 l0 232 Z" /><glyph glyph-name="uni0280" unicode="&#x280;" d="M420 435 l0 -435 l-282 0 l0 1082 l487 0 q239 0 356.5 -78 q117.5 -78 117.5 -236 q0 -119 -58.5 -194 q-58.5 -75 -171.5 -103 l322 -471 l-310 0 l-272 435 l-189 0 ZM418 607 l208 0 q189 0 189 149 q0 151 -205 151 l-192 0 l0 -300 Z" /><glyph glyph-name="uni0281" unicode="&#x281;" d="M609 647 l272 435 l310 0 l-322 -471 q113 -27 171.5 -103 q58.5 -76 58.5 -194 q0 -158 -117.5 -236 q-117.5 -78 -356.5 -78 l-487 0 l0 1082 l282 0 l0 -435 l189 0 ZM418 175 l192 0 q205 0 205 151 q0 149 -189 149 l-208 0 l0 -300 Z" /><glyph glyph-name="uni0282" unicode="&#x282;" d="M319 307 q21 -77 72.5 -109 q51.5 -32 179.5 -32 q117 0 171.5 29.5 q54.5 29.5 54.5 94.5 q0 52 -43.5 82.5 q-43.5 30.5 -147.5 51.5 q-228 45 -315 85.5 q-87 40.5 -131.5 105 q-44.5 64.5 -44.5 160.5 q0 155 119.5 241.5 q119.5 86.5 338.5 86.5 q193 0 310.5 -75 q117.5 -75 146.5 -217 l-249 -26 q-12 66 -59 98.5 q-47 32.5 -149 32.5 q-100 0 -150 -25.5 q-50 -25.5 -50 -85.5 q0 -48 38.5 -75.5 q38.5 -27.5 128.5 -45.5 q258 -54 342.5 -96 q84.5 -42 128.5 -108 q44 -66 44 -164 q0 -157 -128.5 -246.5 q-128.5 -89.5 -355.5 -89.5 q-149 0 -246 46 l0 -116 q0 -125 129 -125 q47 0 105 12 l0 -205 q-87 -17 -166 -17 q-166 0 -243.5 86.5 q-77.5 86.5 -77.5 261.5 l0 347 l247 37 Z" /><glyph glyph-name="uni0283" unicode="&#x283;" d="M123 -425 q-43 0 -89 7 q-46 7 -66 14 l0 213 q55 -21 127 -21 q66 0 96.5 40 q30.5 40 30.5 157 l0 1126 q0 200 94 290.5 q94 90.5 288 90.5 q89 0 155 -19 l0 -215 q-42 21 -119 21 q-71 0 -104 -44 q-33 -44 -33 -151 l0 -1128 q0 -199 -93 -290 q-93 -91 -287 -91 Z" /><glyph glyph-name="uni0284" unicode="&#x284;" d="M11 190 l211 0 l0 921 q0 200 94 290.5 q94 90.5 288 90.5 q89 0 155 -19 l0 -215 q-42 21 -119 21 q-71 0 -104 -44 q-33 -44 -33 -151 l0 -894 l155 0 l0 -190 l-155 0 l0 -44 q0 -199 -93 -290 q-93 -91 -287 -91 q-43 0 -89 7 q-46 7 -66 14 l0 213 q55 -21 127 -21 q66 0 96.5 40 q30.5 40 30.5 157 l0 15 l-211 0 l0 190 Z" /><glyph glyph-name="uni0285" unicode="&#x285;" d="M560 -425 q-193 0 -286.5 90.5 q-93.5 90.5 -93.5 290.5 l0 737 q0 107 -33.5 151 q-33.5 44 -103.5 44 q-72 0 -114 -21 l0 215 q67 19 150 19 q193 0 287.5 -90 q94.5 -90 94.5 -291 l0 -735 q0 -87 12.5 -123 q12.5 -36 40 -55 q27.5 -19 74.5 -19 q67 0 122 21 l0 -213 q-65 -21 -150 -21 Z" /><glyph glyph-name="uni0286" unicode="&#x286;" d="M643 1111 q0 200 94 290.5 q94 90.5 288 90.5 q89 0 155 -19 l0 -215 q-42 21 -119 21 q-71 0 -104 -44 q-33 -44 -33 -151 l0 -951 q0 -120 -28 -201 q124 -129 173 -200 l-168 -151 l-112 134 q-98 -77 -190.5 -108.5 q-92.5 -31.5 -192.5 -31.5 q-172 0 -275 84 q-103 84 -103 227 q0 140 94 223 q94 83 262 83 q144 0 259 -81 l0 1000 ZM264 -120 q0 -53 38 -81 q38 -28 100 -28 q72 0 134 35 q62 35 79 87 q-36 45 -95.5 70 q-59.5 25 -118.5 25 q-63 0 -100 -28.5 q-37 -28.5 -37 -79.5 Z" /><glyph glyph-name="uni0287" unicode="&#x287;" d="M262 1355 q124 0 191 -67.5 q67 -67.5 67 -204.5 l0 -638 l137 0 l0 -190 l-151 0 l-88 -254 l-176 0 l0 254 l-205 0 l0 190 l205 0 l0 562 q0 79 -30 116.5 q-30 37.5 -93 37.5 q-33 0 -94 -14 l0 174 q104 34 237 34 Z" /><glyph glyph-name="uni0288" unicode="&#x288;" d="M429 -425 q-124 0 -195.5 75 q-71.5 75 -71.5 211 l0 1031 l-137 0 l0 190 l151 0 l88 254 l176 0 l0 -254 l205 0 l0 -190 l-205 0 l0 -949 q0 -79 25 -115.5 q25 -36.5 88 -36.5 q53 0 104 12 l0 -211 q-94 -17 -228 -17 Z" /><glyph glyph-name="uni0289" unicode="&#x289;" d="M408 1082 l0 -409 l419 0 l0 409 l281 0 l0 -409 l120 0 l0 -177 l-120 0 l0 -254 q0 -87 2.5 -142.5 q2.5 -55.5 5.5 -99.5 l-268 0 q-4 25 -7.5 97 q-3.5 72 -4.5 118 l-5 0 q-107 -235 -348 -235 q-172 0 -264 106 q-92 106 -92 309 l0 101 l-107 0 l0 177 l107 0 l0 409 l281 0 ZM600 190 q98 0 162.5 77.5 q64.5 77.5 64.5 199.5 l0 29 l-419 0 l0 -21 q0 -285 192 -285 Z" /><glyph glyph-name="uni028A" unicode="&#x28a;" d="M1197 879 l-97 0 q-66 0 -66 -47 q0 -21 23 -59.5 q23 -38.5 51 -90 q28 -51.5 51 -114.5 q23 -63 23 -132 q0 -139 -69.5 -243 q-69.5 -104 -194.5 -158.5 q-125 -54.5 -285 -54.5 q-161 0 -284 53.5 q-123 53.5 -191 156 q-68 102.5 -68 246.5 q0 52 11.5 98 q11.5 46 29.5 87 q18 41 70 125 q38 61 38 86 q0 47 -66 47 l-98 0 l0 203 l202 0 q92 0 149.5 -53 q57.5 -53 57.5 -146 q0 -47 -17.5 -95 q-17.5 -48 -38.5 -99.5 q-21 -51.5 -38.5 -109.5 q-17.5 -58 -17.5 -124 q0 -127 72.5 -205 q72.5 -78 192.5 -78 q121 0 192 78 q71 78 71 205 q0 64 -17.5 121.5 q-17.5 57.5 -38 110 q-20.5 52.5 -38 101.5 q-17.5 49 -17.5 95 q0 89 57 144 q57 55 150 55 l201 0 l0 -203 Z" /><glyph glyph-name="uni028B" unicode="&#x28b;" d="M767 1102 q163 0 247 -104 q84 -104 84 -335 q0 -331 -132.5 -507 q-132.5 -176 -381.5 -176 q-237 0 -347 109 q-110 109 -110 344 l0 649 l281 0 l0 -622 q0 -146 47 -209.5 q47 -63.5 146 -63.5 q225 0 225 455 q0 134 -34 190.5 q-34 56.5 -103 56.5 q-19 0 -58 -4 q-39 -4 -57 -8 l0 208 q37 7 100 12 q63 5 93 5 Z" /><glyph glyph-name="uni028C" unicode="&#x28c;" d="M407 1082 l336 0 l387 -1082 l-297 0 l-189 605 q-15 50 -71 250 q-10 -41 -41 -144 q-31 -103 -230 -711 l-294 0 l399 1082 Z" /><glyph glyph-name="uni028D" unicode="&#x28d;" d="M278 1082 l297 0 l172 -660 q16 -68 47 -221 l52 223 l174 658 l297 0 l280 -1082 l-264 0 l-178 827 l-14 -74 l-25 -117 l-170 -636 l-301 0 l-166 636 l-36 165 l-5 25 l-15 -72 l-169 -754 l-260 0 l284 1082 Z" /><glyph glyph-name="uni028E" unicode="&#x28e;" d="M861 1507 q101 0 177 -13 l0 -200 q-53 8 -97 8 q-88 0 -137 -41.5 q-49 -41.5 -86 -141.5 l-18 -48 l428 -1071 l-297 0 l-170 507 q-12 34 -51 163.5 q-39 129.5 -50 170.5 l-24 -94 l-66 -236 l-160 -511 l-294 0 l428 1139 q77 205 172 286.5 q95 81.5 245 81.5 Z" /><glyph glyph-name="uni028F" unicode="&#x28f;" d="M445 0 l0 440 l-422 642 l297 0 l265 -428 l266 428 l294 0 l-419 -642 l0 -440 l-281 0 Z" /><glyph glyph-name="uni0290" unicode="&#x290;" d="M967 -90 q0 -125 129 -125 q47 0 105 12 l0 -205 q-87 -17 -166 -17 q-166 0 -243.5 86.5 q-77.5 86.5 -77.5 261.5 l0 77 l-646 0 l0 199 l540 680 l-499 0 l0 203 l809 0 l0 -201 l-537 -676 l586 0 l0 -295 Z" /><glyph glyph-name="uni0291" unicode="&#x291;" d="M445 -96 q8 19 53 96 l-430 0 l0 199 l540 680 l-499 0 l0 203 l809 0 l0 -201 l-537 -676 l245 0 q123 191 227 272.5 q104 81.5 228 81.5 q130 0 205.5 -72 q75.5 -72 75.5 -195 q0 -139 -90.5 -215.5 q-90.5 -76.5 -264.5 -76.5 l-271 0 q-49 -86 -104 -203 l-187 107 ZM1148 288 q0 72 -80 72 q-49 0 -92 -39 q-43 -39 -100 -116 l162 0 q51 0 80.5 21.5 q29.5 21.5 29.5 61.5 Z" /><glyph glyph-name="uni0292" unicode="&#x292;" d="M515 -232 q130 0 183.5 68.5 q53.5 68.5 53.5 225.5 q0 145 -82 213 q-82 68 -263 68 l-102 0 l0 189 l339 347 l-568 0 l0 203 l902 0 l0 -195 l-363 -365 q197 -19 310 -136.5 q113 -117.5 113 -307.5 q0 -237 -139.5 -370 q-139.5 -133 -381.5 -133 q-210 0 -341.5 101 q-131.5 101 -155.5 280 l277 13 q11 -91 70.5 -146 q59.5 -55 147.5 -55 Z" /><glyph glyph-name="uni0293" unicode="&#x293;" d="M877 -413 q-25 47 -62 104 q-150 -116 -346 -116 q-138 0 -237.5 40.5 q-99.5 40.5 -152.5 113 q-53 72.5 -53 163.5 q0 144 99.5 220.5 q99.5 76.5 290.5 76.5 q163 0 343 -128 q0 140 -87 211 q-87 71 -269 71 l-112 0 l0 189 l339 347 l-568 0 l0 203 l902 0 l0 -195 l-363 -365 q197 -19 310 -136.5 q113 -117.5 113 -307.5 q0 -105 -56 -211 q56 -70 105 -144 l-196 -136 ZM267 -113 q0 -56 55.5 -89 q55.5 -33 137.5 -33 q150 0 227 84 q-138 133 -271 133 q-81 0 -115 -27.5 q-34 -27.5 -34 -67.5 Z" /><glyph glyph-name="uni0294" unicode="&#x294;" d="M401 0 l0 623 q46 -12 76 -15 q30 -3 63 -3 q228 0 228 322 q0 141 -53 206 q-53 65 -171 65 q-82 0 -138 -53 q-56 -53 -69 -143 l-271 67 q31 167 159 264 q128 97 320 97 q245 0 378.5 -138 q133.5 -138 133.5 -391 q0 -203 -99.5 -340 q-99.5 -137 -273.5 -167 l0 -394 l-283 0 Z" /><glyph glyph-name="uni0295" unicode="&#x295;" d="M455 0 l0 394 q-173 29 -273 166.5 q-100 137.5 -100 340.5 q0 253 133.5 391 q133.5 138 378.5 138 q193 0 320.5 -97 q127.5 -97 158.5 -264 l-271 -67 q-13 90 -68.5 143 q-55.5 53 -138.5 53 q-118 0 -171 -65 q-53 -65 -53 -206 q0 -322 228 -322 q34 0 64.5 3 q30.5 3 74.5 15 l0 -623 l-283 0 Z" /><glyph glyph-name="uni0296" unicode="&#x296;" d="M684 1409 l0 -394 q174 -30 273.5 -167.5 q99.5 -137.5 99.5 -339.5 q0 -253 -133.5 -391 q-133.5 -138 -378.5 -138 q-193 0 -320.5 97 q-127.5 97 -158.5 264 l271 67 q13 -90 68.5 -143 q55.5 -53 138.5 -53 q118 0 171 65 q53 65 53 206 q0 322 -228 322 q-34 0 -64.5 -3 q-30.5 -3 -74.5 -15 l0 623 l283 0 Z" /><glyph glyph-name="uni0297" unicode="&#x297;" d="M84 535 q0 272 135 419.5 q135 147.5 379 147.5 q191 0 316 -96 q125 -96 157 -265 l-283 -14 q-12 83 -60 132.5 q-48 49.5 -136 49.5 q-113 0 -169.5 -78.5 q-56.5 -78.5 -56.5 -254.5 l0 -465 q0 -173 55.5 -258.5 q55.5 -85.5 174.5 -85.5 q80 0 134 50.5 q54 50.5 67 150.5 l282 -13 q-15 -111 -79 -198 q-64 -87 -168 -134.5 q-104 -47.5 -238 -47.5 q-246 0 -378 146.5 q-132 146.5 -132 408.5 l0 405 Z" /><glyph glyph-name="uni0299" unicode="&#x299;" d="M143 1082 l602 0 q189 0 293 -69 q104 -69 104 -208 q0 -95 -49 -156 q-49 -61 -132 -87 q107 -28 162.5 -95.5 q55.5 -67.5 55.5 -167.5 q0 -138 -106.5 -218.5 q-106.5 -80.5 -280.5 -80.5 l-649 0 l0 1082 ZM418 641 l240 0 q88 0 126.5 12.5 q38.5 12.5 60 39.5 q21.5 27 21.5 75 q0 47 -21 73.5 q-21 26.5 -57 38.5 q-36 12 -130 12 l-240 0 l0 -251 ZM418 180 l251 0 q117 0 168.5 35.5 q51.5 35.5 51.5 108.5 q0 70 -47.5 103 q-47.5 33 -172.5 33 l-251 0 l0 -280 Z" /><glyph glyph-name="uni029A" unicode="&#x29a;" d="M533 923 q-72 0 -111 -33.5 q-39 -33.5 -39 -93.5 q0 -79 47 -113.5 q47 -34.5 166 -34.5 l0 -182 q-133 0 -179 -36 q-46 -36 -46 -119 q0 -64 44.5 -103.5 q44.5 -39.5 124.5 -39.5 q121 0 187.5 98 q66.5 98 66.5 276 q0 192 -68 286.5 q-68 94.5 -193 94.5 ZM537 1102 q258 0 400 -149.5 q142 -149.5 142 -410.5 q0 -262 -142.5 -412 q-142.5 -150 -393.5 -150 q-213 0 -337 91 q-124 91 -124 243 q0 106 68.5 172 q68.5 66 192.5 79 q-228 53 -228 256 q0 123 119.5 202 q119.5 79 302.5 79 Z" /><glyph glyph-name="uni029B" unicode="&#x29b;" d="M838 727 q-24 164 -206 164 q-125 0 -191 -88.5 q-66 -88.5 -66 -256.5 q0 -176 71.5 -269 q71.5 -93 209.5 -93 q67 0 112.5 10.5 q45.5 10.5 89.5 33.5 l0 129 l-202 0 l0 209 l471 0 l0 -454 q-122 -72 -237.5 -102 q-115.5 -30 -245.5 -30 q-264 0 -414 146.5 q-150 146.5 -150 408.5 q0 264 148 415.5 q148 151.5 400 151.5 q125 0 229 -55 q15 281 307 281 q75 0 152 -17 l0 -201 q-58 12 -88 12 q-59 0 -85.5 -34.5 q-26.5 -34.5 -26.5 -106.5 l0 -215 l-278 -39 Z" /><glyph glyph-name="uni029C" unicode="&#x29c;" d="M425 1082 l0 -428 l387 0 l0 428 l282 0 l0 -1082 l-282 0 l0 463 l-387 0 l0 -463 l-282 0 l0 1082 l282 0 Z" /><glyph glyph-name="uni029D" unicode="&#x29d;" d="M390 -425 q-165 0 -262 87.5 q-97 87.5 -97 235.5 q0 145 96 226 q96 81 281 81 l103 0 l0 877 l281 0 l0 -877 l156 0 l0 -205 l-156 0 l0 -18 q0 -198 -103 -302.5 q-103 -104.5 -299 -104.5 ZM511 1277 l0 207 l281 0 l0 -207 l-281 0 ZM375 -227 q78 0 107 42.5 q29 42.5 29 126.5 l0 58 l-114 0 q-143 0 -143 -116 q0 -48 30 -79.5 q30 -31.5 91 -31.5 Z" /><glyph glyph-name="uni029E" unicode="&#x29e;" d="M310 1082 l289 -490 l121 84 l0 406 l281 0 l0 -1484 l-281 0 l0 850 l-386 -448 l-302 0 l380 422 l-409 660 l307 0 Z" /><glyph glyph-name="uni029F" unicode="&#x29f;" d="M853 0 l-717 0 l0 1082 l281 0 l0 -877 l436 0 l0 -205 Z" /><glyph glyph-name="uni02A0" unicode="&#x2a0;" d="M829 -425 l0 450 q0 95 5 155 l-2 0 q-93 -200 -353 -200 q-189 0 -292 147.5 q-103 147.5 -103 412.5 q0 268 109.5 415.5 q109.5 147.5 308.5 147.5 q244 0 340 -197 l0 297 q0 142 83 216 q83 74 231 74 q75 0 152 -17 l0 -201 q-58 12 -88 12 q-59 0 -85.5 -34.5 q-26.5 -34.5 -26.5 -106.5 l0 -1571 l-279 0 ZM831 546 q0 173 -58 268.5 q-58 95.5 -171 95.5 q-225 0 -225 -370 q0 -368 223 -368 q110 0 170.5 97.5 q60.5 97.5 60.5 276.5 Z" /><glyph glyph-name="uni02A1" unicode="&#x2a1;" d="M66 320 l335 0 l0 303 q46 -12 76 -15 q30 -3 63 -3 q228 0 228 322 q0 141 -53 206 q-53 65 -171 65 q-82 0 -138 -53 q-56 -53 -69 -143 l-271 67 q31 167 159 264 q128 97 320 97 q245 0 378.5 -138 q133.5 -138 133.5 -391 q0 -203 -99.5 -340 q-99.5 -137 -273.5 -167 l0 -74 l334 0 l0 -186 l-334 0 l0 -134 l-283 0 l0 134 l-335 0 l0 186 Z" /><glyph glyph-name="uni02A2" unicode="&#x2a2;" d="M460 0 l0 134 l-334 0 l0 186 l334 0 l0 74 q-173 29 -273 166.5 q-100 137.5 -100 340.5 q0 253 133.5 391 q133.5 138 378.5 138 q193 0 320.5 -97 q127.5 -97 158.5 -264 l-271 -67 q-13 90 -68.5 143 q-55.5 53 -138.5 53 q-118 0 -171 -65 q-53 -65 -53 -206 q0 -322 228 -322 q34 0 64.5 3 q30.5 3 74.5 15 l0 -303 l335 0 l0 -186 l-335 0 l0 -134 l-283 0 Z" /><glyph glyph-name="uni02A3" unicode="&#x2a3;" d="M844 0 q-6 21 -10.5 84 q-4.5 63 -4.5 92 l-4 0 q-91 -196 -346 -196 q-189 0 -292 147.5 q-103 147.5 -103 412.5 q0 269 108.5 415.5 q108.5 146.5 307.5 146.5 q115 0 198.5 -48 q83.5 -48 128.5 -143 l2 0 l-2 178 l0 395 l281 0 l0 -402 l914 0 l0 -201 l-607 -676 l656 0 l0 -205 l-1227 0 ZM831 547 q0 175 -58.5 269.5 q-58.5 94.5 -172.5 94.5 q-113 0 -168 -91.5 q-55 -91.5 -55 -279.5 q0 -368 221 -368 q111 0 172 97.5 q61 97.5 61 277.5 ZM1108 879 l0 -680 l604 680 l-604 0 Z" /><glyph glyph-name="uni02A4" unicode="&#x2a4;" d="M844 0 q-6 21 -10.5 84 q-4.5 63 -4.5 92 l-4 0 q-91 -196 -346 -196 q-189 0 -292 147.5 q-103 147.5 -103 412.5 q0 269 108.5 415.5 q108.5 146.5 307.5 146.5 q115 0 198.5 -48 q83.5 -48 128.5 -143 l2 0 l-2 178 l0 395 l281 0 l0 -402 l721 0 l0 -195 l-297 -366 q169 -29 263 -145.5 q94 -116.5 94 -298.5 q0 -233 -147.5 -368 q-147.5 -135 -393.5 -135 q-175 0 -300.5 68 q-125.5 68 -181.5 199 l258 58 q42 -76 98 -107.5 q56 -31.5 133 -31.5 q130 0 189 73 q59 73 59 228 q0 147 -77.5 214 q-77.5 67 -254.5 67 l-25 0 l0 189 l279 348 l-417 0 l0 -643 q0 -100 8 -236 l-272 0 ZM831 547 q0 175 -58.5 269.5 q-58.5 94.5 -172.5 94.5 q-113 0 -168 -91.5 q-55 -91.5 -55 -279.5 q0 -368 221 -368 q111 0 172 97.5 q61 97.5 61 277.5 Z" /><glyph glyph-name="uni02A5" unicode="&#x2a5;" d="M1531 -96 q8 19 53 96 l-740 0 q-6 21 -10.5 84 q-4.5 63 -4.5 92 l-4 0 q-91 -196 -346 -196 q-189 0 -292 147.5 q-103 147.5 -103 412.5 q0 269 108.5 415.5 q108.5 146.5 307.5 146.5 q115 0 198.5 -48 q83.5 -48 128.5 -143 l2 0 l-2 178 l0 395 l281 0 l0 -402 l896 0 l0 -201 l-587 -676 l295 0 q123 191 227 272.5 q104 81.5 228 81.5 q130 0 205.5 -72 q75.5 -72 75.5 -195 q0 -139 -90.5 -215.5 q-90.5 -76.5 -264.5 -76.5 l-271 0 q-49 -86 -104 -203 l-187 107 ZM831 547 q0 175 -58.5 269.5 q-58.5 94.5 -172.5 94.5 q-113 0 -168 -91.5 q-55 -91.5 -55 -279.5 q0 -368 221 -368 q111 0 172 97.5 q61 97.5 61 277.5 ZM1108 879 l0 -684 l586 684 l-586 0 ZM2234 288 q0 72 -80 72 q-49 0 -92 -39 q-43 -39 -100 -116 l162 0 q51 0 80.5 21.5 q29.5 21.5 29.5 61.5 Z" /><glyph glyph-name="uni02A6" unicode="&#x2a6;" d="M440 1082 l454 0 q84 21 191 21 q193 0 310.5 -75 q117.5 -75 146.5 -217 l-249 -26 q-12 66 -59 98.5 q-47 32.5 -149 32.5 q-100 0 -150 -25.5 q-50 -25.5 -50 -85.5 q0 -46 37 -71.5 q37 -25.5 130 -42.5 q225 -42 321.5 -85 q96.5 -43 145 -113.5 q48.5 -70.5 48.5 -176.5 q0 -316 -461 -316 l-686 0 q-124 0 -191 67.5 q-67 67.5 -67 204.5 l0 620 l-137 0 l0 190 l151 0 l88 254 l176 0 l0 -254 ZM1115 205 q111 0 152.5 22.5 q41.5 22.5 41.5 77.5 q0 48 -43.5 77 q-43.5 29 -147.5 50 q-237 47 -320.5 85 q-83.5 38 -127 101 q-43.5 63 -43.5 157 q0 63 21 117 l-208 0 l0 -544 q0 -79 30 -111 q30 -32 93 -32 l552 0 Z" /><glyph glyph-name="uni02A7" unicode="&#x2a7;" d="M420 -18 q-124 0 -191 67.5 q-67 67.5 -67 204.5 l0 638 l-137 0 l0 190 l151 0 l88 254 l176 0 l0 -254 l193 0 l0 29 q0 200 94 290.5 q94 90.5 288 90.5 q88 0 155 -19 l0 -215 q-42 21 -119 21 q-71 0 -104 -44 q-33 -44 -33 -151 l0 -1128 q0 -199 -93 -290 q-93 -91 -287 -91 q-43 0 -89 7 q-46 7 -66 14 l0 213 q55 -21 127 -21 q66 0 96.5 40 q30.5 40 30.5 157 l0 23 q-96 -26 -213 -26 ZM563 196 q36 0 70 8 l0 688 l-193 0 l0 -542 q0 -79 30 -116.5 q30 -37.5 93 -37.5 Z" /><glyph glyph-name="uni02A8" unicode="&#x2a8;" d="M1389 286 q0 99 -163 99 q-108 0 -230 -118 q65 -95 206 -95 q187 0 187 114 ZM461 -20 q-135 0 -217 74 q-82 74 -82 200 l0 638 l-137 0 l0 190 l151 0 l88 254 l176 0 l0 -254 l205 0 l0 -190 l-205 0 l0 -552 q0 -69 26.5 -100 q26.5 -31 64.5 -31 q35 0 74.5 23.5 q39.5 23.5 73.5 67.5 q-43 94 -43 235 q0 268 135 417.5 q135 149.5 383 149.5 q191 0 316 -96 q125 -96 157 -265 l-283 -14 q-12 83 -60 132.5 q-48 49.5 -136 49.5 q-217 0 -217 -363 l2 -76 q179 121 335 121 q179 0 273 -71.5 q94 -71.5 94 -203.5 q0 -157 -123.5 -246.5 q-123.5 -89.5 -338.5 -89.5 q-206 0 -368 133 q-84 -75 -161 -104 q-77 -29 -183 -29 Z" /><glyph glyph-name="uni02A9" unicode="&#x2a9;" d="M931 1082 q3 -19 8 -101.5 q5 -82.5 5 -113.5 l4 0 q57 124 143 180 q86 56 205 56 q172 0 264 -106 q92 -106 92 -310 l0 -764 q0 -177 -78.5 -262.5 q-78.5 -85.5 -242.5 -85.5 q-48 0 -106 5.5 q-58 5.5 -86 11.5 l0 211 q58 -12 105 -12 q128 0 128 125 l0 691 q0 285 -193 285 q-102 0 -164.5 -87.5 q-62.5 -87.5 -62.5 -224.5 l0 -580 l-281 0 l0 892 l-198 0 l0 -892 l-280 0 l0 892 l-158 0 l0 190 l158 0 l0 113 q0 147 78 218 q78 71 237 71 q79 0 178 -16 l0 -181 q-41 9 -82 9 q-72 0 -101.5 -28.5 q-29.5 -28.5 -29.5 -100.5 l0 -85 l458 0 Z" /><glyph glyph-name="uni02AA" unicode="&#x2aa;" d="M143 0 l0 1484 l281 0 l0 -1189 q96 -60 232 -94.5 q136 -34.5 279 -34.5 q168 0 232.5 26.5 q64.5 26.5 64.5 97.5 q0 52 -43.5 82.5 q-43.5 30.5 -147.5 51.5 q-228 45 -315 85.5 q-87 40.5 -131.5 105 q-44.5 64.5 -44.5 160.5 q0 155 119.5 241.5 q119.5 86.5 338.5 86.5 q193 0 310.5 -75 q117.5 -75 146.5 -217 l-249 -26 q-12 66 -59 98.5 q-47 32.5 -149 32.5 q-100 0 -150 -25.5 q-50 -25.5 -50 -85.5 q0 -48 38.5 -75.5 q38.5 -27.5 128.5 -45.5 q258 -54 342.5 -96 q84.5 -42 128.5 -108 q44 -66 44 -164 q0 -165 -137 -250.5 q-137 -85.5 -399 -85.5 q-306 0 -530 99 l0 -79 l-281 0 Z" /><glyph glyph-name="uni02AB" unicode="&#x2ab;" d="M143 0 l0 1484 l281 0 l0 -402 l903 0 l0 -201 l-597 -676 l646 0 l0 -205 l-1233 0 ZM424 879 l0 -682 l593 682 l-593 0 Z" /><glyph glyph-name="uni02AC" unicode="&#x2ac;" d="M894 0 l-199 0 l-115 387 q-6 19 -11 43.5 q-5 24.5 -9.5 46.5 q-4.5 22 -7.5 38 q-3 16 -3 19 l-12 -55 l-23 -94 l-116 -385 l-199 0 l-177 694 l177 0 l109 -503 l17 91 l9 36 l113 376 l202 0 l111 -376 l18 -80 l9 -47 l113 503 l174 0 l-180 -694 ZM894 790 l-199 0 l-115 387 q-8 25 -19.5 82 q-11.5 57 -11.5 65 l-12 -55 l-23 -94 l-116 -385 l-199 0 l-177 694 l177 0 l109 -503 l9 49 q5 27 8.5 43 q3.5 16 121.5 411 l202 0 l111 -376 l18 -80 l9 -47 l113 503 l174 0 l-180 -694 Z" /><glyph glyph-name="uni02AD" unicode="&#x2ad;" d="M1018 997 l-238 0 l0 265 l-406 0 l0 -265 l-238 0 l0 487 l882 0 l0 -487 ZM1018 0 l-238 0 l0 265 l-406 0 l0 -265 l-238 0 l0 487 l882 0 l0 -487 Z" /><glyph glyph-name="uni02AE" unicode="&#x2ae;" d="M1071 193 q-52 -111 -133.5 -161.5 q-81.5 -50.5 -214.5 -50.5 q-172 0 -264 106 q-92 106 -92 310 l0 325 q0 154 -175 154 q-56 0 -158 -21 l0 211 q123 27 223 27 q193 0 291.5 -109 q98.5 -109 98.5 -321 l0 -186 q0 -285 193 -285 q102 0 164.5 87.5 q62.5 87.5 62.5 224.5 l0 578 l281 0 l0 -1507 l-281 0 l0 405 q0 109 8 213 l-4 0 Z" /><glyph glyph-name="uni02AF" unicode="&#x2af;" d="M1072 193 q-52 -111 -133.5 -161.5 q-81.5 -50.5 -215.5 -50.5 q-172 0 -264 106 q-92 106 -92 310 l0 325 q0 154 -175 154 q-56 0 -158 -21 l0 211 q123 27 223 27 q192 0 291 -109.5 q99 -109.5 99 -320.5 l0 -186 q0 -285 193 -285 q102 0 164.5 87.5 q62.5 87.5 62.5 224.5 l0 578 l281 0 l0 -1056 q0 -234 192 -234 q67 0 148 21 l0 -211 q-108 -27 -207 -27 q-195 0 -300 110 q-105 110 -105 317 l0 191 l-4 0 Z" /><glyph glyph-name="uni02B1" unicode="&#x2b1;" d="M232 1101 q39 87 97.5 126.5 q58.5 39.5 139.5 39.5 q119 0 180.5 -75.5 q61.5 -75.5 61.5 -217.5 l0 -484 l-190 0 l0 427 q0 201 -132 201 q-70 0 -112 -62.5 q-42 -62.5 -42 -157.5 l0 -408 l-191 0 l0 848 q0 96 60.5 150.5 q60.5 54.5 165.5 54.5 q23 0 67 -4 q44 -4 64 -8 l0 -149 q-38 9 -78 9 q-88 0 -88 -89 l0 -51 l-2 -89 l-3 -61 l2 0 Z" /><glyph glyph-name="uni02B2" unicode="&#x2b2;" d="M124 1389 l0 146 l191 0 l0 -146 l-191 0 ZM120 190 q-74 0 -116 6 l0 140 l35 -3 q50 0 67.5 23.5 q17.5 23.5 17.5 90.5 l0 805 l191 0 l0 -853 q0 -100 -49.5 -154.5 q-49.5 -54.5 -145.5 -54.5 Z" /><glyph glyph-name="uni02B4" unicode="&#x2b4;" d="M458 1252 l0 -583 q0 -135 5 -180 l-182 0 q-4 14 -6 74.5 q-2 60.5 -3 88.5 l-3 0 q-37 -108 -74.5 -142.5 q-37.5 -34.5 -101.5 -34.5 q-37 0 -59 10 l0 166 q40 -11 82 -11 q71 0 111 60 q40 60 40 178 l0 374 l191 0 Z" /><glyph glyph-name="uni02B5" unicode="&#x2b5;" d="M439 1252 l0 -822 q0 -88 87 -88 q38 0 72 8 l0 -149 q-21 -4 -62.5 -8 q-41.5 -4 -68.5 -4 q-107 0 -157.5 57.5 q-50.5 57.5 -50.5 188.5 l0 213 l-3 0 q-33 -98 -73 -136 q-40 -38 -109 -38 q-39 0 -59 11 l0 165 q47 -10 82 -10 q71 0 111 60 q40 60 40 177 l0 375 l191 0 Z" /><glyph glyph-name="uni02B6" unicode="&#x2b6;" d="M372 946 l185 306 l211 0 l-219 -332 q74 -17 115 -70.5 q41 -53.5 41 -138.5 q0 -117 -84 -169 q-84 -52 -238 -52 l-332 0 l0 762 l192 0 l0 -306 l129 0 ZM242 613 l130 0 q140 0 140 106 q0 105 -129 105 l-141 0 l0 -211 Z" /><glyph glyph-name="uni02B7" unicode="&#x2b7;" d="M887 490 l-202 0 l-117 465 q-11 47 -21 98.5 q-10 51.5 -10 57.5 l-25 -110 l-129 -511 l-202 0 l-191 762 l180 0 l121 -583 l27 135 l115 448 l205 0 l113 -448 l28 -134 l10 51 l115 531 l177 0 l-194 -762 Z" /><glyph glyph-name="uni02B8" unicode="&#x2b8;" d="M172 189 q-70 0 -120 9 l0 141 l66 -5 q62 0 96 33 q34 33 68 130 l-291 755 l202 0 l115 -358 q41 -123 69 -235 l7 26 l54 206 l109 361 l200 0 l-291 -803 q-56 -144 -119 -202 q-63 -58 -165 -58 Z" /><glyph glyph-name="uni02BB" unicode="&#x2bb;" d="M139 831 l0 195 q0 121 26 213.5 q26 92.5 82 169.5 l183 0 q-62 -78 -96.5 -161.5 q-34.5 -83.5 -34.5 -155.5 l127 0 l0 -261 l-287 0 Z" /><glyph glyph-name="uni02BC" unicode="&#x2bc;" d="M430 1409 l0 -195 q0 -121 -26 -213.5 q-26 -92.5 -82 -169.5 l-183 0 q62 78 96.5 161.5 q34.5 83.5 34.5 155.5 l-127 0 l0 261 l287 0 Z" /><glyph glyph-name="uni02BD" unicode="&#x2bd;" d="M426 1409 l0 -261 l-127 0 q0 -72 34.5 -156 q34.5 -84 96.5 -161 l-183 0 q-56 78 -82 169 q-26 91 -26 214 l0 195 l287 0 Z" /><glyph glyph-name="uni02BE" unicode="&#x2be;" d="M226 1259 q53 0 77.5 22.5 q24.5 22.5 24.5 58.5 q0 79 -102 79 l0 118 q105 0 167 -52 q62 -52 62 -145 q0 -94 -61.5 -145.5 q-61.5 -51.5 -167.5 -51.5 l0 116 Z" /><glyph glyph-name="uni02BF" unicode="&#x2bf;" d="M455 1143 q-106 0 -167.5 51.5 q-61.5 51.5 -61.5 145.5 q0 94 62.5 145.5 q62.5 51.5 166.5 51.5 l0 -118 q-102 0 -102 -79 q0 -36 24.5 -58.5 q24.5 -22.5 77.5 -22.5 l0 -116 Z" /><glyph glyph-name="uni02C0" unicode="&#x2c0;" d="M278 490 l0 409 q41 -13 91 -13 q151 0 151 219 q0 101 -36.5 143 q-36.5 42 -111.5 42 q-53 0 -90.5 -36.5 q-37.5 -36.5 -46.5 -97.5 l-178 46 q20 114 105 179.5 q85 65.5 211 65.5 q163 0 250.5 -93 q87.5 -93 87.5 -266 q0 -139 -66 -232 q-66 -93 -181 -113 l0 -253 l-186 0 Z" /><glyph glyph-name="uni02C1" unicode="&#x2c1;" d="M304 490 l0 253 q-114 19 -180.5 112.5 q-66.5 93.5 -66.5 232.5 q0 173 87.5 266 q87.5 93 250.5 93 q126 0 211 -65.5 q85 -65.5 105 -179.5 l-178 -46 q-9 62 -46.5 98 q-37.5 36 -90.5 36 q-75 0 -111.5 -42 q-36.5 -42 -36.5 -143 q0 -219 151 -219 q50 0 91 13 l0 -409 l-186 0 Z" /><glyph glyph-name="uni02C4" unicode="&#x2c4;" d="M1150 206 l-227 0 l-324 832 l-325 -832 l-228 0 l391 1027 l322 0 l391 -1027 Z" /><glyph glyph-name="uni02C5" unicode="&#x2c5;" d="M759 206 l-322 0 l-391 1027 l228 0 l325 -832 l324 832 l227 0 l-391 -1027 Z" /><glyph glyph-name="circumflex" unicode="&#x2c6;" d="M737 1211 l0 -28 l-159 0 l-203 192 l-4 0 l-211 -192 l-160 0 l0 28 l258 318 l229 0 l250 -318 Z" /><glyph glyph-name="caron" unicode="&#x2c7;" d="M487 1183 l-229 0 l-258 317 l0 29 l160 0 l211 -193 l4 0 l203 193 l159 0 l0 -29 l-250 -317 Z" /><glyph glyph-name="uni02C8" unicode="&#x2c8;" d="M415 1125 l-148 0 l0 359 l148 0 l0 -359 Z" /><glyph glyph-name="macron" unicode="&#x2c9;" d="M36 1371 l612 0 l0 -168 l-612 0 l0 168 Z" /><glyph glyph-name="uni02CA" unicode="&#x2ca;" d="M126 1202 l0 27 l172 255 l258 0 l0 -38 l-281 -244 l-149 0 Z" /><glyph glyph-name="uni02CB" unicode="&#x2cb;" d="M407 1202 l-281 244 l0 38 l258 0 l172 -255 l0 -27 l-149 0 Z" /><glyph glyph-name="uni02CC" unicode="&#x2cc;" d="M415 -425 l-148 0 l0 359 l148 0 l0 -359 Z" /><glyph glyph-name="uni02CD" unicode="&#x2cd;" d="M34 -159 l612 0 l0 -168 l-612 0 l0 168 Z" /><glyph glyph-name="uni02CE" unicode="&#x2ce;" d="M346 -404 l-281 244 l0 38 l258 0 l172 -255 l0 -27 l-149 0 Z" /><glyph glyph-name="uni02CF" unicode="&#x2cf;" d="M187 -404 l0 27 l172 255 l258 0 l0 -38 l-281 -244 l-149 0 Z" /><glyph glyph-name="uni02D0" unicode="&#x2d0;" d="M496 1082 l-96 -300 l-118 0 l-96 300 l310 0 ZM496 0 l-310 0 l96 300 l118 0 l96 -300 Z" /><glyph glyph-name="uni02D1" unicode="&#x2d1;" d="M496 1082 l-96 -300 l-118 0 l-96 300 l310 0 Z" /><glyph glyph-name="uni02D2" unicode="&#x2d2;" d="M226 215 q53 0 77.5 22.5 q24.5 22.5 24.5 58.5 q0 79 -102 79 l0 118 q105 0 167 -52 q62 -52 62 -145 q0 -94 -61.5 -145.5 q-61.5 -51.5 -167.5 -51.5 l0 116 Z" /><glyph glyph-name="uni02D3" unicode="&#x2d3;" d="M454 99 q-106 0 -167.5 51.5 q-61.5 51.5 -61.5 145.5 q0 94 62.5 145.5 q62.5 51.5 166.5 51.5 l0 -118 q-102 0 -102 -79 q0 -36 24.5 -58.5 q24.5 -22.5 77.5 -22.5 l0 -116 Z" /><glyph glyph-name="uni02D4" unicode="&#x2d4;" d="M519 174 l-365 0 l0 124 l121 0 l0 224 l124 0 l0 -224 l120 0 l0 -124 Z" /><glyph glyph-name="uni02D5" unicode="&#x2d5;" d="M519 398 l-120 0 l0 -224 l-124 0 l0 224 l-121 0 l0 124 l365 0 l0 -124 Z" /><glyph glyph-name="uni02D6" unicode="&#x2d6;" d="M519 278 l-120 0 l0 -104 l-124 0 l0 104 l-121 0 l0 124 l121 0 l0 120 l124 0 l0 -120 l120 0 l0 -124 Z" /><glyph glyph-name="uni02D7" unicode="&#x2d7;" d="M19 250 l0 224 l644 0 l0 -224 l-644 0 Z" /><glyph glyph-name="breve" unicode="&#x2d8;" d="M295 1183 q-151 0 -246 91 q-95 91 -106 232 l163 0 q16 -77 68 -121.5 q52 -44.5 123 -44.5 q71 0 123.5 43.5 q52.5 43.5 66.5 122.5 l164 0 q-18 -148 -110.5 -235.5 q-92.5 -87.5 -245.5 -87.5 Z" /><glyph glyph-name="dotaccent" unicode="&#x2d9;" d="M200 1277 l0 207 l281 0 l0 -207 l-281 0 Z" /><glyph glyph-name="ring" unicode="&#x2da;" d="M547 1390 q0 -105 -73.5 -179.5 q-73.5 -74.5 -180.5 -74.5 q-107 0 -180.5 74.5 q-73.5 74.5 -73.5 179.5 q0 105 74.5 179.5 q74.5 74.5 179.5 74.5 q105 0 179.5 -74.5 q74.5 -74.5 74.5 -179.5 ZM420 1390 q0 51 -36.5 88 q-36.5 37 -90.5 37 q-51 0 -88 -36 q-37 -36 -37 -89 q0 -56 37 -92 q37 -36 88 -36 q53 0 90 37 q37 37 37 91 Z" /><glyph glyph-name="ogonek" unicode="&#x2db;" d="M313 -425 q-111 0 -174 54 q-63 54 -63 146 q0 75 43.5 142 q43.5 67 114.5 104 l153 0 q-63 -42 -96 -99.5 q-33 -57.5 -33 -110.5 q0 -42 24.5 -67.5 q24.5 -25.5 69.5 -25.5 q54 0 112 27 l0 -137 q-63 -33 -151 -33 Z" /><glyph glyph-name="tilde" unicode="&#x2dc;" d="M543 1183 q-44 0 -88.5 19 q-44.5 19 -86.5 42.5 q-42 23.5 -79.5 42.5 q-37.5 19 -67.5 19 q-41 0 -62.5 -23 q-21.5 -23 -35.5 -100 l-137 0 q8 113 32.5 169.5 q24.5 56.5 70.5 90 q46 33.5 122 33.5 q45 0 90 -19 q45 -19 87 -42.5 q42 -23.5 78.5 -42.5 q36.5 -19 65.5 -19 q40 0 62.5 24.5 q22.5 24.5 36.5 98.5 l135 0 q-7 -157 -63.5 -225 q-56.5 -68 -159.5 -68 Z" /><glyph glyph-name="hungarumlaut" unicode="&#x2dd;" d="M50 1184 l-142 0 l0 34 l225 266 l235 0 l0 -43 l-318 -257 ZM456 1184 l-142 0 l0 34 l225 266 l235 0 l0 -43 l-318 -257 Z" /><glyph glyph-name="uni02DE" unicode="&#x2de;" d="M-43 770 l279 55 l28 -137 q16 -77 43.5 -106 q27.5 -29 90.5 -29 q42 0 75.5 11.5 q33.5 11.5 71.5 31.5 l69 -180 q-124 -56 -254 -56 q-122 0 -187.5 49 q-65.5 49 -90.5 146 l-9 35 l-75 -16 l-41 196 Z" /><glyph glyph-name="uni02DF" unicode="&#x2df;" d="M3 927 l235 243 l-233 239 l105 107 l232 -238 l232 239 l105 -108 l-233 -240 l233 -238 l-105 -109 l-232 241 l-235 -244 l-104 108 Z" /><glyph glyph-name="uni02E0" unicode="&#x2e0;" d="M495 680 q70 -130 91 -187.5 q21 -57.5 21 -93.5 q0 -102 -58.5 -158.5 q-58.5 -56.5 -167.5 -56.5 q-106 0 -167 57 q-61 57 -61 158 q0 40 19 96.5 q19 56.5 81 173.5 l-259 583 l201 0 l177 -434 l185 434 l199 0 l-261 -572 ZM436 398 q0 70 -60 179 q-58 -116 -58 -179 q0 -78 58 -78 q29 0 44.5 20.5 q15.5 20.5 15.5 57.5 Z" /><glyph glyph-name="uni02E1" unicode="&#x2e1;" d="M49 491 l0 1046 l191 0 l0 -1046 l-191 0 Z" /><glyph glyph-name="uni02E2" unicode="&#x2e2;" d="M718 712 q0 -113 -89 -175 q-89 -62 -240 -62 q-152 0 -233 49 q-81 49 -107 155 l168 26 q14 -54 50 -76.5 q36 -22.5 122 -22.5 q84 0 118.5 22 q34.5 22 34.5 65 q0 37 -30.5 58.5 q-30.5 21.5 -99.5 35.5 q-155 32 -213.5 60 q-58.5 28 -89 74 q-30.5 46 -30.5 114 q0 109 79.5 170 q79.5 61 231.5 61 q133 0 212 -53.5 q79 -53.5 99 -152.5 l-170 -18 q-9 48 -41 70.5 q-32 22.5 -100 22.5 q-68 0 -102 -18 q-34 -18 -34 -61 q0 -26 14 -41.5 q14 -15.5 39.5 -25.5 q25.5 -10 60 -18 q34.5 -8 76.5 -18 q110 -24 163.5 -53 q53.5 -29 82 -74.5 q28.5 -45.5 28.5 -113.5 Z" /><glyph glyph-name="uni02E5" unicode="&#x2e5;" d="M634 0 l-179 0 l0 1313 l-305 0 l0 171 l484 0 l0 -1484 Z" /><glyph glyph-name="uni02E6" unicode="&#x2e6;" d="M634 0 l-179 0 l0 976 l-305 0 l0 171 l305 0 l0 337 l179 0 l0 -1484 Z" /><glyph glyph-name="uni02E7" unicode="&#x2e7;" d="M634 0 l-179 0 l0 646 l-305 0 l0 171 l305 0 l0 667 l179 0 l0 -1484 Z" /><glyph glyph-name="uni02E8" unicode="&#x2e8;" d="M634 0 l-179 0 l0 321 l-305 0 l0 171 l305 0 l0 992 l179 0 l0 -1484 Z" /><glyph glyph-name="uni02E9" unicode="&#x2e9;" d="M634 0 l-484 0 l0 171 l305 0 l0 1313 l179 0 l0 -1484 Z" /><glyph glyph-name="uni02EA" unicode="&#x2ea;" d="M585 0 l-487 0 l0 880 l117 0 l0 -766 l370 0 l0 -114 Z" /><glyph glyph-name="uni02EB" unicode="&#x2eb;" d="M585 383 l-370 0 l0 -383 l-117 0 l0 880 l117 0 l0 -383 l370 0 l0 -114 Z" /><glyph glyph-name="uni02ED" unicode="&#x2ed;" d="M647 1426 l-612 0 l0 138 l612 0 l0 -138 ZM647 1194 l-612 0 l0 138 l612 0 l0 -138 Z" /><glyph glyph-name="uni02EE" unicode="&#x2ee;" d="M893 1217 q0 -118 -24.5 -209 q-24.5 -91 -84.5 -177 l-184 0 q133 168 133 318 l-127 0 l0 260 l287 0 l0 -192 ZM422 1217 q0 -125 -25 -214.5 q-25 -89.5 -84 -171.5 l-182 0 q131 168 131 318 l-127 0 l0 260 l287 0 l0 -192 Z" /><glyph glyph-name="uni02EF" unicode="&#x2ef;" d="M312 -357 l-177 289 l127 0 l79 -158 l79 158 l127 0 l-177 -289 l-58 0 Z" /><glyph glyph-name="uni02F0" unicode="&#x2f0;" d="M370 -68 l177 -289 l-127 0 l-79 158 l-79 -158 l-127 0 l177 289 l58 0 Z" /><glyph glyph-name="uni02F1" unicode="&#x2f1;" d="M197 -190 l289 177 l0 -127 l-158 -79 l158 -79 l0 -127 l-289 177 l0 58 Z" /><glyph glyph-name="uni02F2" unicode="&#x2f2;" d="M486 -248 l-289 -177 l0 127 l158 79 l-158 79 l0 127 l289 -177 l0 -58 Z" /><glyph glyph-name="uni02F3" unicode="&#x2f3;" d="M532 -233 q0 -82 -54.5 -137 q-54.5 -55 -136.5 -55 q-80 0 -136 54 q-56 54 -56 138 q0 83 56 137 q56 54 136 54 q81 0 136 -54.5 q55 -54.5 55 -136.5 ZM434 -233 q0 42 -25.5 68 q-25.5 26 -67.5 26 q-42 0 -66.5 -26 q-24.5 -26 -24.5 -68 q0 -43 24.5 -70 q24.5 -27 66.5 -27 q42 0 67.5 27 q25.5 27 25.5 70 Z" /><glyph glyph-name="uni02F4" unicode="&#x2f4;" d="M346 195 l-281 244 l0 38 l258 0 l172 -255 l0 -27 l-149 0 Z" /><glyph glyph-name="uni02F5" unicode="&#x2f5;" d="M216 195 l-281 244 l0 38 l258 0 l172 -255 l0 -27 l-149 0 ZM586 195 l-281 244 l0 38 l258 0 l172 -255 l0 -27 l-149 0 Z" /><glyph glyph-name="uni02F6" unicode="&#x2f6;" d="M305 195 l0 27 l172 255 l258 0 l0 -38 l-281 -244 l-149 0 ZM-65 195 l0 27 l172 255 l258 0 l0 -38 l-281 -244 l-149 0 Z" /><glyph glyph-name="uni02F7" unicode="&#x2f7;" d="M491 -371 q-40 0 -80 17.5 q-40 17.5 -78 38 q-38 20.5 -72 38 q-34 17.5 -61 17.5 q-37 0 -57.5 -23.5 q-20.5 -23.5 -30.5 -87.5 l-124 0 q8 102 29.5 153.5 q21.5 51.5 63.5 81 q42 29.5 110 29.5 q41 0 82 -17 q41 -17 78.5 -38 q37.5 -21 71 -38 q33.5 -17 59.5 -17 q44 0 62 29 q18 29 27 81 l122 0 q-5 -98 -27 -150.5 q-22 -52.5 -64 -83 q-42 -30.5 -111 -30.5 Z" /><glyph glyph-name="uni02F8" unicode="&#x2f8;" d="M197 1202 l0 282 l288 0 l0 -282 l-288 0 ZM197 450 l0 281 l288 0 l0 -281 l-288 0 Z" /><glyph glyph-name="uni02F9" unicode="&#x2f9;" d="M169 1484 l349 0 l0 -113 l-233 0 l0 -219 l-116 0 l0 332 Z" /><glyph glyph-name="uni02FA" unicode="&#x2fa;" d="M518 1152 l-116 0 l0 219 l-233 0 l0 113 l349 0 l0 -332 Z" /><glyph glyph-name="uni02FB" unicode="&#x2fb;" d="M169 -75 l116 0 l0 -219 l233 0 l0 -113 l-349 0 l0 332 Z" /><glyph glyph-name="uni02FC" unicode="&#x2fc;" d="M518 -407 l-349 0 l0 113 l233 0 l0 219 l116 0 l0 -332 Z" /><glyph glyph-name="uni02FD" unicode="&#x2fd;" d="M784 -425 l-754 0 l0 381 l162 0 l0 -222 l429 0 l0 222 l163 0 l0 -381 Z" /><glyph glyph-name="uni02FE" unicode="&#x2fe;" d="M784 -425 l-754 0 l0 381 l162 0 l0 -222 l592 0 l0 -159 Z" /><glyph glyph-name="uni02FF" unicode="&#x2ff;" d="M625 -186 l-419 0 l166 -239 l-117 0 l-197 283 l0 14 l197 283 l117 0 l-166 -239 l419 0 l0 -102 Z" /><glyph glyph-name="gravecomb" unicode="&#x300;" d="M-274 1572 l-281 244 l0 38 l258 0 l172 -255 l0 -27 l-149 0 Z" /><glyph glyph-name="acutecomb" unicode="&#x301;" d="M-415 1572 l0 27 l172 255 l258 0 l0 -38 l-281 -244 l-149 0 Z" /><glyph glyph-name="tildecomb" unicode="&#x303;" d="M-427 1571 q-40 0 -80 17.5 q-40 17.5 -78 38 q-38 20.5 -72 38 q-34 17.5 -61 17.5 q-37 0 -57.5 -23.5 q-20.5 -23.5 -30.5 -87.5 l-124 0 q8 102 29.5 153.5 q21.5 51.5 63.5 81 q42 29.5 110 29.5 q41 0 82 -17 q41 -17 78.5 -38 q37.5 -21 71 -38 q33.5 -17 59.5 -17 q44 0 62 29 q18 29 27 81 l122 0 q-5 -98 -27 -150.5 q-22 -52.5 -64 -83 q-42 -30.5 -111 -30.5 Z" /><glyph glyph-name="uni0304" unicode="&#x304;" d="M-307 1484 l612 0 l0 -168 l-612 0 l0 168 Z" /><glyph glyph-name="uni0305" unicode="&#x305;" d="M-600 1600 l0 78 l1177 0 l0 -78 l-1177 0 Z" /><glyph glyph-name="uni0306" unicode="&#x306;" d="M-2 1193 q-151 0 -246 91 q-95 91 -106 232 l163 0 q16 -77 68 -121.5 q52 -44.5 123 -44.5 q71 0 123.5 43.5 q52.5 43.5 66.5 122.5 l164 0 q-18 -148 -110.5 -235.5 q-92.5 -87.5 -245.5 -87.5 Z" /><glyph glyph-name="uni0307" unicode="&#x307;" d="M-141 1267 l0 207 l281 0 l0 -207 l-281 0 Z" /><glyph glyph-name="uni0308" unicode="&#x308;" d="M109 1265 l0 219 l217 0 l0 -219 l-217 0 ZM-325 1265 l0 219 l214 0 l0 -219 l-214 0 Z" /><glyph glyph-name="hookabovecomb" unicode="&#x309;" d="M-231 1668 q0 62 -147 62 q-52 0 -108 -8 l-11 102 q55 11 167 11 q141 0 215 -39.5 q74 -39.5 74 -112.5 q0 -53 -44 -89 q-44 -36 -138 -43 l0 -60 l-150 0 l0 120 q142 0 142 57 Z" /><glyph glyph-name="uni030A" unicode="&#x30a;" d="M191 1343 q0 -82 -54.5 -137 q-54.5 -55 -136.5 -55 q-80 0 -136 54 q-56 54 -56 138 q0 83 56 137 q56 54 136 54 q81 0 136 -54.5 q55 -54.5 55 -136.5 ZM93 1343 q0 42 -25.5 68 q-25.5 26 -67.5 26 q-42 0 -66.5 -26 q-24.5 -26 -24.5 -68 q0 -43 24.5 -70 q24.5 -27 66.5 -27 q42 0 67.5 27 q25.5 27 25.5 70 Z" /><glyph glyph-name="uni030B" unicode="&#x30b;" d="M-326 1184 l-142 0 l0 34 l225 266 l235 0 l0 -43 l-318 -257 ZM80 1184 l-142 0 l0 34 l225 266 l235 0 l0 -43 l-318 -257 Z" /><glyph glyph-name="uni030D" unicode="&#x30d;" d="M74 1125 l-148 0 l0 359 l148 0 l0 -359 Z" /><glyph glyph-name="uni030E" unicode="&#x30e;" d="M-56 1125 l-144 0 l0 359 l144 0 l0 -359 ZM200 1125 l-144 0 l0 359 l144 0 l0 -359 Z" /><glyph glyph-name="uni030F" unicode="&#x30f;" d="M-62 1441 l0 43 l235 0 l225 -266 l0 -34 l-142 0 l-318 257 ZM-468 1441 l0 43 l235 0 l225 -266 l0 -34 l-142 0 l-318 257 Z" /><glyph glyph-name="uni0310" unicode="&#x310;" d="M-136 1504 l0 207 l276 0 l0 -207 l-276 0 ZM0 1180 q-148 0 -240.5 86.5 q-92.5 86.5 -103.5 229.5 l163 0 q16 -78 64 -117 q48 -39 117 -39 q72 0 119 39 q47 39 61 117 l164 0 q-18 -152 -106.5 -234 q-88.5 -82 -237.5 -82 Z" /><glyph glyph-name="uni0311" unicode="&#x311;" d="M0 1344 q-68 0 -118.5 -40.5 q-50.5 -40.5 -64.5 -115.5 l-157 0 q18 144 107 223.5 q89 79.5 233 79.5 q144 0 233 -79.5 q89 -79.5 107 -223.5 l-157 0 q-14 75 -64 115.5 q-50 40.5 -119 40.5 Z" /><glyph glyph-name="uni0312" unicode="&#x312;" d="M-146 831 l0 195 q0 121 26 213.5 q26 92.5 82 169.5 l183 0 q-62 -78 -96.5 -161.5 q-34.5 -83.5 -34.5 -155.5 l127 0 l0 -261 l-287 0 Z" /><glyph glyph-name="uni0313" unicode="&#x313;" d="M145 1409 l0 -195 q0 -121 -26 -213.5 q-26 -92.5 -82 -169.5 l-183 0 q62 78 96.5 161.5 q34.5 83.5 34.5 155.5 l-127 0 l0 261 l287 0 Z" /><glyph glyph-name="uni0314" unicode="&#x314;" d="M141 1409 l0 -261 l-127 0 q0 -72 34.5 -156 q34.5 -84 96.5 -161 l-183 0 q-56 78 -82 169 q-26 91 -26 214 l0 195 l287 0 Z" /><glyph glyph-name="uni0315" unicode="&#x315;" d="M311 1409 l0 -195 q0 -121 -26 -213.5 q-26 -92.5 -82 -169.5 l-183 0 q62 78 96.5 161.5 q34.5 83.5 34.5 155.5 l-127 0 l0 261 l287 0 Z" /><glyph glyph-name="uni0316" unicode="&#x316;" d="M66 -404 l-281 244 l0 38 l258 0 l172 -255 l0 -27 l-149 0 Z" /><glyph glyph-name="uni0317" unicode="&#x317;" d="M-215 -404 l0 27 l172 255 l258 0 l0 -38 l-281 -244 l-149 0 Z" /><glyph glyph-name="uni0318" unicode="&#x318;" d="M160 -60 l0 -365 l-124 0 l0 121 l-224 0 l0 124 l224 0 l0 120 l124 0 Z" /><glyph glyph-name="uni0319" unicode="&#x319;" d="M-36 -60 l0 -120 l224 0 l0 -124 l-224 0 l0 -121 l-124 0 l0 365 l124 0 Z" /><glyph glyph-name="uni031A" unicode="&#x31a;" d="M377 1210 l-163 0 l0 313 l-591 0 l0 159 l754 0 l0 -472 Z" /><glyph glyph-name="uni031B" unicode="&#x31b;" d="M-20 897 q107 14 164.5 79.5 q57.5 65.5 57.5 172.5 l-125 0 l0 260 l263 0 l0 -210 q0 -188 -86 -298.5 q-86 -110.5 -274 -139.5 l0 136 Z" /><glyph glyph-name="uni031C" unicode="&#x31c;" d="M114 -434 q-106 0 -167.5 51.5 q-61.5 51.5 -61.5 145.5 q0 94 62.5 145.5 q62.5 51.5 166.5 51.5 l0 -118 q-102 0 -102 -79 q0 -36 24.5 -58.5 q24.5 -22.5 77.5 -22.5 l0 -116 Z" /><glyph glyph-name="uni031D" unicode="&#x31d;" d="M182 -425 l-365 0 l0 124 l122 0 l0 224 l124 0 l0 -224 l119 0 l0 -124 Z" /><glyph glyph-name="uni031E" unicode="&#x31e;" d="M182 -201 l-119 0 l0 -224 l-124 0 l0 224 l-122 0 l0 124 l365 0 l0 -124 Z" /><glyph glyph-name="uni031F" unicode="&#x31f;" d="M184 -311 l-123 0 l0 -114 l-123 0 l0 114 l-123 0 l0 113 l123 0 l0 121 l123 0 l0 -121 l123 0 l0 -113 Z" /><glyph glyph-name="uni0320" unicode="&#x320;" d="M-429 -298 l0 185 l858 0 l0 -185 l-858 0 Z" /><glyph glyph-name="uni0321" unicode="&#x321;" d="M280 100 l0 -177 q0 -177 -78.5 -262.5 q-78.5 -85.5 -243.5 -85.5 q-48 0 -106 5.5 q-58 5.5 -86 11.5 l0 211 q58 -12 105 -12 q129 0 129 125 l0 184 l280 0 Z" /><glyph glyph-name="uni0322" unicode="&#x322;" d="M280 100 l0 -184 q0 -125 129 -125 q47 0 105 12 l0 -211 q-27 -5 -83 -11 q-56 -6 -109 -6 q-166 0 -244 86 q-78 86 -78 262 l0 177 l280 0 Z" /><glyph glyph-name="uni0324" unicode="&#x324;" d="M108 -398 l0 219 l217 0 l0 -219 l-217 0 ZM-326 -398 l0 219 l214 0 l0 -219 l-214 0 Z" /><glyph glyph-name="uni0325" unicode="&#x325;" d="M191 -233 q0 -82 -54.5 -137 q-54.5 -55 -136.5 -55 q-80 0 -136 54 q-56 54 -56 138 q0 83 56 137 q56 54 136 54 q81 0 136 -54.5 q55 -54.5 55 -136.5 ZM93 -233 q0 42 -25.5 68 q-25.5 26 -67.5 26 q-42 0 -66.5 -26 q-24.5 -26 -24.5 -68 q0 -43 24.5 -70 q24.5 -27 66.5 -27 q42 0 67.5 27 q25.5 27 25.5 70 Z" /><glyph glyph-name="uni0326" unicode="&#x326;" d="M122 -204 q0 -73 -21.5 -131.5 q-21.5 -58.5 -72.5 -119.5 l-137 0 q94 100 94 170 l-108 0 l0 207 l245 0 l0 -126 Z" /><glyph glyph-name="uni0327" unicode="&#x327;" d="M274 -204 q0 -101 -95 -158 q-95 -57 -267 -57 q-92 0 -173 13 l0 123 q77 -11 154 -11 q86 0 134.5 23 q48.5 23 48.5 66 q0 84 -123 84 q-63 0 -131 -20 l30 107 q20 4 38 8 q18 4 37 6.5 q19 2.5 40 4 q21 1.5 46 1.5 q121 0 191 -51 q70 -51 70 -139 Z" /><glyph glyph-name="uni0328" unicode="&#x328;" d="M53 -425 q-111 0 -174 54 q-63 54 -63 146 q0 66 34.5 126.5 q34.5 60.5 90.5 98.5 l158 0 q-50 -41 -75.5 -91.5 q-25.5 -50.5 -25.5 -97.5 q0 -42 24.5 -67.5 q24.5 -25.5 69.5 -25.5 q54 0 112 27 l0 -137 q-63 -33 -151 -33 Z" /><glyph glyph-name="uni0329" unicode="&#x329;" d="M74 -425 l-148 0 l0 359 l148 0 l0 -359 Z" /><glyph glyph-name="uni032A" unicode="&#x32a;" d="M377 -425 l-163 0 l0 222 l-429 0 l0 -222 l-162 0 l0 381 l754 0 l0 -381 Z" /><glyph glyph-name="uni032B" unicode="&#x32b;" d="M335 -129 q-2 -105 -51.5 -164.5 q-49.5 -59.5 -137.5 -59.5 q-90 0 -145 61 q-55 -61 -146 -61 q-90 0 -140 62 q-50 62 -50 162 l104 0 q0 -113 92 -113 q90 0 90 113 l99 0 q0 -113 92 -113 q90 0 90 113 l103 0 Z" /><glyph glyph-name="uni032D" unicode="&#x32d;" d="M370 -395 l0 -29 l-159 0 l-203 151 l-4 0 l-211 -151 l-160 0 l0 29 l258 276 l229 0 l250 -276 Z" /><glyph glyph-name="uni032F" unicode="&#x32f;" d="M-2 -119 q143 0 235 -76 q92 -76 111 -212 l-164 0 q-14 64 -61 100 q-47 36 -119 36 q-69 0 -117 -36 q-48 -36 -64 -100 l-163 0 q11 127 104 207.5 q93 80.5 238 80.5 Z" /><glyph glyph-name="uni0330" unicode="&#x330;" d="M168 -391 q-44 0 -88.5 19 q-44.5 19 -86.5 42.5 q-42 23.5 -79.5 42.5 q-37.5 19 -67.5 19 q-41 0 -62.5 -23 q-21.5 -23 -35.5 -100 l-137 0 q8 113 32.5 169.5 q24.5 56.5 70.5 90 q46 33.5 122 33.5 q45 0 90 -19 q45 -19 87 -42.5 q42 -23.5 78.5 -42.5 q36.5 -19 65.5 -19 q40 0 62.5 24.5 q22.5 24.5 36.5 98.5 l135 0 q-7 -157 -63.5 -225 q-56.5 -68 -159.5 -68 Z" /><glyph glyph-name="uni0331" unicode="&#x331;" d="M-305 -169 l612 0 l0 -168 l-612 0 l0 168 Z" /><glyph glyph-name="uni0333" unicode="&#x333;" d="M-315 -398 l0 203 l627 0 l0 -203 l-627 0 ZM-315 -771 l0 201 l627 0 l0 -201 l-627 0 Z" /><glyph glyph-name="uni0335" unicode="&#x335;" d="M325 255 l-650 0 l0 211 l650 0 l0 -211 Z" /><glyph glyph-name="uni0336" unicode="&#x336;" d="M581 255 l-1167 0 l0 211 l1167 0 l0 -211 Z" /><glyph glyph-name="uni0337" unicode="&#x337;" d="M-482 130 l822 810 l145 -149 l-820 -813 l-147 152 Z" /><glyph glyph-name="uni0338" unicode="&#x338;" d="M-250 -41 l291 1525 l209 0 l-286 -1525 l-214 0 Z" /><glyph glyph-name="uni0339" unicode="&#x339;" d="M-116 -318 q53 0 77.5 22.5 q24.5 22.5 24.5 58.5 q0 79 -102 79 l0 118 q105 0 167 -52 q62 -52 62 -145 q0 -94 -61.5 -145.5 q-61.5 -51.5 -167.5 -51.5 l0 116 Z" /><glyph glyph-name="uni033A" unicode="&#x33a;" d="M377 -425 l-754 0 l0 381 l162 0 l0 -222 l429 0 l0 222 l163 0 l0 -381 Z" /><glyph glyph-name="uni033B" unicode="&#x33b;" d="M188 -425 l-376 0 l0 376 l376 0 l0 -376 ZM90 -327 l0 180 l-180 0 l0 -180 l180 0 Z" /><glyph glyph-name="uni033C" unicode="&#x33c;" d="M225 -297 q-9 34 -29.5 47 q-20.5 13 -53.5 13 q-92 0 -92 -113 l-99 0 q0 113 -90 113 q-34 0 -55 -13 q-21 -13 -30 -47 l-112 0 q14 80 64.5 125.5 q50.5 45.5 126.5 45.5 q91 0 146 -61 q55 61 141 61 q77 0 129 -45 q52 -45 65 -126 l-111 0 Z" /><glyph glyph-name="uni033D" unicode="&#x33d;" d="M210 1239 l-93 -93 l-117 121 l-116 -121 l-93 93 l120 117 l-120 117 l93 93 l116 -119 l117 119 l93 -93 l-118 -117 l118 -117 Z" /><glyph glyph-name="uni033E" unicode="&#x33e;" d="M-100 1501 q0 50 23 80.5 q23 30.5 61.5 46.5 q38.5 16 115.5 21 l0 -89 q-38 -7 -62 -20 q-24 -13 -24 -45 q0 -19 13.5 -43.5 q13.5 -24.5 29.5 -52 q16 -27.5 29.5 -57.5 q13.5 -30 13.5 -60 q0 -65 -44.5 -102.5 q-44.5 -37.5 -155.5 -45.5 l0 91 q38 6 60.5 18 q22.5 12 22.5 46 q0 20 -13 44.5 q-13 24.5 -28.5 52.5 q-15.5 28 -28.5 57 q-13 29 -13 58 Z" /><glyph glyph-name="uni033F" unicode="&#x33f;" d="M-589 1572 l0 78 l1177 0 l0 -78 l-1177 0 ZM-589 1744 l0 78 l1177 0 l0 -78 l-1177 0 Z" /><glyph glyph-name="uni0340" unicode="&#x340;" d="M-149 1202 l-281 244 l0 38 l258 0 l172 -255 l0 -27 l-149 0 Z" /><glyph glyph-name="uni0341" unicode="&#x341;" d="M0 1202 l0 27 l172 255 l258 0 l0 -38 l-281 -244 l-149 0 Z" /><glyph glyph-name="uni0342" unicode="&#x342;" d="M151 1196 q-40 0 -80 17.5 q-40 17.5 -78 38 q-38 20.5 -72 38 q-34 17.5 -61 17.5 q-37 0 -57.5 -23.5 q-20.5 -23.5 -30.5 -87.5 l-124 0 q8 102 29.5 153.5 q21.5 51.5 63.5 81 q42 29.5 110 29.5 q41 0 82 -17 q41 -17 78.5 -38 q37.5 -21 71 -38 q33.5 -17 59.5 -17 q44 0 62 29 q18 29 27 81 l122 0 q-5 -98 -27 -150.5 q-22 -52.5 -64 -83 q-42 -30.5 -111 -30.5 Z" /><glyph glyph-name="uni0343" unicode="&#x343;" d="M145 1289 q0 -121 -24.5 -210 q-24.5 -89 -84.5 -173 l-182 0 q131 168 131 318 l-127 0 l0 260 l287 0 l0 -195 Z" /><glyph glyph-name="uni0344" unicode="&#x344;" d="M-140 1183 l0 33 l69 292 l257 0 l0 -37 l-221 -288 l-105 0 ZM248 1199 l0 219 l217 0 l0 -219 l-217 0 ZM-465 1199 l0 219 l214 0 l0 -219 l-214 0 Z" /><glyph glyph-name="uni0345" unicode="&#x345;" d="M69 -232 q0 -33 10.5 -44.5 q10.5 -11.5 34.5 -11.5 q14 0 47 6 l0 -132 q-44 -11 -97 -11 q-72 0 -114.5 40.5 q-42.5 40.5 -42.5 111.5 l0 146 l162 0 l0 -105 Z" /><glyph glyph-name="uni0346" unicode="&#x346;" d="M377 1194 l-163 0 l0 222 l-429 0 l0 -222 l-162 0 l0 381 l754 0 l0 -381 Z" /><glyph glyph-name="uni0347" unicode="&#x347;" d="M-499 -236 l0 106 l995 0 l0 -106 l-995 0 ZM-499 -425 l0 106 l995 0 l0 -106 l-995 0 Z" /><glyph glyph-name="uni0348" unicode="&#x348;" d="M-57 -425 l-138 0 l0 359 l138 0 l0 -359 ZM195 -425 l-138 0 l0 359 l138 0 l0 -359 Z" /><glyph glyph-name="uni0349" unicode="&#x349;" d="M161 -407 l-116 0 l0 219 l-233 0 l0 113 l349 0 l0 -332 Z" /><glyph glyph-name="uni034A" unicode="&#x34a;" d="M-80 1315 q-37 16 -58 16 q-37 0 -57.5 -23.5 q-20.5 -23.5 -30.5 -87.5 l-124 0 q8 102 29.5 153.5 q21.5 51.5 63.5 81 q42 29.5 110 29.5 q55 0 138 -43 l59 104 l95 -53 l-58 -102 q34 -16 57 -16 q44 0 62 29 q18 29 27 81 l122 0 q-5 -98 -27 -150.5 q-22 -52.5 -64 -83 q-42 -30.5 -111 -30.5 q-50 0 -138 44 l-69 -122 l-94 54 l68 119 Z" /><glyph glyph-name="uni034B" unicode="&#x34b;" d="M-69 1681 l0 154 l138 0 l0 -154 l-138 0 ZM120 1441 q-32 0 -64 14 q-32 14 -62.5 30.5 q-30.5 16.5 -57.5 30.5 q-27 14 -49 14 q-32 0 -47.5 -19.5 q-15.5 -19.5 -22.5 -69.5 l-100 0 q8 87 25.5 126 q17.5 39 50.5 62.5 q33 23.5 87 23.5 q33 0 65.5 -14 q32.5 -14 63 -30.5 q30.5 -16.5 57 -30 q26.5 -13.5 47.5 -13.5 q35 0 49 23 q14 23 22 65 l97 0 q-5 -83 -22.5 -123.5 q-17.5 -40.5 -51 -64.5 q-33.5 -24 -87.5 -24 ZM-69 1259 l0 154 l138 0 l0 -154 l-138 0 Z" /><glyph glyph-name="uni034C" unicode="&#x34c;" d="M151 1492 q-40 0 -80 17.5 q-40 17.5 -78 38 q-38 20.5 -72 38 q-34 17.5 -61 17.5 q-37 0 -57.5 -23.5 q-20.5 -23.5 -30.5 -87.5 l-124 0 q8 102 29.5 153.5 q21.5 51.5 63.5 81 q42 29.5 110 29.5 q41 0 82 -17 q41 -17 78.5 -38 q37.5 -21 71 -38 q33.5 -17 59.5 -17 q44 0 62 29 q18 29 27 81 l122 0 q-5 -98 -27 -150.5 q-22 -52.5 -64 -83 q-42 -30.5 -111 -30.5 ZM151 1183 q-40 0 -80 17.5 q-40 17.5 -78 38 q-38 20.5 -72 38 q-34 17.5 -61 17.5 q-37 0 -57.5 -23.5 q-20.5 -23.5 -30.5 -87.5 l-124 0 q8 102 29.5 153.5 q21.5 51.5 63.5 81 q42 29.5 110 29.5 q41 0 82 -17 q41 -17 78.5 -38 q37.5 -21 71 -38 q33.5 -17 59.5 -17 q44 0 62 29 q18 29 27 81 l122 0 q-5 -98 -27 -150.5 q-22 -52.5 -64 -83 q-42 -30.5 -111 -30.5 Z" /><glyph glyph-name="uni034D" unicode="&#x34d;" d="M258 -234 l-142 -180 l0 124 l-232 0 l0 -124 l-142 180 l142 182 l0 -124 l232 0 l0 124 l142 -182 Z" /><glyph glyph-name="uni034E" unicode="&#x34e;" d="M-56 -425 l0 231 l-124 0 l180 142 l182 -142 l-124 0 l0 -231 l-114 0 Z" /><glyph glyph-name="uni034F" unicode="&#x34f;" d="M746 1155 l-109 0 l0 220 l-224 0 l0 109 l333 0 l0 -329 ZM167 1375 l-334 0 l0 109 l334 0 l0 -109 ZM746 575 l-109 0 l0 334 l109 0 l0 -334 ZM379 1056 q0 -54 -52 -54 q-56 0 -56 54 q0 55 56 55 q52 0 52 -55 ZM230 1155 q0 -54 -52 -54 q-57 0 -57 54 q0 55 57 55 q52 0 52 -55 ZM479 907 q0 -56 -55 -56 q-54 0 -54 56 q0 53 56 53 q53 0 53 -53 ZM515 731 q0 -54 -52 -54 q-56 0 -56 54 q0 55 56 55 q52 0 52 -55 ZM55 1192 q0 -56 -54 -56 q-55 0 -55 56 q0 53 55 53 q54 0 54 -53 ZM-119 1155 q0 -54 -56 -54 q-53 0 -53 54 q0 55 53 55 q56 0 56 -55 ZM479 556 q0 -53 -55 -53 q-54 0 -54 53 q0 56 54 56 q55 0 55 -56 ZM-413 1375 l-224 0 l0 -220 l-109 0 l0 329 l333 0 l0 -109 ZM746 0 l-333 0 l0 109 l224 0 l0 220 l109 0 l0 -329 ZM-269 1056 q0 -54 -54 -54 q-54 0 -54 51 q0 58 54 58 q54 0 54 -55 ZM381 405 q0 -53 -54 -53 q-54 0 -54 53 q0 55 54 55 q54 0 54 -55 ZM231 306 q0 -52 -53 -52 q-56 0 -56 52 q0 57 56 57 q53 0 53 -57 ZM-368 907 q0 -56 -53 -56 q-56 0 -56 56 q0 53 54 53 q55 0 55 -53 ZM-403 731 q0 -54 -54 -54 q-54 0 -54 54 q0 55 54 55 q54 0 54 -55 ZM55 273 q0 -55 -54 -55 q-55 0 -55 55 q0 53 55 53 q54 0 54 -53 ZM-368 556 q0 -53 -55 -53 q-54 0 -54 53 q0 56 54 56 q55 0 55 -56 ZM-119 310 q0 -56 -56 -56 q-53 0 -53 52 q0 57 53 57 q56 0 56 -53 ZM-269 405 q0 -53 -54 -53 q-54 0 -54 53 q0 55 54 55 q54 0 54 -55 ZM-637 575 l-109 0 l0 334 l109 0 l0 -334 ZM167 0 l-334 0 l0 109 l334 0 l0 -109 ZM-413 0 l-333 0 l0 329 l109 0 l0 -220 l224 0 l0 -109 Z" /><glyph glyph-name="uni0350" unicode="&#x350;" d="M144 1308 l-289 -177 l0 127 l158 79 l-158 79 l0 127 l289 -177 l0 -58 Z" /><glyph glyph-name="uni0351" unicode="&#x351;" d="M114 1143 q-106 0 -167.5 51.5 q-61.5 51.5 -61.5 145.5 q0 94 62.5 145.5 q62.5 51.5 166.5 51.5 l0 -118 q-102 0 -102 -79 q0 -36 24.5 -58.5 q24.5 -22.5 77.5 -22.5 l0 -116 Z" /><glyph glyph-name="uni0352" unicode="&#x352;" d="M-138 1237 l0 207 l281 0 l0 -207 l-281 0 ZM0 1756 q143 0 228 -77.5 q85 -77.5 93 -213.5 l-148 0 q0 70 -48 110 q-48 40 -123 40 q-74 0 -123 -40.5 q-49 -40.5 -49 -109.5 l-147 0 q2 130 89 210.5 q87 80.5 228 80.5 Z" /><glyph glyph-name="uni0353" unicode="&#x353;" d="M210 -337 l-93 -93 l-117 121 l-116 -121 l-93 93 l120 117 l-120 117 l93 93 l116 -119 l117 119 l93 -93 l-118 -117 l118 -117 Z" /><glyph glyph-name="uni0354" unicode="&#x354;" d="M-145 -190 l289 177 l0 -127 l-158 -79 l158 -79 l0 -127 l-289 177 l0 58 Z" /><glyph glyph-name="uni0355" unicode="&#x355;" d="M144 -248 l-289 -177 l0 127 l158 79 l-158 79 l0 127 l289 -177 l0 -58 Z" /><glyph glyph-name="uni0356" unicode="&#x356;" d="M0 -248 l-289 -177 l0 127 l158 79 l-158 79 l0 127 l289 -177 l0 -58 ZM234 -72 l177 -289 l-126 0 l-80 158 l-78 -158 l-128 0 l177 289 l58 0 Z" /><glyph glyph-name="uni0357" unicode="&#x357;" d="M-114 1259 q53 0 77.5 22.5 q24.5 22.5 24.5 58.5 q0 79 -102 79 l0 118 q105 0 167 -52 q62 -52 62 -145 q0 -94 -61.5 -145.5 q-61.5 -51.5 -167.5 -51.5 l0 116 Z" /><glyph glyph-name="uni0358" unicode="&#x358;" d="M431 1266 q0 -38 -26 -64 q-26 -26 -64 -26 q-38 0 -64 26 q-26 26 -26 64 q0 38 26 64 q26 26 64 26 q38 0 64 -26 q26 -26 26 -64 Z" /><glyph glyph-name="uni0359" unicode="&#x359;" d="M44 -191 l113 50 l33 -95 l-120 -29 l89 -102 l-88 -58 l-70 121 l-72 -121 l-89 59 l91 101 l-120 29 l33 95 l114 -50 l-8 132 l103 0 l-9 -132 Z" /><glyph glyph-name="uni035A" unicode="&#x35a;" d="M337 -233 q0 -82 -54.5 -137 q-54.5 -55 -136.5 -55 q-92 0 -147 66 q-55 -66 -147 -66 q-80 0 -136 54 q-56 54 -56 138 q0 83 56 137 q56 54 136 54 q93 0 147 -66 q54 66 147 66 q81 0 136 -54.5 q55 -54.5 55 -136.5 ZM239 -233 q0 42 -25.5 68 q-25.5 26 -67.5 26 q-42 0 -66.5 -26 q-24.5 -26 -24.5 -68 q0 -43 24.5 -70 q24.5 -27 66.5 -27 q42 0 67.5 27 q25.5 27 25.5 70 ZM-55 -233 q0 42 -25.5 68 q-25.5 26 -67.5 26 q-42 0 -66.5 -26 q-24.5 -26 -24.5 -68 q0 -43 24.5 -70 q24.5 -27 66.5 -27 q42 0 67.5 27 q25.5 27 25.5 70 Z" /><glyph glyph-name="uni035B" unicode="&#x35b;" d="M207 1449 l-95 -297 l-113 0 l60 189 l-266 0 l95 297 l113 0 l-60 -189 l266 0 Z" /><glyph glyph-name="uni035C" unicode="&#x35c;" d="M1414 -44 q-98 -191 -299.5 -286 q-201.5 -95 -493.5 -95 q-294 0 -495.5 96 q-201.5 96 -298.5 285 l183 0 q100 -126 233 -180 q133 -54 377 -54 q236 0 385 58.5 q149 58.5 226 175.5 l183 0 Z" /><glyph glyph-name="uni035D" unicode="&#x35d;" d="M1414 1601 q-98 -191 -299.5 -286 q-201.5 -95 -493.5 -95 q-294 0 -495.5 96 q-201.5 96 -298.5 285 l183 0 q100 -126 233 -180 q133 -54 377 -54 q236 0 385 58.5 q149 58.5 226 175.5 l183 0 Z" /><glyph glyph-name="uni035E" unicode="&#x35e;" d="M-173 1368 l1224 0 l0 -162 l-1224 0 l0 162 Z" /><glyph glyph-name="uni035F" unicode="&#x35f;" d="M-173 -162 l1224 0 l0 -162 l-1224 0 l0 162 Z" /><glyph glyph-name="uni0360" unicode="&#x360;" d="M1045 1230 q-122 0 -418 68 q-297 68 -419 68 q-90 0 -136 -35.5 q-46 -35.5 -62 -110.5 l-183 0 q17 136 119.5 223.5 q102.5 87.5 248.5 87.5 q122 0 419 -68 q296 -68 418 -68 q89 0 135.5 35.5 q46.5 35.5 62.5 110.5 l183 0 q-17 -136 -119.5 -223.5 q-102.5 -87.5 -248.5 -87.5 Z" /><glyph glyph-name="uni0361" unicode="&#x361;" d="M1231 1220 q-80 119 -228.5 176.5 q-148.5 57.5 -382.5 57.5 q-242 0 -375.5 -53.5 q-133.5 -53.5 -234.5 -180.5 l-183 0 q97 189 299 285 q202 96 495 96 q292 0 493.5 -95.5 q201.5 -95.5 299.5 -285.5 l-183 0 Z" /><glyph glyph-name="uni0362" unicode="&#x362;" d="M-173 -176 l1008 0 l0 124 l142 -182 l-142 -180 l0 124 l-1008 0 l0 114 Z" /><glyph glyph-name="uni0365" unicode="&#x365;" d="M-96 1389 l0 146 l191 0 l0 -146 l-191 0 ZM-96 490 l0 762 l191 0 l0 -762 l-191 0 Z" /><glyph glyph-name="uni036A" unicode="&#x36a;" d="M-145 1100 q39 88 97.5 127.5 q58.5 39.5 139.5 39.5 q119 0 180.5 -75.5 q61.5 -75.5 61.5 -217.5 l0 -484 l-190 0 l0 427 q0 201 -132 201 q-70 0 -112 -62.5 q-42 -62.5 -42 -157.5 l0 -408 l-191 0 l0 1046 l191 0 l0 -285 l-5 -151 l2 0 Z" /><glyph glyph-name="uni036C" unicode="&#x36c;" d="M-205 490 l0 583 q0 135 -5 180 l182 0 q9 -72 9 -163 l3 0 q37 108 74.5 142.5 q37.5 34.5 101.5 34.5 q36 0 59 -10 l0 -166 q-40 11 -82 11 q-71 0 -111 -60 q-40 -60 -40 -178 l0 -374 l-191 0 Z" /><glyph glyph-name="uni036F" unicode="&#x36f;" d="M171 490 l-171 276 l-173 -276 l-203 0 l269 394 l-256 368 l206 0 l157 -249 l156 249 l207 0 l-256 -366 l271 -396 l-207 0 Z" /><glyph glyph-name="uni0374" unicode="&#x374;" d="M217 1202 l0 27 l119 255 l258 0 l0 -38 l-228 -244 l-149 0 Z" /><glyph glyph-name="uni0375" unicode="&#x375;" d="M467 -122 l0 -27 l-119 -255 l-258 0 l0 38 l228 244 l149 0 Z" /><glyph glyph-name="uni037C" unicode="&#x37c;" d="M594 -20 q-246 0 -380 146.5 q-134 146.5 -134 408.5 q0 268 135 417.5 q135 149.5 383 149.5 q191 0 316 -96 q125 -96 157 -265 l-283 -14 q-12 83 -60 132.5 q-48 49.5 -136 49.5 q-217 0 -217 -363 q0 -374 221 -374 q80 0 134 50.5 q54 50.5 67 150.5 l282 -13 q-15 -111 -79 -198 q-64 -87 -168 -134.5 q-104 -47.5 -238 -47.5 ZM484 414 l0 272 l258 0 l0 -272 l-258 0 Z" /><glyph glyph-name="uni037D" unicode="&#x37d;" d="M545 -20 q-133 0 -237.5 47.5 q-104.5 47.5 -168.5 134.5 q-64 87 -79 198 l282 13 q13 -100 67 -150.5 q54 -50.5 134 -50.5 q221 0 221 374 q0 363 -217 363 q-88 0 -136 -49.5 q-48 -49.5 -60 -132.5 l-283 14 q31 169 157 265 q126 96 316 96 q248 0 383 -149.5 q135 -149.5 135 -417.5 q0 -262 -134 -408.5 q-134 -146.5 -380 -146.5 ZM397 414 l0 272 l258 0 l0 -272 l-258 0 Z" /><glyph glyph-name="tonos" unicode="&#x384;" d="M185 1183 l0 33 l69 292 l257 0 l0 -37 l-221 -288 l-105 0 Z" /><glyph glyph-name="dieresistonos" unicode="&#x385;" d="M361 1190 l0 33 l59 398 l237 0 l0 -37 l-181 -394 l-115 0 ZM110 1231 l0 222 l200 0 l0 -222 l-200 0 ZM642 1231 l0 222 l200 0 l0 -222 l-200 0 Z" /><glyph glyph-name="Gamma" unicode="&#x393;" d="M1198 1409 l0 -228 l-766 0 l0 -1180 l-295 0 l0 1408 l1061 0 Z" /><glyph glyph-name="Delta" unicode="&#x394;" d="M567 1409 l345 -1 l476 -1182 l0 -226 l-1305 0 l1 226 l483 1183 ZM1086 244 l-266 698 q-57 155 -83 247 q-1 -6 -6.5 -24.5 q-5.5 -18.5 -23.5 -73.5 q-18 -55 -47 -134.5 q-29 -79.5 -269 -712.5 l695 0 Z" /><glyph glyph-name="Theta" unicode="&#x398;" d="M502 827 l587 0 l0 -228 l-587 0 l0 228 ZM1507 711 q0 -220 -87 -387 q-87 -167 -249 -255.5 q-162 -88.5 -378 -88.5 q-332 0 -520.5 195.5 q-188.5 195.5 -188.5 535.5 q0 339 188 529 q188 190 523 190 q335 0 523.5 -192 q188.5 -192 188.5 -527 ZM1206 711 q0 228 -108 357.5 q-108 129.5 -303 129.5 q-198 0 -306 -128.5 q-108 -128.5 -108 -358.5 q0 -232 110.5 -365.5 q110.5 -133.5 301.5 -133.5 q198 0 305.5 130 q107.5 130 107.5 369 Z" /><glyph glyph-name="Lambda" unicode="&#x39b;" d="M1352 1 l-305 0 l-289 885 q-43 149 -72 266 q-26 -100 -50.5 -186 q-24.5 -86 -313.5 -965 l-308 0 l521 1409 l299 0 l518 -1409 Z" /><glyph glyph-name="Xi" unicode="&#x39e;" d="M119 1409 l1081 0 l0 -228 l-1081 0 l0 228 ZM1235 228 l0 -228 l-1151 0 l0 228 l1151 0 ZM1080 827 l0 -228 l-841 0 l0 228 l841 0 Z" /><glyph glyph-name="Pi" unicode="&#x3a0;" d="M1056 0 l0 1165 l-625 0 l0 -1165 l-294 0 l0 1409 l1204 0 l0 -1409 l-285 0 Z" /><glyph glyph-name="Sigma" unicode="&#x3a3;" d="M90 0 l0 234 l448 507 l-431 435 l0 233 l999 0 l0 -228 l-697 0 l371 -373 l0 -134 l-394 -446 l781 0 l0 -228 l-1077 0 Z" /><glyph glyph-name="Phi" unicode="&#x3a6;" d="M1322 730 q0 152 -79 237 q-79 85 -244 85 l-19 0 l0 -655 l26 0 q152 0 234 86 q82 86 82 247 ZM702 -11 l0 199 l-54 0 q-179 0 -312 68.5 q-133 68.5 -203 193 q-70 124.5 -70 284.5 q0 251 155 389 q155 138 442 138 l42 0 l0 158 l278 0 l0 -158 l42 0 q286 0 441.5 -138 q155.5 -138 155.5 -389 q0 -161 -70 -285 q-70 -124 -203 -192.5 q-133 -68.5 -312 -68.5 l-54 0 l0 -199 l-278 0 ZM360 730 q0 -160 81.5 -246.5 q81.5 -86.5 234.5 -86.5 l26 0 l0 655 l-19 0 q-165 0 -244 -85 q-79 -85 -79 -237 Z" /><glyph glyph-name="Psi" unicode="&#x3a8;" d="M968 427 l0 -427 l-279 0 l0 427 l-40 0 q-280 0 -416.5 128.5 q-136.5 128.5 -136.5 390.5 l0 463 l279 0 l0 -467 q0 -157 70.5 -225.5 q70.5 -68.5 234.5 -68.5 l9 0 l0 761 l279 0 l0 -761 l9 0 q163 0 234 68 q71 68 71 226 l0 467 l279 0 l0 -463 q0 -262 -136 -390.5 q-136 -128.5 -417 -128.5 l-40 0 Z" /><glyph glyph-name="Omega" unicode="&#x3a9;" d="M821 1430 q332 0 521 -161 q189 -161 189 -441 q0 -214 -106 -364 q-106 -150 -320 -247 q114 11 178 11 l276 0 l0 -228 l-671 0 l0 309 q181 86 262 201.5 q81 115.5 81 263.5 q0 203 -108 313.5 q-108 110.5 -304 110.5 q-195 0 -304 -110 q-109 -110 -109 -314 q0 -148 81.5 -263.5 q81.5 -115.5 262.5 -201.5 l0 -309 l-667 0 l0 228 l274 0 q67 0 177 -11 q-216 98 -319.5 248.5 q-103.5 150.5 -103.5 363.5 q0 281 189 441 q189 160 521 160 Z" /><glyph glyph-name="alpha" unicode="&#x3b1;" d="M860 237 q-62 -135 -148 -196 q-86 -61 -211 -61 q-212 0 -316.5 137.5 q-104.5 137.5 -104.5 418.5 q0 284 113.5 425 q113.5 141 333.5 141 q131 0 225.5 -66.5 q94.5 -66.5 142.5 -188.5 l3 0 q25 124 75 235 l265 0 q-50 -91 -103.5 -251 q-53.5 -160 -65.5 -275 q32 -309 136 -556 l-270 0 q-49 120 -71 237 l-4 0 ZM375 539 q0 -196 42.5 -281 q42.5 -85 138.5 -85 q89 0 153 101 q64 101 82 268 q-22 178 -80.5 272 q-58.5 94 -146.5 94 q-102 0 -145.5 -89 q-43.5 -89 -43.5 -280 Z" /><glyph glyph-name="beta" unicode="&#x3b2;" d="M1181 405 q0 -199 -118.5 -312 q-118.5 -113 -334.5 -113 q-170 0 -303 94 l-9 0 q8 -91 8 -202 l0 -297 l-282 0 l0 1452 q0 237 124.5 347 q124.5 110 371.5 110 q213 0 328.5 -90.5 q115.5 -90.5 115.5 -258.5 q0 -253 -223 -340 q150 -29 236 -132.5 q86 -103.5 86 -257.5 ZM424 255 q47 -36 115 -59.5 q68 -23.5 133 -23.5 q113 0 174 66 q61 66 61 181 q0 127 -86.5 192 q-86.5 65 -244.5 65 l0 198 q127 22 183.5 79 q56.5 57 56.5 156 q0 80 -46.5 126 q-46.5 46 -132.5 46 q-113 0 -163 -69 q-50 -69 -50 -221 l0 -736 Z" /><glyph glyph-name="gamma" unicode="&#x3b3;" d="M8 1082 l298 0 l212 -640 q14 -42 33 -127.5 q19 -85.5 21 -126.5 q6 46 25.5 125.5 q19.5 79.5 37.5 133.5 l201 635 l295 0 l-395 -1028 q-93 -243 -123 -478 l-290 0 q33 221 101 435 l-416 1071 Z" /><glyph glyph-name="delta" unicode="&#x3b4;" d="M866 487 q0 110 -45.5 209 q-45.5 99 -153.5 207 q-141 -50 -216 -157.5 q-75 -107.5 -75 -264.5 q0 -145 62 -225 q62 -80 174 -80 q124 0 189 78 q65 78 65 233 ZM734 1294 l-147 7 l323 -293 q131 -119 188.5 -245.5 q57.5 -126.5 57.5 -279.5 q0 -148 -64.5 -262.5 q-64.5 -114.5 -187.5 -177.5 q-123 -63 -287 -63 q-252 0 -391.5 132.5 q-139.5 132.5 -139.5 368.5 q0 382 465 542 l-312 314 l0 147 l853 0 l0 -190 l-358 0 Z" /><glyph glyph-name="epsilon" unicode="&#x3b5;" d="M526 168 q138 0 270 137 l143 -140 q-73 -75 -132.5 -110 q-59.5 -35 -134.5 -55 q-75 -20 -175 -20 q-199 0 -309.5 83 q-110.5 83 -110.5 234 q0 113 78.5 181.5 q78.5 68.5 209.5 79.5 l0 2 q-119 12 -187 79 q-68 67 -68 173 q0 133 115.5 211.5 q115.5 78.5 307.5 78.5 q137 0 228 -38 q91 -38 162 -131 l-162 -123 q-42 57 -92.5 85 q-50.5 28 -119.5 28 q-84 0 -128 -32.5 q-44 -32.5 -44 -89.5 q0 -76 70.5 -112.5 q70.5 -36.5 257.5 -36.5 l0 -177 q-148 0 -210.5 -15 q-62.5 -15 -95.5 -49.5 q-33 -34.5 -33 -96.5 q0 -72 42.5 -109 q42.5 -37 117.5 -37 Z" /><glyph glyph-name="zeta" unicode="&#x3b6;" d="M324 422 q0 -56 20 -90.5 q20 -34.5 55.5 -56 q35.5 -21.5 84 -36 q48.5 -14.5 104.5 -30.5 q144 -40 200.5 -76 q56.5 -36 89.5 -92 q33 -56 33 -143 q0 -67 -29.5 -155 q-29.5 -88 -64.5 -144 l-183 74 q55 92 55 155 q0 40 -20.5 67 q-20.5 27 -63 47 q-42.5 20 -166.5 52 q-159 35 -227.5 75 q-68.5 40 -107 105 q-38.5 65 -38.5 165 q0 194 143 440.5 q143 246.5 408 515.5 l0 4 l-127 -4 l-315 0 l0 189 l701 0 l0 -190 q-268 -264 -410 -488 q-142 -224 -142 -384 Z" /><glyph glyph-name="eta" unicode="&#x3b7;" d="M845 -424 l0 1053 q0 149 -40.5 206 q-40.5 57 -145.5 57 q-111 0 -172.5 -83.5 q-61.5 -83.5 -61.5 -227.5 l0 -581 l-282 0 l0 851 q0 123 -36 231 l269 0 q17 -39 27.5 -91.5 q10.5 -52.5 10.5 -93.5 l3 0 q64 112 148 158.5 q84 46.5 207 46.5 q186 0 269 -90.5 q83 -90.5 83 -290.5 l0 -1145 l-279 0 Z" /><glyph glyph-name="theta" unicode="&#x3b8;" d="M1017 733 q0 -381 -120 -567 q-120 -186 -348 -186 q-224 0 -341.5 190.5 q-117.5 190.5 -117.5 562.5 q0 750 465 750 q239 0 350.5 -184.5 q111.5 -184.5 111.5 -565.5 ZM550 162 q186 0 193 482 l-377 0 q3 -233 50.5 -357.5 q47.5 -124.5 133.5 -124.5 ZM557 1300 q-185 0 -192 -466 l378 0 q-7 466 -186 466 Z" /><glyph glyph-name="iota" unicode="&#x3b9;" d="M199 0 q-30 32 -46 99.5 q-16 67.5 -16 136.5 l0 846 l282 0 l0 -855 q0 -60 21.5 -123.5 q21.5 -63.5 58.5 -103.5 l-300 0 Z" /><glyph glyph-name="kappa" unicode="&#x3ba;" d="M842 0 l-291 455 l-127 -106 l0 -349 l-281 0 l0 1082 l281 0 l0 -494 l397 494 l291 0 l-380 -462 l409 -620 l-299 0 Z" /><glyph glyph-name="lambda" unicode="&#x3bb;" d="M1108 0 l-294 0 q-154 523 -181 617.5 q-27 94.5 -33 141.5 q-15 -58 -51.5 -166 q-36.5 -108 -60.5 -164 l-182 -429 l-297 0 l474 1006 q-45 127 -78.5 198 q-33.5 71 -65 99.5 q-31.5 28.5 -76.5 28.5 q-48 0 -93 -19 l-48 194 q85 30 187 30 q148 0 232 -79.5 q84 -79.5 159 -295.5 l408 -1162 Z" /><glyph glyph-name="mu" unicode="&#x3bc;" d="M849 0 q-1 12 -3.5 34 q-2.5 22 -4.5 48.5 q-2 26.5 -3.5 53.5 q-1.5 27 -1.5 48 l-3 0 q-78 -204 -246 -204 q-52 0 -95.5 24 q-43.5 24 -66.5 66 l-4 0 q4 -43 4 -115 l0 -371 l-281 0 l0 1498 l281 0 l0 -605 q0 -284 184 -284 q97 0 158 83.5 q61 83.5 61 227.5 l0 578 l281 0 l0 -840 q0 -130 8 -242 l-268 0 Z" /><glyph glyph-name="nu" unicode="&#x3bd;" d="M1047 846 q0 -179 -107 -407 q-107 -228 -283 -439 l-267 0 l-390 1082 l297 0 l261 -843 q111 158 159.5 299 q48.5 141 48.5 299 q0 135 -49 245 l280 0 q50 -98 50 -236 Z" /><glyph glyph-name="xi" unicode="&#x3be;" d="M324 420 q0 -55 22.5 -91 q22.5 -36 66 -60.5 q43.5 -24.5 175.5 -59.5 q144 -40 200.5 -76 q56.5 -36 89.5 -92 q33 -56 33 -143 q0 -67 -29.5 -155 q-29.5 -88 -64.5 -144 l-183 74 q55 92 55 155 q0 40 -20.5 67 q-20.5 27 -63 47 q-42.5 20 -166.5 52 q-159 35 -227.5 75 q-68.5 40 -107 105 q-38.5 65 -38.5 165 q0 118 55 217.5 q55 99.5 159.5 165.5 q104.5 66 248.5 88 l0 2 q-154 12 -239 76.5 q-85 64.5 -85 163.5 q0 90 71 153 q71 63 202 88 l0 8 l-254 -8 l-76 0 l0 191 l654 0 l0 -185 q-361 -37 -361 -211 q0 -79 72 -123 q72 -44 246 -58 l0 -191 q-178 -21 -264 -55 q-86 -34 -128.5 -91.5 q-42.5 -57.5 -42.5 -149.5 Z" /><glyph glyph-name="pi" unicode="&#x3c0;" d="M1240 892 l0 -589 q0 -72 28 -99.5 q28 -27.5 76 -27.5 q38 0 98 12 l20 -184 q-106 -24 -223 -24 q-141 0 -209.5 74.5 q-68.5 74.5 -68.5 210.5 l0 627 l-363 0 l0 -124 q0 -226 -21 -408 q-21 -182 -67 -360 l-287 0 q58 234 79.5 403 q21.5 169 21.5 357 l0 132 q-215 0 -282 -37 l0 198 q29 14 82 21.5 q53 7.5 100 7.5 l1289 0 l0 -190 l-273 0 Z" /><glyph glyph-name="rho" unicode="&#x3c1;" d="M1187 516 q0 -241 -125.5 -388.5 q-125.5 -147.5 -334.5 -147.5 q-188 0 -311 137 l-4 0 q4 -60 4 -117 l0 -425 l-295 0 l0 1006 q0 244 138 383 q138 139 375 139 q157 0 284 -73 q127 -73 198 -206.5 q71 -133.5 71 -307.5 ZM893 526 q0 177 -70 280 q-70 103 -187 103 q-220 0 -220 -337 l0 -272 q115 -126 261 -126 q103 0 159.5 93 q56.5 93 56.5 259 Z" /><glyph glyph-name="sigma1" unicode="&#x3c2;" d="M340 445 q0 -58 22 -95 q22 -37 60.5 -62.5 q38.5 -25.5 91.5 -44 q53 -18.5 115 -39.5 l82 -24 q153 -44 213 -115.5 q60 -71.5 60 -184.5 q0 -61 -30 -138.5 q-30 -77.5 -76 -142.5 l-178 74 q55 92 55 154 q0 38 -23.5 64.5 q-23.5 26.5 -69 46 q-45.5 19.5 -190.5 54.5 q-114 30 -165.5 53.5 q-51.5 23.5 -92.5 55.5 q-41 32 -71 77 q-30 45 -47 106.5 q-17 61.5 -17 143.5 q0 179 72.5 344.5 q72.5 165.5 193 248 q120.5 82.5 276.5 82.5 q225 0 351 -141 l-139 -149 q-95 100 -202 100 q-81 0 -146 -59 q-65 -59 -105 -175 q-40 -116 -40 -234 Z" /><glyph glyph-name="sigma" unicode="&#x3c3;" d="M1170 458 q0 -224 -143 -351 q-143 -127 -399 -127 q-263 0 -405.5 139 q-142.5 139 -142.5 405 q0 265 166 411.5 q166 146.5 473 146.5 l642 0 l0 -190 l-195 0 l-164 6 l0 -4 q88 -113 128 -220 q40 -107 40 -216 ZM876 492 q0 216 -102 400 l-74 0 q-149 0 -237 -98 q-88 -98 -88 -270 q0 -352 246 -352 q124 0 189.5 82 q65.5 82 65.5 238 Z" /><glyph glyph-name="tau" unicode="&#x3c4;" d="M270 892 q-82 0 -156 -12 q-74 -12 -96 -25 l0 198 q24 12 77.5 20.5 q53.5 8.5 105.5 8.5 l679 0 l0 -190 l-305 0 l0 -580 q0 -69 25.5 -102 q25.5 -33 89.5 -33 q38 0 81 8 l24 -178 q-36 -10 -95.5 -19 q-59.5 -9 -103.5 -9 q-299 0 -299 272 l0 641 l-27 0 Z" /><glyph glyph-name="upsilon" unicode="&#x3c5;" d="M1108 571 q0 -292 -129.5 -441.5 q-129.5 -149.5 -384.5 -149.5 q-240 0 -353.5 110.5 q-113.5 110.5 -113.5 342.5 l0 649 l281 0 l0 -622 q0 -136 47.5 -204.5 q47.5 -68.5 155.5 -68.5 q116 0 166 95 q50 95 50 321 q0 112 -37.5 252 q-37.5 140 -86.5 227 l286 0 q52 -104 85.5 -244 q33.5 -140 33.5 -267 Z" /><glyph glyph-name="phi" unicode="&#x3c6;" d="M1386 565 q0 -273 -139.5 -421.5 q-139.5 -148.5 -401.5 -161.5 l0 -407 l-238 0 l0 405 q-257 11 -392 154 q-135 143 -135 410 q0 247 108 385 q108 138 341 177 l21 -179 q-93 -24 -144 -124.5 q-51 -100.5 -51 -258.5 q0 -176 64 -272 q64 -96 188 -105 l0 535 q0 198 87 300 q87 102 273 102 q191 0 305 -146.5 q114 -146.5 114 -392.5 ZM1111 567 q0 363 -143 363 q-123 0 -123 -231 l0 -533 q128 6 197 106 q69 100 69 295 Z" /><glyph glyph-name="chi" unicode="&#x3c7;" d="M233 1104 q74 0 126 -32.5 q52 -32.5 100.5 -107.5 q48.5 -75 146.5 -300 l14 -46 q26 74 59 139 l155 325 l297 0 l-375 -690 l413 -816 l-300 0 l-195 432 q-47 102 -72 190 q-9 -29 -35 -92.5 q-26 -63.5 -40 -92.5 l-214 -437 l-300 0 l452 829 l-119 243 q-53 108 -85 159 q-32 51 -59 71.5 q-27 20.5 -64 20.5 q-41 0 -81 -16 l-40 191 q85 30 216 30 Z" /><glyph glyph-name="psi" unicode="&#x3c8;" d="M901 176 q95 1 144.5 30 q49.5 29 72 91.5 q22.5 62.5 22.5 176.5 l0 608 l275 0 l0 -624 q0 -255 -123 -365.5 q-123 -110.5 -389 -112.5 l0 -405 l-259 0 l0 405 q-266 2 -390.5 115.5 q-124.5 113.5 -124.5 362.5 l0 624 l275 0 l0 -607 q0 -155 52 -224.5 q52 -69.5 188 -73.5 l0 1163 l257 0 l0 -1164 Z" /><glyph glyph-name="omega" unicode="&#x3c9;" d="M995 474 q0 -142 47 -220 q47 -78 132 -78 q97 0 143 81.5 q46 81.5 46 261.5 q0 162 -66.5 267 q-66.5 105 -187.5 128 l23 189 q249 -37 383 -189 q134 -152 134 -397 q0 -257 -114 -397 q-114 -140 -321 -140 q-276 0 -347 238 l-4 0 q-71 -238 -347 -238 q-207 0 -321 140 q-114 140 -114 397 q0 246 134 397.5 q134 151.5 382 188.5 l23 -187 q-118 -23 -186 -125.5 q-68 -102.5 -68 -269.5 q0 -181 46.5 -262.5 q46.5 -81.5 141.5 -81.5 q86 0 134.5 78 q48.5 78 48.5 219 l0 187 l258 0 l0 -187 Z" /><glyph glyph-name="uni03D0" unicode="&#x3d0;" d="M1150 411 q0 -203 -135 -317 q-135 -114 -365 -114 q-262 0 -404.5 195 q-142.5 195 -142.5 558 q0 230 74 398.5 q74 168.5 222 265 q148 96.5 334 96.5 q152 0 240 -59.5 q88 -59.5 88 -167.5 q0 -121 -95 -189.5 q-95 -68.5 -258 -68.5 q-81 0 -159.5 19 q-78.5 19 -125.5 49 q-24 -48 -41.5 -128 q-17.5 -80 -17.5 -138 q0 -69 4 -103 q55 56 141.5 92.5 q86.5 36.5 179.5 36.5 q221 0 341 -112.5 q120 -112.5 120 -312.5 ZM858 1252 q0 61 -124 61 q-64 0 -121 -23 q-57 -23 -88 -59 q21 -18 70.5 -31 q49.5 -13 121.5 -13 q63 0 102 17.5 q39 17.5 39 47.5 ZM883 405 q0 104 -59.5 162 q-59.5 58 -168.5 58 q-101 0 -163.5 -58.5 q-62.5 -58.5 -62.5 -161.5 q0 -101 61.5 -160.5 q61.5 -59.5 164.5 -59.5 q111 0 169.5 56.5 q58.5 56.5 58.5 163.5 Z" /><glyph glyph-name="uni03D1" unicode="&#x3d1;" d="M1192 711 l-115 0 q-12 -228 -83 -397 q-71 -169 -186.5 -251.5 q-115.5 -82.5 -268.5 -82.5 q-185 0 -280 69.5 q-95 69.5 -95 202.5 q0 42 15 116 q15 73 15 109 q0 50 -58 50 q-21 0 -55 -11 q-34 -11 -57 -28 l0 198 q87 50 195 50 q104 0 161 -51.5 q57 -51.5 57 -140.5 q0 -44 -15 -119 q-15 -75 -15 -120 q0 -69 35 -96 q35 -27 98 -27 q78 0 140 63 q62 63 100.5 187.5 q38.5 124.5 42.5 278.5 q-166 0 -298 52 q-132 52 -196.5 146.5 q-64.5 94.5 -64.5 222.5 q0 162 109 261.5 q109 99.5 282 99.5 q422 0 422 -572 l115 0 l0 -210 ZM827 921 q0 194 -41 278 q-41 84 -126 84 q-68 0 -106.5 -35 q-38.5 -35 -38.5 -105 q0 -102 81 -162 q81 -60 231 -60 Z" /><glyph glyph-name="uni03D2" unicode="&#x3d2;" d="M831 578 l0 -578 l-294 0 l0 578 l-502 831 l309 0 l338 -596 l266 463 q57 100 122.5 143 q65.5 43 159.5 43 q87 0 171 -41 q84 -41 146 -106 l-111 -180 q-83 81 -164 81 q-59 0 -97 -63 l-344 -575 Z" /><glyph glyph-name="uni03D6" unicode="&#x3d6;" d="M78 1082 l1576 0 l0 -203 l-121 0 q116 -156 116 -362 q0 -257 -114 -397 q-114 -140 -321 -140 q-276 0 -347 238 l-4 0 q-71 -238 -347 -238 q-207 0 -321 140 q-114 140 -114 397 q0 204 115 362 l-118 0 l0 203 ZM1364 521 q0 114 -31 213.5 q-31 99.5 -80 144.5 l-776 0 q-49 -46 -80 -146.5 q-31 -100.5 -31 -211.5 q0 -181 46.5 -262.5 q46.5 -81.5 141.5 -81.5 q86 0 134.5 78 q48.5 78 48.5 219 l0 167 l258 0 l0 -167 q0 -142 47 -220 q47 -78 132 -78 q96 0 143 83 q47 83 47 262 Z" /><glyph glyph-name="uni03D7" unicode="&#x3d7;" d="M973 703 l-570 -703 l-345 0 q102 136 160 307 q58 171 58 338 q0 111 -32 162 q-32 51 -97 51 q-45 0 -93 -14 l-34 231 q30 9 88.5 15.5 q58.5 6.5 97.5 6.5 q147 0 227.5 -92.5 q80.5 -92.5 80.5 -262.5 q0 -83 -24 -171 q-24 -88 -80 -203 l5 -2 l559 716 l365 0 q-105 -140 -166 -315.5 q-61 -175.5 -61 -342.5 q0 -113 32 -162 q32 -49 97 -49 q65 0 121 14 l0 -304 q0 -177 -79 -262.5 q-79 -85.5 -244 -85.5 q-48 0 -106 5.5 q-58 5.5 -86 11.5 l0 211 q58 -12 105 -12 q70 0 107.5 32.5 q37.5 32.5 37.5 92.5 l0 73 q-109 23 -166 110.5 q-57 87.5 -57 227.5 q0 83 24 171 q24 88 80 203 l-5 2 Z" /><glyph glyph-name="uni03D8" unicode="&#x3d8;" d="M648 -425 l0 416 q-268 40 -416 230.5 q-148 190.5 -148 489.5 q0 339 188 529 q188 190 523 190 q221 0 382 -86.5 q161 -86.5 245.5 -250 q84.5 -163.5 84.5 -382.5 q0 -294 -149 -484.5 q-149 -190.5 -415 -234.5 l0 -417 l-295 0 ZM1206 711 q0 228 -108 357.5 q-108 129.5 -303 129.5 q-198 0 -306 -128.5 q-108 -128.5 -108 -358.5 q0 -232 110.5 -365.5 q110.5 -133.5 301.5 -133.5 q198 0 305.5 130 q107.5 130 107.5 369 Z" /><glyph glyph-name="uni03D9" unicode="&#x3d9;" d="M486 -425 l0 418 q-193 37 -299.5 182 q-106.5 145 -106.5 367 q0 261 144 410.5 q144 149.5 403 149.5 q265 0 404.5 -144.5 q139.5 -144.5 139.5 -415.5 q0 -222 -105.5 -366 q-105.5 -144 -298.5 -182 l0 -419 l-281 0 ZM877 542 q0 193 -63 280 q-63 87 -183 87 q-256 0 -256 -367 q0 -181 62.5 -275.5 q62.5 -94.5 180.5 -94.5 q132 0 195.5 91.5 q63.5 91.5 63.5 278.5 Z" /><glyph glyph-name="uni03DA" unicode="&#x3da;" d="M661 0 l0 255 q-164 21 -285.5 101 q-121.5 80 -186.5 205 q-65 125 -65 276 q0 184 75 317.5 q75 133.5 221.5 204.5 q146.5 71 351.5 71 q494 0 623 -392 l-260 -71 q-33 106 -129.5 168.5 q-96.5 62.5 -227.5 62.5 q-174 0 -265.5 -89 q-91.5 -89 -91.5 -272 q0 -166 103 -262 q103 -96 278 -96 q74 0 154 20 l0 -499 l-295 0 Z" /><glyph glyph-name="uni03DB" unicode="&#x3db;" d="M787 -100 q0 42 -32 66 q-32 24 -119 47 q-173 42 -262.5 77 q-89.5 35 -153 90.5 q-63.5 55.5 -102 143 q-38.5 87.5 -38.5 218.5 q0 264 135 412 q135 148 383 148 q191 0 316 -96 q125 -96 157 -265 l-283 -14 q-12 83 -60 132.5 q-48 49.5 -136 49.5 q-107 0 -162 -84.5 q-55 -84.5 -55 -246.5 q0 -85 21 -139 q21 -54 61 -88.5 q40 -34.5 96.5 -56.5 q56.5 -22 127.5 -44 q74 -23 143 -46.5 q69 -23.5 122.5 -59.5 q53.5 -36 85.5 -91 q32 -55 32 -140 q0 -65 -36 -130.5 q-36 -65.5 -100 -112 q-64 -46.5 -153.5 -71 q-89.5 -24.5 -207.5 -24.5 q-190 0 -402 48 l0 232 q74 -28 182 -46.5 q108 -18.5 199 -18.5 q123 0 182 30 q59 30 59 80 Z" /><glyph glyph-name="uni03DC" unicode="&#x3dc;" d="M838 390 l0 187 l-406 0 l0 -577 l-295 0 l0 1409 l1039 0 l0 -228 l-744 0 l0 -376 l701 0 l0 -415 l-295 0 Z" /><glyph glyph-name="uni03DD" unicode="&#x3dd;" d="M613 88 l0 191 l-203 0 l0 -704 l-274 0 l0 1507 l716 0 l0 -203 l-442 0 l0 -401 l399 0 l0 -390 l-196 0 Z" /><glyph glyph-name="uni03DE" unicode="&#x3de;" d="M1430 1275 q-19 -120 -45 -245.5 q-26 -125.5 -49.5 -246 q-23.5 -120.5 -40 -229.5 q-16.5 -109 -16.5 -195 q0 -82 31.5 -118 q31.5 -36 96.5 -36 q44 0 103 15 l0 -220 q-32 -8 -107 -14 q-75 -6 -111 -6 q-138 0 -214.5 68.5 q-76.5 68.5 -76.5 184.5 q0 143 61 443 l21 112 q-137 -71 -409.5 -246 q-272.5 -175 -519.5 -350 l-29 11 q19 120 43 234.5 q24 114.5 45 222 q21 107.5 35 205.5 q14 98 14 184 q0 82 -31 118 q-31 36 -97 36 q-45 0 -103 -15 l0 220 q33 8 107.5 14 q74.5 6 110.5 6 q138 0 214.5 -68.5 q76.5 -68.5 76.5 -184.5 q0 -65 -13 -162 q-13 -97 -50 -283 l924 556 l29 -11 Z" /><glyph glyph-name="uni03DF" unicode="&#x3df;" d="M1052 798 l-294 -798 l-234 0 l224 618 l-719 0 l0 49 l297 817 l234 0 l-234 -637 l726 0 l0 -49 Z" /><glyph glyph-name="uni03E0" unicode="&#x3e0;" d="M645 1195 q-279 0 -511 -218 l-116 219 q270 234 650 234 q264 0 467.5 -121 q203.5 -121 315 -342.5 q111.5 -221.5 111.5 -500.5 q0 -427 -213 -642.5 q-213 -215.5 -667 -246.5 l-111 211 q266 3 418 74.5 q152 71.5 223 219.5 q71 148 71 379 l0 4 l-620 -301 l-94 182 l693 336 q-22 110 -67 197 l-727 -349 l-94 182 l695 334 q-80 81 -182.5 115 q-102.5 34 -241.5 34 Z" /><glyph glyph-name="uni03E1" unicode="&#x3e1;" d="M899 125 q0 143 -23 275 l-380 -187 l-95 200 l416 206 q-34 91 -92 185 l-415 -204 l-94 191 l370 185 q-200 196 -555 318 l167 197 q361 -142 567.5 -318 q206.5 -176 303.5 -415 q97 -239 97 -577 q0 -109 -16 -253.5 q-16 -144.5 -42 -258.5 l-292 -95 q83 282 83 551 Z" /><glyph glyph-name="uni03E2" unicode="&#x3e2;" d="M150 -425 l0 231 l1262 0 q110 0 145.5 43.5 q35.5 43.5 35.5 170.5 l0 121 q-58 -82 -141 -121.5 q-83 -39.5 -216 -39.5 q-118 0 -194.5 42 q-76.5 42 -121.5 126 q-84 -89 -179.5 -128.5 q-95.5 -39.5 -215.5 -39.5 q-175 0 -274.5 110.5 q-99.5 110.5 -99.5 304.5 l0 1014 l294 0 l0 -934 q0 -146 45 -215.5 q45 -69.5 152 -69.5 q102 0 164 82 q62 82 62 217 l0 920 l294 0 l0 -934 q0 -146 45 -215.5 q45 -69.5 152 -69.5 q102 0 164 82 q62 82 62 217 l0 920 l296 0 l0 -1389 q0 -163 -36 -260 q-36 -97 -111 -141 q-75 -44 -217 -44 l-1367 0 Z" /><glyph glyph-name="uni03E3" unicode="&#x3e3;" d="M1678 10 q0 -160 -37.5 -255.5 q-37.5 -95.5 -113.5 -137.5 q-76 -42 -223 -42 l-1199 0 l0 205 l1124 0 q107 0 148.5 54 q41.5 54 41.5 186 l0 162 l-4 0 q-43 -103 -120 -153 q-77 -50 -209 -50 q-124 0 -194.5 53 q-70.5 53 -96.5 168 q-54 -117 -133 -169 q-79 -52 -211 -52 q-158 0 -241 107.5 q-83 107.5 -83 308.5 l0 687 l279 0 l0 -607 q0 -285 164 -285 q86 0 139 85 q53 85 53 214 l0 593 l279 0 l0 -607 q0 -285 164 -285 q86 0 139 87 q53 87 53 225 l0 580 l281 0 l0 -1072 Z" /><glyph glyph-name="uni03E4" unicode="&#x3e4;" d="M409 963 q0 -138 80.5 -209.5 q80.5 -71.5 240.5 -71.5 q139 0 276 54 l0 673 l295 0 l0 -1409 l-295 0 l0 527 q-184 -64 -349 -64 q-249 0 -390.5 131.5 q-141.5 131.5 -141.5 368.5 q0 147 56 250.5 q56 103.5 159 158 q103 54.5 238 54.5 q102 0 187 -17 l-35 -210 q-38 7 -110 7 q-110 0 -160.5 -62.5 q-50.5 -62.5 -50.5 -180.5 Z" /><glyph glyph-name="uni03E5" unicode="&#x3e5;" d="M838 0 l0 570 q-47 -88 -136 -138 q-89 -50 -208 -50 q-172 0 -264 106 q-92 106 -92 310 l0 326 q0 368 321 368 q27 0 91.5 -5 q64.5 -5 100.5 -12 l0 -215 q-58 12 -105 12 q-64 0 -96 -38 q-32 -38 -32 -107 l0 -249 q0 -155 44.5 -220 q44.5 -65 145.5 -65 q102 0 166 87.5 q64 87.5 64 224.5 l0 579 l281 0 l0 -1484 l-281 0 Z" /><glyph glyph-name="uni03E6" unicode="&#x3e6;" d="M1043 336 q0 191 -84 291 q-84 100 -243 100 q-147 0 -276 -51 l0 -676 l-295 0 l0 1409 l295 0 l0 -524 q96 33 174 47 q78 14 175 14 q162 0 282.5 -73 q120.5 -73 185 -211.5 q64.5 -138.5 64.5 -329.5 q0 -235 -76 -404 q-76 -169 -237 -261 q-161 -92 -393 -92 l-470 0 l0 205 l426 0 q176 0 277 60 q101 60 148 185 q47 125 47 311 Z" /><glyph glyph-name="uni03E7" unicode="&#x3e7;" d="M1021 1143 l166 -158 q-46 -71 -130 -165 q60 -118 60 -274 q0 -277 -115 -421.5 q-115 -144.5 -334 -144.5 q-122 0 -221 57 q-59 34 -86 45.5 q-27 11.5 -50 11.5 q-81 0 -81 -94 l-218 0 q0 90 34.5 162 q34.5 72 96 113 q61.5 41 134.5 41 q59 0 104 -18.5 q45 -18.5 85 -41 q40 -22.5 81 -41 q41 -18.5 92 -18.5 q96 0 139.5 81.5 q43.5 81.5 43.5 257.5 l-2 70 q-169 -115 -335 -115 q-173 0 -270 72.5 q-97 72.5 -97 201.5 q0 157 124 247 q124 90 338 90 q93 0 179.5 -29.5 q86.5 -29.5 153.5 -77.5 q54 70 108 148 ZM364 796 q0 -46 37 -74.5 q37 -28.5 112 -28.5 q137 0 244 122 q-32 45 -88 70 q-56 25 -125 25 q-180 0 -180 -114 Z" /><glyph glyph-name="uni03E8" unicode="&#x3e8;" d="M86 406 q0 82 21.5 142 q21.5 60 59 103.5 q37.5 43.5 88.5 73.5 q51 30 110 51 q59 21 124 36 q65 15 131 30 q170 36 226.5 60.5 q56.5 24.5 85 60 q28.5 35.5 28.5 90.5 q0 168 -260 168 q-247 0 -291 -183 l-286 39 q38 188 173.5 270.5 q135.5 82.5 399.5 82.5 q271 0 411 -100.5 q140 -100.5 140 -293.5 q0 -86 -28.5 -150 q-28.5 -64 -85.5 -111.5 q-57 -47.5 -155 -85.5 q-98 -38 -365 -104 q-122 -30 -181 -77 q-59 -47 -59 -119 q0 -188 309 -188 q143 0 214.5 45.5 q71.5 45.5 71.5 144.5 q0 44 -10 80 q-10 36 -39 77 l259 75 q79 -120 79 -249 q0 -394 -567 -394 q-296 0 -450 109.5 q-154 109.5 -154 316.5 Z" /><glyph glyph-name="uni03E9" unicode="&#x3e9;" d="M1194 71 q-103 -41 -238 -66 q-135 -25 -266 -25 q-300 0 -452 106 q-152 106 -152 311 q0 82 21.5 143 q21.5 61 60 106 q38.5 45 92 76.5 q53.5 31.5 117.5 55.5 q64 24 243 64 q170 36 226.5 60.5 q56.5 24.5 85 60 q28.5 35.5 28.5 90.5 q0 168 -260 168 q-247 0 -291 -183 l-286 39 q38 185 175 269 q137 84 404 84 q269 0 407 -100 q138 -100 138 -294 q0 -145 -83.5 -234 q-83.5 -89 -287.5 -145 l-263 -72 q-127 -33 -183.5 -79 q-56.5 -46 -56.5 -117 q0 -97 82 -141 q82 -44 247 -44 q111 0 225 22 q114 22 267 80 l0 -235 Z" /><glyph glyph-name="uni03EA" unicode="&#x3ea;" d="M657 1156 l27 53 q63 123 132.5 172 q69.5 49 191.5 49 q71 0 142.5 -26.5 q71.5 -26.5 131.5 -79.5 l-71 -203 q-40 35 -86 56.5 q-46 21.5 -83 21.5 q-56 0 -90.5 -23.5 q-34.5 -23.5 -64.5 -83.5 l-96 -197 l353 -684 l0 -211 l-974 0 l0 211 l352 684 l-95 197 q-29 61 -64.5 84 q-35.5 23 -90.5 23 q-38 0 -82.5 -21 q-44.5 -21 -86.5 -57 l-71 203 q60 53 131.5 79.5 q71.5 26.5 142.5 26.5 q122 0 192 -49.5 q70 -49.5 132 -171.5 l27 -53 ZM855 211 l-198 407 l-198 -407 l396 0 Z" /><glyph glyph-name="uni03EB" unicode="&#x3eb;" d="M618 840 l75 102 q62 84 124.5 122 q62.5 38 143.5 38 q152 0 271 -105 l-71 -203 q-86 71 -159 71 q-56 0 -93.5 -26 q-37.5 -26 -71.5 -74 l-81 -114 l340 -461 l0 -190 l-956 0 l0 190 l339 461 l-80 114 q-32 46 -70.5 73 q-38.5 27 -94.5 27 q-73 0 -159 -71 l-71 203 q119 105 271 105 q81 0 143.5 -38 q62.5 -38 124.5 -122 l75 -102 ZM618 456 l-189 -266 l378 0 l-189 266 Z" /><glyph glyph-name="uni03EC" unicode="&#x3ec;" d="M1284 1245 l-162 0 q-262 0 -418.5 -28 q-156.5 -28 -231.5 -92 q-75 -64 -94 -191 q170 126 428 126 q296 0 458.5 -140 q162.5 -140 162.5 -390 q0 -261 -176.5 -405.5 q-176.5 -144.5 -497.5 -144.5 q-323 0 -496 171 q-173 171 -173 480 q0 255 55 416.5 q55 161.5 173 256 q118 94.5 318.5 137.5 q200.5 43 555.5 43 l97 0 l1 -239 ZM1136 529 q0 157 -93.5 231 q-93.5 74 -287.5 74 q-194 0 -289 -74.5 q-95 -74.5 -95 -230.5 q0 -161 97.5 -242 q97.5 -81 284.5 -81 q383 0 383 323 Z" /><glyph glyph-name="uni03ED" unicode="&#x3ed;" d="M1109 379 q0 -190 -135.5 -294.5 q-135.5 -104.5 -384.5 -104.5 q-244 0 -376 145 q-132 145 -132 405 q0 287 211.5 432 q211.5 145 609.5 145 l207 0 l0 -207 l-191 0 q-198 0 -294 -23.5 q-96 -23.5 -153.5 -73 q-57.5 -49.5 -86 -127.5 q-28.5 -78 -28.5 -187 q0 -154 62.5 -236.5 q62.5 -82.5 188.5 -82.5 q112 0 172 47 q60 47 60 141 q0 81 -49.5 124.5 q-49.5 43.5 -143.5 43.5 q-68 0 -135 -21 l0 200 q99 21 196 21 q196 0 299 -90.5 q103 -90.5 103 -256.5 Z" /><glyph glyph-name="uni03EE" unicode="&#x3ee;" d="M1022 791 q0 -32 -7 -86.5 q-7 -54.5 -16 -83.5 l-173 41 q14 56 14 85 q0 63 -31 91 q-31 28 -109 28 l-37 0 l0 -866 l-287 0 l0 866 l-38 0 q-77 0 -108.5 -28.5 q-31.5 -28.5 -31.5 -90.5 q0 -29 14 -85 l-173 -41 q-10 33 -16.5 87 q-6.5 54 -6.5 83 q0 154 84 227 q84 73 237 73 l39 0 l0 318 l287 0 l0 -318 l38 0 q157 0 239 -77 q82 -77 82 -223 Z" /><glyph glyph-name="uni03EF" unicode="&#x3ef;" d="M859 942 l-289 0 l-30 -957 l-275 100 l0 28 l101 0 l-30 829 l-198 0 l-74 -148 l-24 0 l0 288 l296 0 l-20 414 l365 -100 l0 -27 l-101 0 l-10 -287 l289 0 l0 -140 Z" /><glyph glyph-name="uni03F0" unicode="&#x3f0;" d="M973 703 l-570 -703 l-345 0 q102 136 160 307 q58 171 58 338 q0 110 -31 160.5 q-31 50.5 -98 50.5 q-45 0 -93 -14 l-34 225 q30 9 88.5 15.5 q58.5 6.5 97.5 6.5 q150 0 229 -91 q79 -91 79 -256 q0 -83 -24 -171 q-24 -88 -80 -203 l5 -2 l559 716 l365 0 q-105 -140 -166 -315.5 q-61 -175.5 -61 -342.5 q0 -113 32 -162 q32 -49 97 -49 q45 0 93 14 l34 -225 q-30 -9 -88.5 -15.5 q-58.5 -6.5 -97.5 -6.5 q-150 0 -229 91 q-79 91 -79 256 q0 83 24 171 q24 88 80 203 l-5 2 Z" /><glyph glyph-name="uni03F1" unicode="&#x3f1;" d="M1171 554 q0 -251 -136.5 -400 q-136.5 -149 -371.5 -149 q-108 0 -194 37.5 q-86 37.5 -131 99.5 q15 -117 59.5 -175 q44.5 -58 131.5 -83 q87 -25 278 -25 q177 0 260 -63.5 q83 -63.5 95 -220.5 l-249 0 q0 27 -21.5 38 q-21.5 11 -69.5 16 q-48 5 -133 5 q-171 0 -286 46.5 q-115 46.5 -182.5 139.5 q-67.5 93 -99 245.5 q-31.5 152.5 -31.5 427.5 q0 288 140 448.5 q140 160.5 397 160.5 q265 0 404.5 -141 q139.5 -141 139.5 -407 ZM877 554 q0 187 -63 271 q-63 84 -183 84 q-125 0 -190.5 -85 q-65.5 -85 -65.5 -270 q0 -174 63 -265.5 q63 -91.5 180 -91.5 q131 0 195 88 q64 88 64 269 Z" /><glyph glyph-name="uni03F5" unicode="&#x3f5;" d="M651 879 q-135 0 -200 -60 q-65 -60 -78 -180 l345 0 l0 -203 l-344 0 q15 -118 79.5 -175.5 q64.5 -57.5 197.5 -57.5 l247 0 l0 -203 l-271 0 q-269 0 -408 137 q-139 137 -139 404 q0 267 139.5 404 q139.5 137 407.5 137 l271 0 l0 -203 l-247 0 Z" /><glyph glyph-name="uni03F6" unicode="&#x3f6;" d="M81 879 l0 203 l271 0 q269 0 408 -137 q139 -137 139 -404 q0 -267 -139.5 -404 q-139.5 -137 -407.5 -137 l-271 0 l0 203 l247 0 q133 0 197.5 57.5 q64.5 57.5 79.5 175.5 l-344 0 l0 203 l345 0 q-13 121 -78 180.5 q-65 59.5 -200 59.5 l-247 0 Z" /><glyph glyph-name="uni03FA" unicode="&#x3fa;" d="M1307 0 l0 1153 l-349 -553 l-210 0 l-349 561 l0 -1161 l-262 0 l0 1409 l395 0 l322 -522 l322 522 l393 0 l0 -1409 l-262 0 Z" /><glyph glyph-name="uni03FB" unicode="&#x3fb;" d="M870 0 l-213 0 l-284 885 q16 -155 16 -257 l0 -1053 l-246 0 l0 1507 l372 0 l180 -561 q57 -184 68 -286 q16 118 68 286 l175 561 l366 0 l0 -1082 l-246 0 l0 628 q0 103 18 259 l-274 -887 Z" /><glyph glyph-name="uni03FC" unicode="&#x3fc;" d="M1187 516 q0 -241 -125.5 -388.5 q-125.5 -147.5 -334.5 -147.5 q-188 0 -311 137 l-4 0 q4 -60 4 -117 l0 -120 l179 0 l0 -196 l-179 0 l0 -109 l-295 0 l0 109 l-120 0 l0 196 l120 0 l0 701 q0 244 138 383 q138 139 375 139 q158 0 285 -73.5 q127 -73.5 197.5 -208 q70.5 -134.5 70.5 -305.5 ZM893 526 q0 177 -70 280 q-70 103 -187 103 q-220 0 -220 -337 l0 -272 q115 -126 261 -126 q103 0 159.5 93 q56.5 93 56.5 259 Z" /><glyph glyph-name="uni0402" unicode="&#x402;" d="M773 1181 l0 -336 q122 51 248.5 77 q126.5 26 234.5 26 q232 0 342 -107.5 q110 -107.5 110 -340.5 l0 -54 q0 -247 -107.5 -356.5 q-107.5 -109.5 -333.5 -109.5 q-137 0 -231 41.5 q-94 41.5 -164 136.5 l202 171 q52 -68 93 -92.5 q41 -24.5 88 -24.5 q91 0 130 51 q39 51 39 198 l0 9 q0 145 -59.5 201 q-59.5 56 -203.5 56 q-95 0 -200 -19 q-105 -19 -188 -47 l0 -661 l-295 0 l0 1181 l-455 0 l0 228 l1206 0 l0 -228 l-456 0 Z" /><glyph glyph-name="uni0404" unicode="&#x404;" d="M787 212 q260 0 364 268 l252 -97 q-164 -403 -619 -403 q-335 0 -517.5 192.5 q-182.5 192.5 -182.5 538.5 q0 349 177 534 q177 185 510 185 q486 0 614 -392 l-255 -71 q-33 106 -127 168.5 q-94 62.5 -223 62.5 q-180 0 -281.5 -96.5 q-101.5 -96.5 -111.5 -272.5 l546 0 l0 -228 l-547 0 q13 -188 117 -288.5 q104 -100.5 284 -100.5 Z" /><glyph glyph-name="uni0409" unicode="&#x409;" d="M2168 431 q0 -128 -61.5 -225.5 q-61.5 -97.5 -180 -151.5 q-118.5 -54 -279.5 -54 l-691 0 l0 1165 l-347 0 l-49 -348 q-54 -376 -105 -536.5 q-51 -160.5 -129 -228.5 q-78 -68 -219 -68 q-69 0 -99 17 l0 247 q14 -7 43 -7 q57 0 94 70 q37 70 69.5 227.5 q32.5 157.5 66.5 397.5 l67 473 l903 0 l0 -561 l428 0 q235 0 362 -109.5 q127 -109.5 127 -307.5 ZM1870 427 q0 93 -69.5 143.5 q-69.5 50.5 -207.5 50.5 l-342 0 l0 -391 l348 0 q271 0 271 197 Z" /><glyph glyph-name="uni040A" unicode="&#x40a;" d="M2102 431 q0 -128 -61.5 -225.5 q-61.5 -97.5 -180 -151.5 q-118.5 -54 -279.5 -54 l-602 0 l0 604 l-547 0 l0 -604 l-295 0 l0 1409 l295 0 l0 -561 l547 0 l0 561 l295 0 l0 -561 l339 0 q235 0 362 -109.5 q127 -109.5 127 -307.5 ZM1804 427 q0 93 -69.5 143.5 q-69.5 50.5 -207.5 50.5 l-253 0 l0 -391 l259 0 q271 0 271 197 Z" /><glyph glyph-name="uni040B" unicode="&#x40b;" d="M773 1181 l0 -319 q219 83 414 83 q235 0 353.5 -113 q118.5 -113 118.5 -352 l0 -480 l-284 0 l0 449 q0 151 -68 214 q-68 63 -215 63 q-152 0 -319 -53 l0 -673 l-295 0 l0 1181 l-455 0 l0 228 l1206 0 l0 -228 l-456 0 Z" /><glyph glyph-name="uni040F" unicode="&#x40f;" d="M611 -408 l0 408 l-474 0 l0 1409 l295 0 l0 -1165 l617 0 l0 1165 l285 0 l0 -1409 l-473 0 l0 -408 l-250 0 Z" /><glyph glyph-name="uni0411" unicode="&#x411;" d="M1399 431 q0 -128 -61.5 -225.5 q-61.5 -97.5 -180 -151.5 q-118.5 -54 -279.5 -54 l-741 0 l0 1409 l1061 0 l0 -227 l-766 0 l0 -334 l478 0 q235 0 362 -109.5 q127 -109.5 127 -307.5 ZM1101 427 q0 93 -69.5 143.5 q-69.5 50.5 -207.5 50.5 l-392 0 l0 -391 l398 0 q271 0 271 197 Z" /><glyph glyph-name="uni0413" unicode="&#x413;" d="M1121 1409 l0 -228 l-689 0 l0 -1180 l-295 0 l0 1408 l984 0 Z" /><glyph glyph-name="uni0414" unicode="&#x414;" d="M1237 244 l185 0 l0 -652 l-250 0 l0 408 l-904 0 l0 -408 l-250 0 l0 652 l156 0 q72 131 128 323.5 q56 192.5 85 396.5 l61 445 l789 0 l0 -1165 ZM952 244 l0 921 l-262 0 l-31 -234 q-29 -204 -76.5 -390.5 q-47.5 -186.5 -99.5 -296.5 l469 0 Z" /><glyph glyph-name="uni0416" unicode="&#x416;" d="M786 0 l0 612 q-32 0 -70.5 8 q-38.5 8 -56.5 20 l-349 -640 l-316 0 l455 780 q-45 34 -160 222 l-251 407 l300 0 l198 -324 q110 -178 156 -226.5 q46 -48.5 93 -48.5 l0 599 l284 0 l0 -599 q47 0 93 47.5 q46 47.5 157 227.5 l198 324 l300 0 l-251 -407 q-115 -188 -160 -222 l455 -780 l-316 0 l-349 640 q-56 -28 -127 -28 l0 -612 l-283 0 Z" /><glyph glyph-name="uni0417" unicode="&#x417;" d="M638 -20 q-236 0 -379.5 94.5 q-143.5 94.5 -212.5 293.5 l264 93 q92 -253 328 -253 q129 0 196 53.5 q67 53.5 67 150.5 q0 101 -79.5 145.5 q-79.5 44.5 -248.5 44.5 l-59 0 l0 227 l59 0 q151 0 223 48 q72 48 72 148 q0 91 -61.5 139 q-61.5 48 -169.5 48 q-212 0 -288 -247 l-268 61 q69 205 207.5 304 q138.5 99 353.5 99 q231 0 371 -99.5 q140 -99.5 140 -267.5 q0 -129 -71 -215 q-71 -86 -209 -121 q151 -22 233.5 -108 q82.5 -86 82.5 -218 q0 -192 -149 -306 q-149 -114 -402 -114 Z" /><glyph glyph-name="uni0418" unicode="&#x418;" d="M136 0 l0 1409 l262 0 l0 -819 q0 -107 -8 -275 l613 1094 l332 0 l0 -1409 l-262 0 l0 831 q0 78 8 254 l-609 -1085 l-336 0 Z" /><glyph glyph-name="uni041A" unicode="&#x41a;" d="M137 1409 l295 0 l0 -599 q52 0 111.5 61.5 q59.5 61.5 154.5 213.5 l206 324 l300 0 l-265 -405 q-124 -189 -171 -224 l485 -780 l-321 0 l-374 640 q-20 -13 -59 -24 q-39 -11 -68 -11 l0 -605 l-294 0 l0 1409 Z" /><glyph glyph-name="uni041B" unicode="&#x41b;" d="M1016 1165 l-407 0 l-49 -348 q-54 -376 -105 -536.5 q-51 -160.5 -129 -228.5 q-78 -68 -219 -68 q-69 0 -99 17 l0 247 q14 -7 43 -7 q57 0 94 70 q37 70 69.5 227.5 q32.5 157.5 66.5 397.5 l67 473 l952 0 l0 -1409 l-284 0 l0 1165 Z" /><glyph glyph-name="uni041F" unicode="&#x41f;" d="M1050 0 l0 1165 l-619 0 l0 -1165 l-294 0 l0 1409 l1198 0 l0 -1409 l-285 0 Z" /><glyph glyph-name="uni0423" unicode="&#x423;" d="M341 -20 q-71 0 -141 17.5 q-70 17.5 -112 42.5 l82 246 q89 -42 160 -42 q47 0 80.5 18 q33.5 18 63 57.5 q29.5 39.5 83.5 157.5 l-556 932 l307 0 l388 -680 l298 680 l299 0 l-525 -1091 q-69 -144 -126.5 -210.5 q-57.5 -66.5 -129 -97 q-71.5 -30.5 -171.5 -30.5 Z" /><glyph glyph-name="uni0424" unicode="&#x424;" d="M1380 730 q0 152 -79 237 q-79 85 -244 85 l-44 0 l0 -655 l51 0 q152 0 234 86 q82 86 82 247 ZM735 -11 l0 199 l-79 0 q-179 0 -312 68.5 q-133 68.5 -203 193 q-70 124.5 -70 284.5 q0 251 155 389 q155 138 442 138 l67 0 l0 158 l278 0 l0 -158 l67 0 q286 0 441.5 -138 q155.5 -138 155.5 -389 q0 -161 -70 -285 q-70 -124 -203 -192.5 q-133 -68.5 -312 -68.5 l-79 0 l0 -199 l-278 0 ZM368 730 q0 -160 81.5 -246.5 q81.5 -86.5 234.5 -86.5 l51 0 l0 655 l-44 0 q-165 0 -244 -85 q-79 -85 -79 -237 Z" /><glyph glyph-name="uni0426" unicode="&#x426;" d="M1231 -408 l0 408 l-1094 0 l0 1409 l295 0 l0 -1165 l569 0 l0 1165 l285 0 l0 -1165 l195 0 l0 -652 l-250 0 Z" /><glyph glyph-name="uni0427" unicode="&#x427;" d="M1006 0 l0 547 q-231 -83 -435 -83 q-240 0 -350.5 113 q-110.5 113 -110.5 352 l0 480 l284 0 l0 -449 q0 -158 63.5 -217.5 q63.5 -59.5 213.5 -59.5 q158 0 335 53 l0 673 l295 0 l0 -1409 l-295 0 Z" /><glyph glyph-name="uni0428" unicode="&#x428;" d="M137 0 l0 1409 l285 0 l0 -1165 l464 0 l0 1165 l285 0 l0 -1165 l465 0 l0 1165 l285 0 l0 -1409 l-1784 0 Z" /><glyph glyph-name="uni0429" unicode="&#x429;" d="M137 0 l0 1409 l285 0 l0 -1165 l443 0 l0 1165 l285 0 l0 -1165 l442 0 l0 1165 l285 0 l0 -1165 l195 0 l0 -652 l-250 0 l0 408 l-1685 0 Z" /><glyph glyph-name="uni042A" unicode="&#x42a;" d="M1219 848 q235 0 362 -109.5 q127 -109.5 127 -307.5 q0 -128 -61.5 -225.5 q-61.5 -97.5 -180 -151.5 q-118.5 -54 -279.5 -54 l-709 0 l0 1181 l-456 0 l0 228 l751 0 l0 -561 l446 0 ZM1410 427 q0 93 -69.5 143.5 q-69.5 50.5 -207.5 50.5 l-360 0 l0 -391 l366 0 q271 0 271 197 Z" /><glyph glyph-name="uni042B" unicode="&#x42b;" d="M1359 431 q0 -128 -61.5 -225.5 q-61.5 -97.5 -180 -151.5 q-118.5 -54 -279.5 -54 l-701 0 l0 1409 l295 0 l0 -561 l438 0 q235 0 362 -109.5 q127 -109.5 127 -307.5 ZM1061 427 q0 93 -69.5 143.5 q-69.5 50.5 -207.5 50.5 l-352 0 l0 -391 l358 0 q271 0 271 197 ZM1573 0 l0 1409 l295 0 l0 -1409 l-295 0 Z" /><glyph glyph-name="uni042C" unicode="&#x42c;" d="M1399 431 q0 -128 -61.5 -225.5 q-61.5 -97.5 -180 -151.5 q-118.5 -54 -279.5 -54 l-741 0 l0 1409 l295 0 l0 -561 l478 0 q235 0 362 -109.5 q127 -109.5 127 -307.5 ZM1101 427 q0 93 -69.5 143.5 q-69.5 50.5 -207.5 50.5 l-392 0 l0 -391 l398 0 q271 0 271 197 Z" /><glyph glyph-name="uni042D" unicode="&#x42d;" d="M670 212 q180 0 284 100.5 q104 100.5 117 288.5 l-547 0 l0 228 l546 0 q-10 176 -111 272.5 q-101 96.5 -282 96.5 q-129 0 -223 -62.5 q-94 -62.5 -127 -168.5 l-255 71 q128 392 614 392 q333 0 510 -184.5 q177 -184.5 177 -534.5 q0 -345 -182 -538 q-182 -193 -518 -193 q-455 0 -619 403 l252 97 q104 -268 364 -268 Z" /><glyph glyph-name="uni042E" unicode="&#x42e;" d="M2026 711 q0 -221 -80 -387 q-80 -166 -230 -255 q-150 -89 -352 -89 q-282 0 -453 165 q-171 165 -199 459 l-280 0 l0 -604 l-295 0 l0 1409 l295 0 l0 -561 l283 0 q35 280 205.5 431 q170.5 151 445.5 151 q310 0 485 -191.5 q175 -191.5 175 -527.5 ZM1725 711 q0 233 -93 360 q-93 127 -266 127 q-176 0 -268.5 -128 q-92.5 -128 -92.5 -359 q0 -237 95 -368 q95 -131 265 -131 q174 0 267 128 q93 128 93 371 Z" /><glyph glyph-name="uni042F" unicode="&#x42f;" d="M35 0 l381 592 q-143 34 -227 141.5 q-84 107.5 -84 255.5 q0 203 137.5 311.5 q137.5 108.5 388.5 108.5 l704 0 l0 -1409 l-295 0 l0 535 l-346 0 l-327 -535 l-332 0 ZM402 977 q0 -100 63.5 -156.5 q63.5 -56.5 188.5 -56.5 l386 0 l0 416 l-378 0 q-260 0 -260 -203 Z" /><glyph glyph-name="uni0431" unicode="&#x431;" d="M890 501 q0 172 -56 252.5 q-56 80.5 -183 80.5 q-134 0 -197.5 -80.5 q-63.5 -80.5 -63.5 -252.5 q0 -167 60 -248 q60 -81 184 -81 q138 0 197 80 q59 80 59 249 ZM697 1027 q251 0 369 -130.5 q118 -130.5 118 -392.5 q0 -265 -141 -394.5 q-141 -129.5 -409 -129.5 q-277 0 -408.5 161.5 q-131.5 161.5 -131.5 494.5 q0 170 25.5 299 q25.5 129 81 221.5 q55.5 92.5 143.5 155 q88 62.5 221.5 100.5 q133.5 38 561.5 90 l0 -235 q-213 -22 -412.5 -54 q-199.5 -32 -287 -83.5 q-87.5 -51.5 -125.5 -147.5 q-38 -96 -43 -269 q103 314 438 314 Z" /><glyph glyph-name="uni0432" unicode="&#x432;" d="M679 1082 q470 0 470 -271 q0 -94 -64 -155.5 q-64 -61.5 -179 -82.5 l0 -7 q134 -16 203.5 -81 q69.5 -65 69.5 -173 q0 -157 -119.5 -234.5 q-119.5 -77.5 -338.5 -77.5 l-578 0 l0 1082 l536 0 ZM425 175 l227 0 q132 0 186 33.5 q54 33.5 54 113.5 q0 85 -57 119 q-57 34 -194 34 l-216 0 l0 -300 ZM425 907 l0 -260 l208 0 q122 0 172.5 29 q50.5 29 50.5 102 q0 67 -48 98 q-48 31 -162 31 l-221 0 Z" /><glyph glyph-name="uni0433" unicode="&#x433;" d="M798 1082 l0 -190 l-373 0 l0 -892 l-282 0 l0 1082 l655 0 Z" /><glyph glyph-name="uni0434" unicode="&#x434;" d="M834 892 l-236 0 q-67 -513 -168 -702 l404 0 l0 702 ZM259 0 l0 -408 l-245 0 l0 598 l125 0 q72 112 124 324.5 q52 212.5 99 567.5 l754 0 l0 -892 l146 0 l0 -598 l-245 0 l0 408 l-758 0 Z" /><glyph glyph-name="uni0436" unicode="&#x436;" d="M600 457 q-66 0 -97 11 l-223 -468 l-297 0 l318 571 q-35 29 -92 130 l-216 381 l274 0 l136 -257 q43 -83 74.5 -129.5 q31.5 -46.5 56.5 -66 q25 -19.5 66 -21.5 l0 474 l252 0 l0 -474 q40 2 65 21 q25 19 55.5 63.5 q30.5 44.5 76.5 132.5 l136 257 l274 0 l-216 -381 q-52 -97 -92 -130 l318 -571 l-297 0 l-223 468 q-26 -11 -97 -11 l0 -457 l-252 0 l0 457 Z" /><glyph glyph-name="uni0437" unicode="&#x437;" d="M493 -20 q-179 0 -289 80 q-110 80 -151 228 l241 44 q17 -74 70.5 -119 q53.5 -45 126.5 -45 q80 0 124.5 39.5 q44.5 39.5 44.5 103.5 q0 84 -67 122 q-67 38 -228 38 l0 177 q150 0 216.5 35.5 q66.5 35.5 66.5 112.5 q0 60 -39 93.5 q-39 33.5 -111 33.5 q-82 0 -129.5 -39 q-47.5 -39 -54.5 -105 l-237 22 q25 147 140.5 224 q115.5 77 297.5 77 q180 0 290.5 -77.5 q110.5 -77.5 110.5 -203.5 q0 -98 -62.5 -163 q-62.5 -65 -185.5 -91 l0 -2 q128 -14 204.5 -85.5 q76.5 -71.5 76.5 -175.5 q0 -151 -120.5 -237.5 q-120.5 -86.5 -335.5 -86.5 Z" /><glyph glyph-name="uni0438" unicode="&#x438;" d="M404 1082 l0 -486 q0 -46 -7 -147 q-7 -101 -13 -140 l448 773 l285 0 l0 -1082 l-260 0 l0 550 q0 50 7 123 q7 73 13 100 l-435 -773 l-300 0 l0 1082 l262 0 Z" /><glyph glyph-name="uni043A" unicode="&#x43a;" d="M142 1082 l282 0 l0 -464 q42 2 62 15.5 q20 13.5 43 44 q23 30.5 51.5 81 q28.5 50.5 161.5 323.5 l274 0 l-206 -381 q-44 -82 -102 -130 l318 -571 l-287 0 l-233 458 q-31 -11 -82 -11 l0 -447 l-282 0 l0 1082 Z" /><glyph glyph-name="uni043B" unicode="&#x43b;" d="M876 0 l0 892 l-310 0 q-53 -392 -84.5 -542 q-31.5 -150 -67.5 -226.5 q-36 -76.5 -91 -110 q-55 -33.5 -148 -33.5 q-36 0 -83.5 4 q-47.5 4 -70.5 9 l0 191 q25 -9 68 -9 q56 0 85.5 52 q29.5 52 59 204 q29.5 152 97.5 651 l827 0 l0 -1082 l-282 0 Z" /><glyph glyph-name="uni043C" unicode="&#x43c;" d="M870 0 l-213 0 l-284 885 q16 -155 16 -257 l0 -628 l-246 0 l0 1082 l372 0 l180 -561 q57 -184 68 -286 q16 118 68 286 l175 561 l366 0 l0 -1082 l-246 0 l0 628 q0 103 18 259 l-274 -887 Z" /><glyph glyph-name="uni043D" unicode="&#x43d;" d="M425 1082 l0 -428 l387 0 l0 428 l282 0 l0 -1082 l-282 0 l0 463 l-387 0 l0 -463 l-282 0 l0 1082 l282 0 Z" /><glyph glyph-name="uni043F" unicode="&#x43f;" d="M1094 1082 l0 -1082 l-282 0 l0 892 l-387 0 l0 -892 l-282 0 l0 1082 l951 0 Z" /><glyph glyph-name="uni0442" unicode="&#x442;" d="M58 1082 l888 0 l0 -190 l-303 0 l0 -892 l-282 0 l0 892 l-303 0 l0 190 Z" /><glyph glyph-name="uni0444" unicode="&#x444;" d="M1709 546 q0 -271 -100.5 -418.5 q-100.5 -147.5 -280.5 -147.5 q-103 0 -181.5 48.5 q-78.5 48.5 -120.5 143.5 l-6 0 q6 -30 6 -182 l0 -415 l-261 0 l0 601 l-2 0 q-84 -196 -318 -196 q-174 0 -268.5 148 q-94.5 148 -94.5 412 q0 269 100 415.5 q100 146.5 282 146.5 q107 0 184 -49 q77 -49 117 -142 l2 0 l-2 178 l0 395 l261 0 l0 -578 q87 199 318 199 q173 0 269 -144.5 q96 -144.5 96 -414.5 ZM769 547 q0 173 -50.5 268.5 q-50.5 95.5 -149.5 95.5 q-97 0 -145.5 -89.5 q-48.5 -89.5 -48.5 -281.5 q0 -368 192 -368 q97 0 149.5 99.5 q52.5 99.5 52.5 275.5 ZM1416 546 q0 364 -194 364 q-96 0 -148 -97 q-52 -97 -52 -275 q0 -174 51.5 -270 q51.5 -96 147.5 -96 q195 0 195 374 Z" /><glyph glyph-name="uni0446" unicode="&#x446;" d="M143 0 l0 1082 l282 0 l0 -892 l387 0 l0 892 l282 0 l0 -892 l146 0 l0 -598 l-245 0 l0 408 l-852 0 Z" /><glyph glyph-name="uni0447" unicode="&#x447;" d="M363 1082 l0 -386 q0 -156 158 -156 q46 0 88.5 6.5 q42.5 6.5 156.5 38.5 l0 497 l281 0 l0 -1082 l-281 0 l0 415 l-85 -30 q-153 -56 -292 -56 q-146 0 -226 82.5 q-80 82.5 -80 232.5 l0 438 l280 0 Z" /><glyph glyph-name="uni0448" unicode="&#x448;" d="M1560 0 l-1417 0 l0 1082 l262 0 l0 -892 l316 0 l0 892 l262 0 l0 -892 l315 0 l0 892 l262 0 l0 -1082 Z" /><glyph glyph-name="uni0449" unicode="&#x449;" d="M143 0 l0 1082 l262 0 l0 -892 l317 0 l0 892 l262 0 l0 -892 l316 0 l0 892 l262 0 l0 -892 l146 0 l0 -598 l-245 0 l0 408 l-1320 0 Z" /><glyph glyph-name="uni044A" unicode="&#x44a;" d="M941 647 q235 0 351 -77 q116 -77 116 -241 q0 -161 -120 -245 q-120 -84 -346 -84 l-531 0 l0 892 l-373 0 l0 190 l655 0 l0 -435 l248 0 ZM693 175 l188 0 q127 0 183.5 35.5 q56.5 35.5 56.5 118.5 q0 78 -54 112 q-54 34 -185 34 l-189 0 l0 -300 Z" /><glyph glyph-name="uni044B" unicode="&#x44b;" d="M697 647 q235 0 356 -77 q121 -77 121 -241 q0 -159 -123.5 -244 q-123.5 -85 -352.5 -85 l-555 0 l0 1082 l282 0 l0 -435 l272 0 ZM425 175 l212 0 q130 0 190 36.5 q60 36.5 60 117.5 q0 76 -58 111 q-58 35 -191 35 l-213 0 l0 -300 ZM1325 0 l0 1082 l281 0 l0 -1082 l-281 0 Z" /></font>
</defs>
</svg>
